<svg width="750" height="750" viewBox="0 0 750 750" fill="none" xmlns="http://www.w3.org/2000/svg">
<path d="M713.685 415.568C693.444 476.918 649.837 544.155 585.666 566.043C488.704 599.124 480.042 678.647 304.062 678.104C276.624 678.021 251.155 675.149 227.658 669.899C215.026 667.079 202.96 663.554 191.478 659.397C87.2294 621.792 30.1514 532.36 22.0064 436.795C11.2739 311.104 96.8099 247.692 152.55 210.344C208.29 172.995 271.846 34.1655 444.85 33.3405C471.228 33.2265 497.649 35.811 523.383 41.73C582.127 55.2165 642.57 87.735 678.879 137.283C681.604 141.006 684.214 144.822 686.724 148.716C735.696 224.915 741.286 331.929 713.685 415.568Z" fill="#92E3A9"/>
<path opacity="0.7" d="M713.685 415.568C693.444 476.918 649.837 544.155 585.666 566.043C488.704 599.124 480.042 678.647 304.062 678.104C276.624 678.021 251.155 675.149 227.658 669.899C215.026 667.079 202.96 663.554 191.478 659.397C87.2294 621.792 30.1514 532.36 22.0064 436.795C11.2739 311.104 96.8099 247.692 152.55 210.344C208.29 172.995 271.846 34.1655 444.85 33.3405C471.228 33.2265 497.649 35.811 523.383 41.73C582.127 55.2165 642.57 87.735 678.879 137.283C681.604 141.006 684.214 144.822 686.724 148.716C735.696 224.915 741.286 331.929 713.685 415.568Z" fill="white"/>
<path d="M61.5918 689.161H720.36" stroke="#263238" stroke-miterlimit="10"/>
<path d="M147.885 435.285L147.89 435.273C147.927 435.176 147.882 435.066 147.786 435.024C147.687 434.981 147.573 435.026 147.531 435.125C141.655 448.694 137.525 462.936 134.076 477.303C130.748 491.709 128.337 506.325 126.652 521.03L125.601 532.082C125.439 533.925 125.238 535.767 125.106 537.612L124.805 543.156C124.646 546.855 124.419 550.552 124.312 554.254L124.413 565.362L124.536 570.914C124.619 572.762 124.75 574.609 124.876 576.456C125.157 580.147 125.382 583.841 125.72 587.523C126.428 594.885 127.534 602.211 128.673 609.502C128.688 609.595 128.769 609.668 128.867 609.668C128.973 609.668 129.06 609.581 129.06 609.473V609.462C129.041 605.76 128.884 602.077 128.8 598.393C128.694 594.712 128.373 591.048 128.425 587.366C128.442 583.685 128.346 580.012 128.306 576.34L128.204 570.836L128.301 565.329L128.351 554.324L128.649 543.324L128.763 537.819C128.834 535.986 128.97 534.156 129.072 532.325L129.747 521.331C131.034 506.701 133.044 492.126 135.975 477.719C138.899 463.326 142.515 448.991 147.885 435.285Z" fill="#263238"/>
<path d="M149.462 492.836C149.49 492.737 149.438 492.627 149.34 492.592C149.238 492.558 149.127 492.611 149.093 492.713C145.925 501.857 143.397 511.211 141.258 520.664C139.215 530.133 137.612 539.725 136.634 549.391C135.656 559.023 134.579 568.664 134.447 578.349C134.298 588.029 134.453 597.718 135.476 607.389C135.486 607.477 135.557 607.552 135.65 607.563C135.758 607.575 135.854 607.497 135.864 607.389C136.983 597.747 137.666 588.129 138.333 578.515C139.016 568.905 139.107 559.267 139.734 549.652C140.315 540.067 141.518 530.523 143.168 521.039C144.783 511.553 146.799 502.103 149.462 492.836Z" fill="#263238"/>
<path d="M181.367 513.081C181.31 512.991 181.19 512.962 181.099 513.021C173.113 518.077 165.989 524.445 159.766 531.621C156.706 535.263 153.862 539.074 151.424 543.22L149.71 546.456L148.369 549.816C147.886 550.93 147.547 552.078 147.197 553.224C146.852 554.37 146.467 555.511 146.158 556.666C143.762 565.914 142.174 575.337 141.745 584.808C141.359 594.274 141.539 603.754 142.804 613.153C142.817 613.242 142.891 613.315 142.984 613.321C143.092 613.329 143.185 613.248 143.192 613.141L145.624 585.082C146.593 575.806 147.187 566.475 149.179 557.416C149.432 556.288 149.756 555.185 150.043 554.066C150.332 552.948 150.613 551.826 151.027 550.761L152.165 547.518L153.631 544.455C155.791 540.402 158.434 536.524 161.275 532.849C166.972 525.496 173.675 518.794 181.306 513.352L181.316 513.345C181.4 513.283 181.424 513.168 181.367 513.081Z" fill="#263238"/>
<path d="M165.925 549.129C161.577 551.935 158.67 556.35 156.223 560.791C153.892 565.33 152.056 570.142 150.787 575.079C150.405 576.301 150.103 577.54 149.839 578.785L148.959 582.516C148.51 585.021 148.159 587.553 148.017 590.092C147.984 592.638 147.91 595.181 148.083 597.719C148.294 600.255 148.582 602.787 149.083 605.297C149.101 605.369 149.161 605.436 149.239 605.453C149.347 605.474 149.452 605.405 149.473 605.297C150.088 602.793 150.49 600.312 150.817 597.837C151.212 595.367 151.596 592.912 151.891 590.455C152.251 588.009 152.575 585.57 152.766 583.104C153.108 580.672 153.288 578.186 153.82 575.783C154.674 570.918 156.081 566.171 157.981 561.629C159.874 557.126 162.337 552.636 166.126 549.463L166.156 549.438C166.23 549.376 166.248 549.268 166.195 549.186C166.134 549.097 166.015 549.072 165.925 549.129Z" fill="#263238"/>
<path d="M121.182 577.235C120.132 564.779 118.078 552.447 116.137 540.121C114.189 527.794 112.042 515.505 109.786 503.238C107.451 490.985 105.01 478.755 102.369 466.569C102.346 466.468 102.247 466.4 102.144 466.419C102.039 466.439 101.968 466.539 101.988 466.645C104.119 478.924 106.048 491.238 107.869 503.562C109.738 515.879 111.498 528.21 113.058 540.561C114.58 552.919 115.767 565.307 117.315 577.643L121.872 614.723C121.882 614.816 121.96 614.891 122.056 614.895C122.164 614.9 122.254 614.817 122.26 614.709C122.403 611.585 122.407 608.46 122.484 605.328C122.512 602.198 122.356 599.081 122.301 595.952C122.184 589.692 121.65 583.467 121.182 577.235Z" fill="#263238"/>
<path d="M113.711 577.055C113.045 572.121 112.137 567.216 111.197 562.328L109.448 555.055C108.875 552.631 108.332 550.201 107.622 547.807C105.137 538.158 101.961 528.673 98.1019 519.483L96.6079 516.055L94.9474 512.702C93.8914 510.444 92.6149 508.292 91.4044 506.117C88.8004 501.875 86.0974 497.635 82.4134 494.196C82.3384 494.127 82.2214 494.127 82.1464 494.199C82.0699 494.274 82.0684 494.395 82.1419 494.473L82.1614 494.493C85.5664 498.022 88.0474 502.379 90.3859 506.685C91.4689 508.901 92.6149 511.077 93.5404 513.365L95.0029 516.754L96.3004 520.215C99.7504 529.436 102.519 538.914 104.6 548.55C105.735 553.343 106.487 558.227 107.415 563.058L108.581 570.359C109.002 572.786 109.523 575.196 109.863 577.639C110.64 582.508 111.536 587.365 112.386 592.239C113.141 597.124 114.033 602.002 115.064 606.883C115.082 606.972 115.161 607.044 115.256 607.044C115.364 607.044 115.451 606.957 115.452 606.85C115.473 601.875 115.358 596.895 115.104 591.922C114.816 586.953 114.228 582.009 113.711 577.055Z" fill="#263238"/>
<path d="M103.405 577.691C101.097 571.155 98.4267 564.757 95.5167 558.484C92.5302 552.246 89.3067 546.126 85.5957 540.297C85.5387 540.214 85.4217 540.181 85.3317 540.234C85.2387 540.289 85.2087 540.408 85.2642 540.501C88.5057 546.555 91.2462 552.87 93.7317 559.257C96.2607 565.626 98.5392 572.091 100.449 578.659C102.397 585.22 103.792 591.907 105.538 598.497C107.373 605.082 108.858 611.734 110.883 618.403C110.907 618.483 110.982 618.546 111.07 618.547C111.178 618.549 111.267 618.462 111.268 618.354C111.366 611.397 110.683 604.443 109.33 597.631C108.108 590.779 105.699 584.222 103.405 577.691Z" fill="#263238"/>
<path d="M102.975 599.46C101.795 595.368 99.7804 591.555 97.4914 587.963C95.2444 584.352 92.6359 580.938 89.5099 578.046C87.9004 576.651 86.2534 575.309 84.4339 574.218C82.6414 573.098 80.7394 572.151 78.6754 571.615C78.5854 571.591 78.4894 571.636 78.4504 571.723C78.4069 571.821 78.4504 571.935 78.5494 571.98L78.5734 571.99C82.3054 573.649 85.4599 576.4 88.1254 579.411C90.8269 582.426 92.9824 585.885 94.7794 589.487C96.6694 593.064 97.6459 597.02 99.2899 600.705C100.016 602.595 100.736 604.497 101.574 606.384C102.285 608.31 103.074 610.23 104.078 612.139L104.084 612.15C104.115 612.21 104.178 612.253 104.252 612.256C104.363 612.261 104.456 612.176 104.46 612.065C104.549 609.933 104.424 607.814 104.223 605.699C103.917 603.603 103.476 601.526 102.975 599.46Z" fill="#ABABAB"/>
<path d="M103.747 484.401C103.747 484.401 83.3361 479.691 78.6261 457.71C73.9161 435.729 89.0931 445.149 75.4866 410.609C61.8786 376.067 65.0196 368.217 69.7296 358.274C74.4396 348.33 77.0571 351.47 81.2436 364.554C85.4301 377.637 100.607 398.049 106.364 436.254C112.12 474.458 103.747 484.401 103.747 484.401Z" fill="#92E3A9"/>
<path d="M144.045 447.243C144.045 447.243 130.437 442.533 129.914 416.889C129.39 391.245 139.857 396.478 141.428 364.554C142.998 332.629 145.091 310.125 150.848 309.601C156.605 309.078 171.782 325.302 177.015 360.889C182.249 396.477 170.211 420.029 159.744 430.496C149.277 440.963 144.045 447.243 144.045 447.243Z" fill="#92E3A9"/>
<path d="M96.4177 515.279C96.4177 515.279 93.2782 496.439 86.9977 487.541C80.7172 478.644 67.1107 470.793 58.2127 453.522C49.3162 436.251 39.3727 427.878 39.8947 452.475C40.4182 477.072 51.4087 489.633 65.0152 498.006C78.6232 506.382 96.4177 515.279 96.4177 515.279Z" fill="#92E3A9"/>
<path d="M90.6614 547.726C90.6614 547.726 78.1004 523.653 59.7839 505.859C41.4659 488.064 26.8124 479.167 32.0459 488.064C37.2794 496.96 43.5599 496.438 52.4564 512.137C61.3529 527.838 58.7369 539.352 71.2979 548.248C83.8589 557.146 90.6614 547.726 90.6614 547.726Z" fill="#92E3A9"/>
<path d="M89.0907 578.604C88.5672 577.033 88.0437 565.521 70.2507 556.1C52.4562 546.68 35.7087 550.343 37.8027 555.053C39.8967 559.763 50.8857 567.614 61.8762 572.324C72.8682 577.035 89.0907 578.604 89.0907 578.604Z" fill="#92E3A9"/>
<path d="M142.997 516.326C142.997 516.326 135.146 506.382 139.333 485.448C143.519 464.514 152.939 469.748 163.408 458.757C173.875 447.767 171.781 446.196 182.248 434.683C192.715 423.169 202.135 416.889 206.321 421.599C210.508 426.309 204.229 440.964 197.948 449.337C191.668 457.71 181.724 461.898 177.014 472.365C172.304 482.832 174.398 499.579 162.361 507.43C150.323 515.278 142.997 516.326 142.997 516.326Z" fill="#92E3A9"/>
<path d="M169.164 522.082C169.164 522.082 188.006 500.625 201.612 484.924C215.22 469.224 220.452 457.186 220.976 467.653C221.499 478.12 225.686 486.495 214.695 500.101C203.706 513.708 169.164 522.082 169.164 522.082Z" fill="#92E3A9"/>
<path d="M159.221 556.623C159.221 556.623 158.698 548.248 188.528 528.885C218.359 509.521 230.92 505.857 227.78 513.708C224.641 521.557 211.556 529.409 197.426 543.539C183.296 557.67 159.221 556.623 159.221 556.623Z" fill="#92E3A9"/>
<path d="M104.991 482.17C104.991 482.17 97.9885 444.625 90.6625 417.934C83.335 391.243 78.625 375.02 78.625 375.02" stroke="#263238" stroke-miterlimit="10" stroke-linecap="round" stroke-linejoin="round"/>
<path d="M142.84 447.637C142.84 447.637 155.558 406.944 159.746 382.347C163.933 357.75 159.223 339.432 157.129 328.441" stroke="#263238" stroke-miterlimit="10" stroke-linecap="round" stroke-linejoin="round"/>
<path d="M94.7678 514.492C94.7678 514.492 86.9978 500.625 75.4838 487.017C63.9698 473.409 55.0733 466.083 49.8398 453" stroke="#263238" stroke-miterlimit="10" stroke-linecap="round" stroke-linejoin="round"/>
<path d="M142.998 516.326C142.998 516.326 147.185 491.205 157.128 478.121C167.072 465.038 186.959 444.627 194.81 431.543" stroke="#263238" stroke-miterlimit="10" stroke-linecap="round" stroke-linejoin="round"/>
<path d="M87.8624 578.033C87.8624 578.033 70.2509 566.566 57.6914 560.286" stroke="#263238" stroke-miterlimit="10" stroke-linecap="round" stroke-linejoin="round"/>
<path d="M139.079 689.033H116.039C111.96 689.033 108.276 686.589 106.707 682.826C99.1805 664.79 79.082 612.73 91.187 597.969C102.719 583.906 152.402 583.906 163.934 597.969C176.039 612.73 155.939 664.79 148.412 682.826C146.84 686.589 143.156 689.033 139.079 689.033Z" fill="#263238"/>
<path d="M497.483 119.09V634.529C497.483 648.677 486.014 660.144 471.868 660.144H249.152C235.004 660.144 223.535 648.675 223.535 634.527V119.076C223.535 104.936 234.998 93.4725 249.139 93.4725H344.734L344.813 93.765C347.195 102.339 352.681 107.916 358.765 107.916H362.252C368.336 107.916 373.82 102.338 376.204 93.765L376.297 93.4725H471.866C486.014 93.474 497.483 104.943 497.483 119.09Z" fill="white" stroke="#263238" stroke-miterlimit="10"/>
<path d="M497.483 143.073V119.089C497.483 104.941 486.014 93.474 471.868 93.474H376.298L376.205 93.7665C373.822 102.34 368.338 107.917 362.254 107.917H358.765C352.681 107.917 347.197 102.339 344.813 93.7665L344.734 93.474H249.139C234.998 93.474 223.535 104.937 223.535 119.077V143.073H497.483Z" fill="#DBDBDB" stroke="#263238" stroke-miterlimit="10" stroke-linecap="round" stroke-linejoin="round"/>
<path d="M223.535 630.496V634.528C223.535 648.676 235.004 660.145 249.151 660.145H471.866C486.014 660.145 497.482 648.676 497.482 634.53V630.498H223.535V630.496Z" fill="#DBDBDB" stroke="#263238" stroke-miterlimit="10" stroke-linecap="round" stroke-linejoin="round"/>
<path d="M514.904 242.199V190.718H510.247V124.809C510.247 102.372 492.058 84.183 469.621 84.183H251.399C228.962 84.183 210.773 102.372 210.773 124.809V648.535C210.773 670.972 228.962 689.162 251.399 689.162H469.621C492.058 689.162 510.247 670.972 510.247 648.535V286.076H514.904V255.654H510.247V242.199H514.904ZM497.483 619.515C497.483 641.961 479.285 660.145 456.853 660.145H264.166C241.733 660.145 223.535 641.961 223.535 619.515V134.091C223.535 111.659 241.733 93.474 264.166 93.474H344.734L344.813 93.7665C347.195 102.341 352.681 107.918 358.765 107.918H362.252C368.336 107.918 373.82 102.339 376.204 93.7665L376.297 93.474H456.851C479.284 93.474 497.482 111.659 497.482 134.091V619.515H497.483Z" fill="#92E3A9" stroke="#263238" stroke-miterlimit="10" stroke-linecap="round" stroke-linejoin="round"/>
<path d="M466.362 89.778H254.658C233.019 89.778 215.477 107.321 215.477 128.96V644.384C215.477 666.023 233.019 683.565 254.658 683.565H466.362C488.001 683.565 505.544 666.023 505.544 644.384V128.961C505.544 107.321 488.001 89.778 466.362 89.778ZM497.483 620.96C497.483 642.602 479.939 660.146 458.297 660.146H262.721C241.079 660.146 223.535 642.602 223.535 620.96V132.645C223.535 111.011 241.073 93.4725 262.707 93.4725H344.733L344.813 93.765C347.195 102.339 352.68 107.916 358.764 107.916H362.252C368.336 107.916 373.82 102.338 376.203 93.765L376.296 93.4725H458.297C479.939 93.4725 497.483 111.017 497.483 132.659V620.96Z" fill="#263238" stroke="#263238" stroke-miterlimit="10" stroke-linecap="round" stroke-linejoin="round"/>
<path d="M363.488 95.415C363.488 93.309 361.781 91.6005 359.674 91.6005C357.568 91.6005 355.859 93.3075 355.859 95.415C355.859 97.521 357.566 99.2295 359.674 99.2295C361.78 99.2295 363.488 97.5225 363.488 95.415Z" fill="white"/>
<path d="M247.885 110.031C247.885 113.89 243.551 115.279 243.533 118.224V118.425H247.739V119.724H242.126V118.626C242.126 114.493 246.46 113.689 246.46 110.086C246.46 108.769 246.02 108.075 244.96 108.075C243.917 108.075 243.46 108.823 243.46 109.957V111.091H242.125V110.049C242.125 108.091 243.02 106.794 244.994 106.794C246.989 106.794 247.885 108.075 247.885 110.031Z" fill="#263238"/>
<path d="M254.891 110.013V110.342C254.891 111.659 254.362 112.592 253.337 112.976C254.416 113.378 254.891 114.347 254.891 115.628V116.616C254.891 118.572 253.978 119.853 252.002 119.853C250.046 119.853 249.133 118.574 249.133 116.616V115.739H250.466V116.708C250.466 117.86 250.942 118.554 251.966 118.554C253.009 118.554 253.466 117.878 253.466 116.58V115.59C253.466 114.329 252.935 113.726 251.857 113.688H251.089V112.407H251.93C252.881 112.371 253.468 111.768 253.468 110.652V110.066C253.468 108.749 253.01 108.074 251.968 108.074C250.943 108.074 250.468 108.786 250.468 109.938V110.597H249.134V110.012C249.134 108.054 250.048 106.793 252.004 106.793C253.976 106.794 254.891 108.057 254.891 110.013Z" fill="#263238"/>
<path d="M257.654 110.982V112.756H256.281V110.982H257.654ZM257.654 117.95V119.724H256.281V117.95H257.654Z" fill="#263238"/>
<path d="M260.545 112.136C260.947 111.44 261.587 111.075 262.447 111.075C264.092 111.075 264.823 112.281 264.823 114.111V116.616C264.823 118.572 263.891 119.853 261.935 119.853C259.978 119.853 259.064 118.574 259.064 116.616V115.755H260.399V116.706C260.399 117.858 260.875 118.553 261.899 118.553C262.924 118.553 263.399 117.858 263.399 116.706V114.219C263.399 113.067 262.924 112.371 261.899 112.371C261.113 112.371 260.582 112.811 260.455 113.744V114.036H259.12L259.468 106.922H264.514V108.201H260.746L260.545 112.136Z" fill="#263238"/>
<path d="M271.939 109.995V110.232H270.605V109.904C270.605 108.752 270.13 108.075 269.087 108.075C268.007 108.075 267.532 108.77 267.532 110.142V113.013C267.88 112.136 268.574 111.642 269.599 111.642C271.244 111.642 271.976 112.832 271.976 114.678V116.618C271.976 118.574 271.006 119.855 269.05 119.855C267.074 119.855 266.105 118.575 266.105 116.618V110.088C266.105 108.059 267.02 106.796 269.05 106.796C271.025 106.794 271.939 108.039 271.939 109.995ZM267.532 114.786V116.706C267.532 117.858 268.007 118.553 269.05 118.553C270.074 118.553 270.568 117.858 270.568 116.706V114.786C270.568 113.634 270.074 112.94 269.05 112.94C268.007 112.94 267.532 113.634 267.532 114.786Z" fill="#263238"/>
<path d="M411.687 110.557H408.072V119.593H411.687V110.557Z" fill="#263238"/>
<path d="M416.508 108.747H412.893V119.594H416.508V108.747Z" fill="#263238"/>
<path d="M421.326 107.463H417.711V119.593H421.326V107.463Z" fill="#263238"/>
<path d="M426.145 105.227H422.531V119.593H426.145V105.227Z" fill="#263238"/>
<path d="M470.873 119.346H449.186V106.094H470.873V119.346ZM450.39 118.14H469.667V107.297H450.39V118.14Z" fill="#263238"/>
<path d="M463.642 108.609H452.197V116.831H463.642V108.609Z" fill="#263238"/>
<path d="M472.846 111.158H470.119V114.279H472.846V111.158Z" fill="#263238"/>
<path d="M441.235 116.463C441.094 116.463 440.95 116.427 440.821 116.349C436.408 113.727 433.491 116.161 433.369 116.263C433.033 116.556 432.522 116.518 432.229 116.182C431.937 115.845 431.968 115.339 432.304 115.045C432.46 114.907 436.191 111.712 441.651 114.957C442.035 115.185 442.162 115.683 441.933 116.067C441.78 116.322 441.511 116.463 441.235 116.463Z" fill="#263238"/>
<path d="M442.867 113.74C442.726 113.74 442.582 113.704 442.453 113.626C436.072 109.831 431.783 113.503 431.738 113.538C431.402 113.836 430.892 113.8 430.597 113.466C430.301 113.13 430.333 112.618 430.669 112.324C430.721 112.276 435.893 107.845 443.281 112.236C443.665 112.464 443.792 112.962 443.563 113.346C443.41 113.599 443.141 113.74 442.867 113.74Z" fill="#263238"/>
<path d="M444.35 110.587C444.209 110.587 444.065 110.551 443.936 110.473C435.854 105.667 430.481 110.191 430.256 110.388C429.919 110.68 429.407 110.644 429.115 110.308C428.821 109.972 428.854 109.464 429.19 109.17C429.253 109.113 435.637 103.653 444.766 109.081C445.15 109.309 445.277 109.807 445.048 110.191C444.895 110.446 444.625 110.587 444.35 110.587Z" fill="#263238"/>
<path d="M438.796 117.82C438.796 118.942 437.887 119.851 436.765 119.851C435.643 119.851 434.732 118.942 434.732 117.82C434.732 116.698 435.641 115.789 436.765 115.789C437.885 115.788 438.796 116.697 438.796 117.82Z" fill="#263238"/>
<path d="M550.694 195.726L548.885 194.636L551.154 191.448L547.766 190.155L548.513 188.204L551.757 189.926L551.412 185.963H553.739L553.365 189.926L556.638 188.204L557.355 190.155L553.967 191.478L556.263 194.636L554.397 195.726L552.56 192.137L550.694 195.726Z" fill="#263238"/>
<path d="M562.123 195.726L560.312 194.636L562.582 191.448L559.193 190.155L559.94 188.204L563.185 189.926L562.84 185.963H565.166L564.793 189.926L568.066 188.204L568.783 190.155L565.394 191.478L567.691 194.636L565.825 195.726L563.987 192.137L562.123 195.726Z" fill="#263238"/>
<path d="M573.551 195.726L571.742 194.636L574.012 191.448L570.623 190.155L571.37 188.204L574.615 189.926L574.27 185.963H576.596L576.223 189.926L579.496 188.204L580.213 190.155L576.824 191.478L579.121 194.636L577.255 195.726L575.417 192.137L573.551 195.726Z" fill="#263238"/>
<path d="M584.977 195.726L583.168 194.636L585.437 191.448L582.049 190.155L582.796 188.204L586.04 189.926L585.695 185.963H588.022L587.648 189.926L590.921 188.204L591.638 190.155L588.25 191.478L590.546 194.636L588.68 195.726L586.843 192.137L584.977 195.726Z" fill="#263238"/>
<path d="M596.406 195.726L594.596 194.636L596.865 191.448L593.477 190.155L594.224 188.204L597.468 189.926L597.123 185.963H599.45L599.076 189.926L602.349 188.204L603.066 190.155L599.678 191.478L601.974 194.636L600.108 195.726L598.271 192.137L596.406 195.726Z" fill="#263238"/>
<path d="M607.834 195.726L606.023 194.636L608.293 191.448L604.904 190.155L605.651 188.204L608.896 189.926L608.551 185.963H610.877L610.504 189.926L613.778 188.204L614.495 190.155L611.107 191.478L613.403 194.636L611.537 195.726L609.7 192.137L607.834 195.726Z" fill="#263238"/>
<path d="M619.262 195.726L617.451 194.636L619.721 191.448L616.332 190.155L617.079 188.204L620.324 189.926L619.979 185.963H622.305L621.932 189.926L625.205 188.204L625.922 190.155L622.533 191.478L624.83 194.636L622.964 195.726L621.126 192.137L619.262 195.726Z" fill="#263238"/>
<path d="M630.69 195.726L628.881 194.636L631.15 191.448L627.762 190.155L628.509 188.204L631.753 189.926L631.408 185.963H633.735L633.361 189.926L636.634 188.204L637.351 190.155L633.963 191.478L636.259 194.636L634.393 195.726L632.556 192.137L630.69 195.726Z" fill="#263238"/>
<path d="M642.119 195.726L640.31 194.636L642.58 191.448L639.191 190.155L639.938 188.204L643.183 189.926L642.838 185.963H645.164L644.791 189.926L648.065 188.204L648.782 190.155L645.394 191.478L647.69 194.636L645.824 195.726L643.987 192.137L642.119 195.726Z" fill="#263238"/>
<path d="M627.095 104.031H568.348V161.496H627.095V104.031Z" stroke="#263238" stroke-miterlimit="10" stroke-linecap="round" stroke-linejoin="round"/>
<path d="M579.131 104.054V90.828C579.131 80.577 587.471 72.237 597.723 72.237C607.974 72.237 616.313 80.577 616.313 90.828V104.054H624.863V90.828C624.863 75.8625 612.687 63.687 597.723 63.687C582.756 63.687 570.582 75.8625 570.582 90.828V104.054H579.131Z" stroke="#263238" stroke-miterlimit="10"/>
<path d="M604.48 126.312C604.48 122.58 601.454 119.555 597.722 119.555C593.99 119.555 590.965 122.58 590.965 126.312C590.965 129.176 592.751 131.608 595.265 132.592V145.973H600.181V132.592C602.692 131.608 604.48 129.176 604.48 126.312Z" stroke="#263238" stroke-miterlimit="10" stroke-linecap="round" stroke-linejoin="round"/>
<path d="M113.633 244.538V238.983C109.532 238.824 106.466 237.512 104.435 235.041C102.404 232.572 101.309 228.89 101.15 223.992L109.571 222.558C109.651 224.55 109.859 226.212 110.198 227.546C110.537 228.881 111.044 229.875 111.722 230.532C112.399 231.189 113.275 231.518 114.35 231.518C115.583 231.518 116.431 231.12 116.888 230.324C117.346 229.529 117.575 228.612 117.575 227.577C117.575 225.546 117.107 223.845 116.171 222.471C115.235 221.099 113.951 219.714 112.319 218.321L107.243 213.96C106.087 212.885 105.053 211.791 104.137 210.675C103.22 209.561 102.494 208.286 101.957 206.853C101.42 205.419 101.15 203.727 101.15 201.777C101.15 198.035 102.215 195.117 104.345 193.028C106.474 190.937 109.333 189.753 112.916 189.474V184.158H115.783V189.474C117.932 189.594 119.695 190.082 121.069 190.938C122.441 191.795 123.487 192.87 124.204 194.163C124.921 195.458 125.437 196.871 125.756 198.404C126.074 199.938 126.274 201.42 126.353 202.853L117.812 204.107C117.773 202.634 117.653 201.329 117.454 200.195C117.254 199.059 116.896 198.174 116.378 197.537C115.861 196.901 115.064 196.601 113.989 196.641C112.874 196.682 112.027 197.118 111.451 197.955C110.873 198.791 110.584 199.727 110.584 200.762C110.584 202.595 111.022 204.068 111.898 205.182C112.774 206.297 113.77 207.372 114.884 208.407L119.842 212.708C121.156 213.902 122.371 215.198 123.485 216.59C124.6 217.983 125.495 219.527 126.173 221.219C126.85 222.911 127.189 224.852 127.189 227.042C127.189 229.152 126.76 231.074 125.905 232.806C125.048 234.537 123.814 235.941 122.201 237.017C120.589 238.092 118.687 238.728 116.497 238.928V244.542H113.633V244.538Z" stroke="#263238" stroke-miterlimit="10" stroke-linecap="round" stroke-linejoin="round"/>
<path d="M125.337 260.445C151.08 254.366 167.021 228.57 160.942 202.827C154.863 177.084 129.067 161.143 103.324 167.222C77.5815 173.3 61.6406 199.097 67.7192 224.839C73.7978 250.582 99.5941 266.523 125.337 260.445Z" stroke="#263238" stroke-miterlimit="10" stroke-linecap="round" stroke-linejoin="round"/>
<path d="M139.281 244.28C156.092 230.496 158.547 205.694 144.764 188.882C130.981 172.07 106.178 169.615 89.3664 183.399C72.5545 197.182 70.0994 221.984 83.8829 238.796C97.6663 255.608 122.469 258.063 139.281 244.28Z" stroke="#263238" stroke-miterlimit="10" stroke-linecap="round" stroke-linejoin="round"/>
<path d="M150.116 136.541V132.957C147.47 132.855 145.493 132.008 144.184 130.415C142.874 128.823 142.167 126.447 142.064 123.288L147.496 122.362C147.547 123.646 147.681 124.719 147.9 125.58C148.119 126.441 148.446 127.083 148.883 127.506C149.319 127.929 149.885 128.142 150.578 128.142C151.373 128.142 151.92 127.886 152.214 127.371C152.51 126.858 152.657 126.267 152.657 125.6C152.657 124.29 152.355 123.192 151.752 122.306C151.148 121.421 150.32 120.528 149.267 119.628L145.993 116.815C145.247 116.122 144.579 115.416 143.988 114.696C143.397 113.977 142.93 113.155 142.583 112.23C142.237 111.306 142.062 110.214 142.062 108.956C142.062 106.542 142.75 104.66 144.124 103.311C145.498 101.963 147.341 101.199 149.652 101.019V97.59H151.502V101.019C152.888 101.096 154.025 101.41 154.912 101.962C155.798 102.514 156.472 103.209 156.934 104.043C157.396 104.878 157.729 105.789 157.936 106.777C158.141 107.767 158.268 108.723 158.321 109.647L152.812 110.456C152.786 109.506 152.708 108.665 152.581 107.933C152.452 107.201 152.221 106.629 151.888 106.218C151.553 105.807 151.04 105.615 150.347 105.641C149.629 105.666 149.082 105.948 148.71 106.488C148.337 107.026 148.151 107.631 148.151 108.298C148.151 109.48 148.433 110.43 148.999 111.15C149.564 111.868 150.206 112.563 150.924 113.23L154.123 116.004C154.97 116.775 155.753 117.609 156.473 118.509C157.192 119.407 157.771 120.404 158.207 121.494C158.644 122.586 158.862 123.839 158.862 125.25C158.862 126.612 158.587 127.851 158.035 128.968C157.483 130.086 156.686 130.991 155.646 131.684C154.605 132.377 153.38 132.788 151.967 132.917V136.538H150.116V136.541Z" stroke="#263238" stroke-miterlimit="10" stroke-linecap="round" stroke-linejoin="round"/>
<path d="M157.661 146.798C174.266 142.877 184.549 126.238 180.628 109.633C176.707 93.0276 160.068 82.7451 143.463 86.666C126.858 90.5869 116.575 107.226 120.496 123.832C124.417 140.437 141.056 150.719 157.661 146.798Z" stroke="#263238" stroke-miterlimit="10" stroke-linecap="round" stroke-linejoin="round"/>
<path d="M156.397 141.444C170.045 138.221 178.496 124.545 175.274 110.897C172.051 97.2492 158.375 88.7979 144.727 92.0206C131.079 95.2432 122.628 108.919 125.851 122.567C129.073 136.215 142.75 144.666 156.397 141.444Z" stroke="#263238" stroke-miterlimit="10" stroke-linecap="round" stroke-linejoin="round"/>
<path d="M678.747 606.994V603.411C676.101 603.309 674.124 602.461 672.814 600.868C671.505 599.277 670.798 596.901 670.695 593.742L676.126 592.816C676.177 594.1 676.312 595.173 676.531 596.034C676.75 596.895 677.077 597.537 677.514 597.96C677.95 598.383 678.516 598.596 679.209 598.596C680.004 598.596 680.551 598.339 680.845 597.825C681.141 597.312 681.289 596.721 681.289 596.053C681.289 594.744 680.988 593.646 680.383 592.759C679.78 591.873 678.951 590.98 677.898 590.082L674.623 587.269C673.878 586.576 673.21 585.87 672.619 585.15C672.028 584.431 671.56 583.609 671.214 582.684C670.867 581.76 670.693 580.668 670.693 579.41C670.693 576.996 671.38 575.113 672.754 573.765C674.128 572.416 675.972 571.653 678.283 571.473V568.044H680.133V571.473C681.519 571.549 682.656 571.864 683.542 572.416C684.429 572.968 685.102 573.663 685.564 574.497C686.026 575.332 686.359 576.245 686.566 577.232C686.772 578.22 686.899 579.177 686.952 580.101L681.442 580.911C681.417 579.961 681.339 579.12 681.211 578.388C681.082 577.656 680.851 577.084 680.518 576.673C680.184 576.262 679.671 576.07 678.978 576.096C678.259 576.121 677.713 576.403 677.341 576.943C676.968 577.482 676.782 578.086 676.782 578.754C676.782 579.936 677.064 580.887 677.629 581.605C678.195 582.324 678.837 583.018 679.555 583.686L682.753 586.459C683.601 587.23 684.384 588.066 685.104 588.964C685.822 589.863 686.401 590.859 686.838 591.951C687.274 593.043 687.493 594.295 687.493 595.707C687.493 597.069 687.217 598.308 686.665 599.425C686.113 600.543 685.317 601.447 684.277 602.14C683.238 602.833 682.011 603.244 680.598 603.373V606.994H678.747Z" stroke="#263238" stroke-miterlimit="10" stroke-linecap="round" stroke-linejoin="round"/>
<path d="M679.195 618.093C696.257 618.093 710.089 604.261 710.089 587.199C710.089 570.137 696.257 556.305 679.195 556.305C662.132 556.305 648.301 570.137 648.301 587.199C648.301 604.261 662.132 618.093 679.195 618.093Z" stroke="#263238" stroke-miterlimit="10" stroke-linecap="round" stroke-linejoin="round"/>
<path d="M685.086 611.951C698.73 608.706 707.159 595.015 703.914 581.372C700.669 567.728 686.978 559.298 673.335 562.543C659.691 565.788 651.262 579.479 654.507 593.123C657.752 606.767 671.443 615.196 685.086 611.951Z" stroke="#263238" stroke-miterlimit="10" stroke-linecap="round" stroke-linejoin="round"/>
<path d="M552.839 430.044C552.839 430.044 553.548 537.424 553.902 538.842C554.256 540.259 551.775 555.852 552.485 571.8C553.194 587.748 560.282 639.843 560.282 639.843L554.612 647.285L558.864 660.398C558.864 660.398 554.258 675.636 550.359 682.369C546.461 689.103 542.208 692.292 546.107 695.836C550.005 699.381 561.699 697.963 565.598 697.608C569.496 697.254 573.041 696.899 574.457 694.419C575.874 691.938 577.292 684.85 578.709 678.826C580.127 672.802 579.773 667.486 579.773 665.359C579.773 663.232 580.836 658.626 581.9 654.727C582.963 650.829 579.773 640.197 579.773 638.072C579.773 635.946 584.379 546.993 584.379 546.993L595.011 483.556L598.91 489.582L603.872 546.993L607.77 572.156C607.77 572.156 607.416 595.545 609.188 603.342C610.959 611.139 614.15 641.262 614.15 641.262C614.15 641.262 609.543 645.868 609.188 648.703C608.834 651.538 611.669 658.272 611.669 658.272C611.669 658.272 610.605 659.689 611.315 662.17C612.024 664.651 612.732 668.55 612.732 668.55C612.732 668.55 608.834 688.396 611.315 690.877C613.796 693.358 622.301 697.257 624.072 697.965C625.844 698.673 636.83 700.8 640.02 700.092C643.209 699.382 647.817 699.382 646.044 693.712C644.273 688.042 638.603 681.309 637.539 678.828C636.476 676.347 633.995 667.842 633.995 667.842C633.995 667.842 637.184 658.627 636.83 657.564C636.476 656.5 636.476 648.349 635.766 645.514C635.057 642.679 632.931 640.198 632.931 637.717C632.931 635.236 642.146 590.229 640.019 581.724C637.892 573.219 638.601 538.843 638.601 538.843L636.474 447.055L635.411 437.487L552.839 430.044Z" fill="#263238" stroke="#263238" stroke-miterlimit="10"/>
<path d="M586.588 288.729L579.791 291.307L574.166 354.591L549.791 428.89C549.791 428.89 556.353 437.328 567.839 445.064C579.324 452.798 590.105 456.08 590.105 456.08L595.026 444.596L596.432 456.549C596.432 456.549 606.511 455.846 613.307 454.908C620.104 453.971 634.871 450.689 634.871 450.689L625.73 340.059L629.95 291.541L586.588 288.729Z" fill="white" stroke="#263238" stroke-miterlimit="10"/>
<path d="M602.526 316.152L600.885 338.887" stroke="#263238" stroke-miterlimit="10"/>
<path d="M595.685 427.135L595.494 433.109" stroke="#263238" stroke-miterlimit="10"/>
<path d="M597.37 374.278L595.836 422.418" stroke="#263238" stroke-miterlimit="10"/>
<path d="M564.789 405.921L584.009 423.499" stroke="#263238" stroke-miterlimit="10"/>
<path d="M566.664 403.342L582.134 409.671" stroke="#263238" stroke-miterlimit="10"/>
<path d="M588.503 284.158C588.503 284.158 585.207 284.741 584.432 285.903C583.656 287.066 582.881 291.331 582.881 291.913C582.881 292.495 582.299 314.983 582.299 314.983L596.838 306.453L608.082 305.484L620.877 317.697C620.877 317.697 626.888 295.209 625.53 290.362C624.173 285.516 618.551 282.414 617.582 282.027C616.613 281.637 587.727 282.607 588.503 284.158Z" fill="white" stroke="#263238" stroke-miterlimit="10"/>
<path d="M587.34 278.536C587.34 278.536 585.402 292.107 587.146 294.627C588.891 297.147 601.879 313.237 603.237 312.268C604.594 311.299 614.869 298.891 616.225 297.147C617.583 295.402 619.327 289.78 619.327 289.78V280.087L587.34 278.536Z" fill="#C2C2C2" stroke="#263238" stroke-miterlimit="10"/>
<path d="M600.054 295.56L587.146 294.627C587.146 294.627 586.677 291.255 586.588 288.729C586.5 286.204 587.884 280.9 587.884 280.9L600.054 295.56Z" fill="#263238" stroke="#263238" stroke-miterlimit="10"/>
<path d="M628.259 235.38C628.259 235.38 628.205 235.936 628.106 236.923C627.389 244.045 623.153 277.617 621.163 281.572C618.898 286.075 609.073 294.456 607.235 295.686C605.398 296.916 603.464 296.776 600.053 295.561C596.641 294.346 584.764 278.337 584.363 275.782C583.963 273.226 583.963 240.574 583.825 237.066C583.687 233.557 585.22 228.42 590.98 223.972C596.74 219.525 607.9 218.379 615.386 222.412C615.386 222.409 627.307 226.954 628.259 235.38Z" fill="#C2C2C2" stroke="#263238" stroke-miterlimit="10"/>
<path d="M583.825 237.064C583.687 233.556 585.22 228.418 590.98 223.971C596.74 219.523 607.9 218.377 615.386 222.411C615.386 222.411 627.307 226.956 628.259 235.382C628.259 235.382 628.205 235.938 628.106 236.925C627.781 240.159 626.971 248.01 625.997 255.99L625.607 256.183C625.607 256.183 624.005 254.125 623.936 252.37C623.867 250.617 622.832 237.909 622.832 237.909C622.832 237.909 614.614 244.125 607.79 244.414C600.967 244.704 590.111 236.154 590.111 236.154C590.111 236.154 588.91 247.534 588.233 248.847C587.687 249.906 585.017 255.877 584.009 258.139C583.933 248.796 583.898 238.906 583.825 237.064Z" fill="#263238" stroke="#263238" stroke-miterlimit="10"/>
<path d="M620.222 263.571C620.222 263.571 612.487 263.019 610.25 264.414" stroke="#263238" stroke-miterlimit="10"/>
<path d="M602.321 263.847C602.321 263.847 596.852 261.513 592.832 263.364" stroke="#263238" stroke-miterlimit="10"/>
<path d="M600.995 268.804C600.995 268.804 596.713 271.608 593.053 268.431" stroke="#263238" stroke-miterlimit="10"/>
<path d="M617.279 269.385C617.279 269.385 614.199 271.692 610.469 269.481" stroke="#263238" stroke-miterlimit="10"/>
<path d="M609.35 279.703C609.35 279.703 607.181 282.852 604.709 282.093C602.237 281.332 600.262 279.054 600.262 279.054" stroke="#263238" stroke-miterlimit="10"/>
<path d="M611.975 283.777C611.975 283.777 607.623 287.549 603.798 286.692C599.972 285.836 598.094 282.202 598.094 282.202" stroke="#263238" stroke-miterlimit="10"/>
<path d="M625.997 255.987C625.997 255.987 628.853 251.553 629.668 256.471C630.482 261.388 624.502 266.209 624.502 266.209L625.997 255.987Z" fill="#C2C2C2" stroke="#263238" stroke-miterlimit="10"/>
<path d="M583.978 253.984C583.978 253.984 582.018 248.791 580.18 252.741C578.343 256.69 584.061 263.707 584.061 263.707L583.978 253.984Z" fill="#C2C2C2" stroke="#263238" stroke-miterlimit="10"/>
<path d="M583.837 288.456C583.837 288.456 583.372 346.072 582.443 353.043C581.513 360.013 571.523 393.468 565.948 401.367C560.372 409.266 558.514 412.287 558.514 412.287L553.867 427.156L554.332 435.288H540.16C540.16 435.288 531.563 417.631 529.472 407.409C527.381 397.186 526.916 387.894 528.542 381.388C530.168 374.883 548.755 316.801 548.987 315.408C549.22 314.014 547.361 300.075 548.987 298.216C550.613 296.355 583.837 288.456 583.837 288.456Z" fill="#92E3A9" stroke="#263238" stroke-miterlimit="10"/>
<path d="M536.49 425.788C536.49 425.788 530.684 476.001 531.366 479.587C532.049 483.174 538.881 488.98 548.445 488.127C558.009 487.273 562.791 478.05 562.791 478.05L553.031 425.763L536.49 425.788Z" fill="#8A8A8A" stroke="#263238" stroke-miterlimit="10"/>
<path d="M531.366 479.586C531.765 481.678 534.267 484.519 538.173 486.36C537.849 485.203 537.497 483.845 537.141 482.24C535.962 476.936 542.946 432.73 542.946 432.73L541.545 425.779L536.49 425.787C536.49 425.787 530.684 475.999 531.366 479.586Z" fill="#8A8A8A" stroke="#263238" stroke-miterlimit="10"/>
<path d="M535.637 381.211C535.637 381.211 548.787 380.187 554.253 385.311" stroke="#263238" stroke-miterlimit="10"/>
<path d="M541.783 377.113C541.783 377.113 548.445 377.455 552.714 380.871" stroke="#263238" stroke-miterlimit="10"/>
<path d="M552.039 345.117L552.545 351.324" stroke="#263238" stroke-miterlimit="10"/>
<path d="M549.471 313.579L551.617 339.933" stroke="#263238" stroke-miterlimit="10"/>
<path d="M575.007 291.243C575.007 291.243 572.218 318.889 572.683 327.951C573.148 337.012 578.491 364.194 578.724 365.356" stroke="#263238" stroke-miterlimit="10"/>
<path d="M566.179 292.87L542.945 432.73L551.077 432.499L572.683 291.708L566.179 292.87Z" fill="#8A8A8A" stroke="#263238" stroke-miterlimit="10"/>
<path d="M549.027 394.968C549.027 394.968 541.02 398.047 540.405 399.279C539.789 400.51 534.093 409.749 534.401 410.98C534.708 412.212 541.637 418.525 541.637 418.525C541.637 418.525 547.796 424.684 549.182 424.53C550.568 424.375 553.031 423.606 550.721 420.526C548.411 417.447 545.64 414.829 545.64 414.829L549.027 394.968Z" fill="#C2C2C2" stroke="#263238" stroke-miterlimit="10"/>
<path d="M545.64 414.829L540.867 406.207" stroke="#263238" stroke-miterlimit="10"/>
<path d="M535.632 412.674C535.632 412.674 533.939 417.909 534.708 418.678C535.478 419.448 541.791 423.759 542.868 424.837C543.947 425.916 547.796 427.455 548.72 426.376C549.644 425.298 549.182 424.528 549.182 424.528C549.182 424.528 546.41 422.68 545.949 422.218C545.487 421.758 535.632 412.674 535.632 412.674Z" fill="#C2C2C2" stroke="#263238" stroke-miterlimit="10"/>
<path d="M537.018 420.988C537.018 420.988 537.172 425.761 538.866 426.993C540.559 428.224 545.794 429.61 547.026 429.456C548.257 429.301 548.719 426.376 548.719 426.376C548.719 426.376 545.178 426.993 542.868 424.837C540.559 422.682 537.018 420.988 537.018 420.988Z" fill="#C2C2C2" stroke="#263238" stroke-miterlimit="10"/>
<path d="M538.866 426.993C538.866 426.993 538.711 428.532 539.944 429.918C541.177 431.304 544.717 432.69 546.103 432.69C547.489 432.69 545.796 429.456 545.796 429.456L538.866 426.993Z" fill="#C2C2C2" stroke="#263238" stroke-miterlimit="10"/>
<path d="M556.264 399.124C556.264 399.124 561.192 404.821 562.576 405.745C563.962 406.669 564.732 413.136 564.886 414.522C565.041 415.908 553.03 425.761 553.03 425.761L551.799 425.607L556.264 399.124Z" fill="#C2C2C2" stroke="#263238" stroke-miterlimit="10"/>
<path d="M552.723 420.835C552.723 420.835 557.496 412.828 560.883 410.982" stroke="#263238" stroke-miterlimit="10"/>
<path d="M624.51 286.47C624.51 286.47 615.815 315.192 615.024 330.474C614.234 345.757 615.288 399.774 615.288 399.774L619.505 448.785C619.505 448.785 625.302 455.109 634.26 458.007C643.22 460.905 649.28 462.486 649.28 462.486L639.53 388.707L641.637 374.742L674.312 374.478C674.312 374.478 666.933 328.365 665.352 319.933C663.771 311.502 661.136 298.854 658.502 298.063C655.866 297.273 624.51 286.47 624.51 286.47Z" fill="#92E3A9" stroke="#263238" stroke-miterlimit="10"/>
<path d="M633.995 291.477C633.995 291.477 630.307 310.449 626.09 325.204C621.874 339.96 615.287 357.088 615.287 357.088" stroke="#263238" stroke-miterlimit="10"/>
<path d="M632.414 333.373L640.057 369.735" stroke="#263238" stroke-miterlimit="10"/>
<path d="M656.904 300.682C656.904 300.682 648.466 321.543 646.357 339.355" stroke="#263238" stroke-miterlimit="10"/>
<path d="M645.54 360.156C645.239 362.058 645.026 363.699 644.949 364.903" stroke="#263238" stroke-miterlimit="10"/>
<path d="M650.809 334.434C650.809 334.434 647.801 347.38 646.084 356.961" stroke="#263238" stroke-miterlimit="10"/>
<path d="M633.468 396.349L629.947 376.155L638.619 377.092C638.619 377.092 636.519 393.808 633.468 396.349Z" fill="white" stroke="#263238" stroke-miterlimit="10"/>
<path d="M664.298 369.735L635.05 366.309C635.05 366.309 635.576 380.274 634.786 387.388C633.995 394.503 633.469 396.348 633.469 396.348C633.469 396.348 656.656 397.403 664.561 395.822C672.466 394.241 676.418 391.342 677.209 386.335C677.999 381.328 673.256 369.208 673.256 369.208" fill="#92E3A9"/>
<path d="M664.298 369.735L635.05 366.309C635.05 366.309 635.576 380.274 634.786 387.388C633.995 394.503 633.469 396.348 633.469 396.348C633.469 396.348 656.656 397.403 664.561 395.822C672.466 394.241 676.418 391.342 677.209 386.335C677.999 381.328 673.256 369.208 673.256 369.208" stroke="#263238" stroke-miterlimit="10"/>
<path d="M604.34 362.319L599.646 344.127L619.011 344.949L622.532 363.727L604.34 362.319Z" fill="#263238" stroke="#263238" stroke-miterlimit="10"/>
<path d="M635.05 366.31L630.513 360.559C630.513 360.559 627.813 355.864 627.226 354.691C626.64 353.518 619.95 351.757 619.95 351.757L621.241 357.978C621.241 357.978 611.148 358.564 609.27 358.213C607.392 357.861 605.749 357.51 605.631 359.152C605.514 360.795 605.631 361.5 607.743 361.734C609.855 361.968 617.484 363.376 617.484 363.376C617.484 363.376 606.687 363.024 605.395 362.673C604.104 362.32 600.349 360.912 599.997 362.439C599.644 363.964 599.997 364.551 600.466 364.903C600.936 365.256 603.283 366.429 603.283 366.429C603.283 366.429 602.461 368.776 603.283 369.949C604.105 371.122 608.682 373.822 609.268 374.056C609.855 374.29 612.438 377.226 614.08 378.751C615.723 380.277 617.953 380.043 620.301 380.043C622.648 380.043 625.465 379.339 626.521 379.221C627.577 379.104 635.323 380.043 635.323 380.043L635.05 366.31Z" fill="#C2C2C2" stroke="#263238" stroke-miterlimit="10"/>
<path d="M617.486 363.375C617.486 363.375 620.773 363.844 621.712 363.492C622.651 363.139 623.12 361.497 622.768 359.854" stroke="#263238" stroke-miterlimit="10"/>
<path d="M603.285 366.426C603.285 366.426 610.209 368.89 612.323 369.829C614.435 370.768 620.421 370.533 620.891 370.533" stroke="#263238" stroke-miterlimit="10"/>
<path d="M609.271 374.055C609.271 374.055 614.436 375.697 615.375 375.933C616.314 376.167 619.601 375.933 619.601 375.933" stroke="#263238" stroke-miterlimit="10"/>
</svg>
