<svg width="320" height="320" viewBox="0 0 320 320" fill="none" xmlns="http://www.w3.org/2000/svg">
<path opacity="0.7" d="M43.4748 106.935C43.4748 106.935 25.6335 153.007 50.7048 199.417C75.7762 245.827 127.427 270.33 168.765 291.288C210.103 312.245 253.028 302.039 273.427 267.711C293.825 233.383 265.846 208.877 265.813 159.924C265.78 110.97 273.139 98.0088 246.636 56.6507C220.134 15.292 155.079 6.1387 105.9 36.8133C56.7228 67.4878 43.4748 106.935 43.4748 106.935Z" fill="white"/>
<path d="M26.6961 177.883C23.8897 164.712 24.6628 150.784 30.4004 136.6C37.7931 118.324 53.6747 105.338 71.4699 97.7606C97.3304 86.7488 122.717 86.5395 143.737 64.9619C150.22 58.3065 155.662 50.6835 162.284 44.1657C181.817 24.9395 210.407 27.2736 231.755 42.5177C276.29 74.3193 292.308 137.303 289.832 189.375C288.72 212.743 277.563 234.491 259.906 249.823C219.969 284.499 152.157 278.666 106.289 260.566C72.0837 247.068 34.7281 215.58 26.6961 177.883Z" fill="#92E3A9"/>
<path opacity="0.7" d="M26.6961 177.883C23.8897 164.712 24.6628 150.784 30.4004 136.6C37.7931 118.324 53.6747 105.338 71.4699 97.7606C97.3304 86.7488 122.717 86.5395 143.737 64.9619C150.22 58.3065 155.662 50.6835 162.284 44.1657C181.817 24.9395 210.407 27.2736 231.755 42.5177C276.29 74.3193 292.308 137.303 289.832 189.375C288.72 212.743 277.563 234.491 259.906 249.823C219.969 284.499 152.157 278.666 106.289 260.566C72.0837 247.068 34.7281 215.58 26.6961 177.883Z" fill="white"/>
<path d="M160.311 77.7441V81.5841" stroke="#263238" stroke-linecap="round" stroke-linejoin="round"/>
<path d="M160.311 85.7261V91.9386" stroke="#263238" stroke-linecap="round" stroke-linejoin="round" stroke-dasharray="6.47 6.47"/>
<path d="M160.311 94.0098V97.8498" stroke="#263238" stroke-linecap="round" stroke-linejoin="round"/>
<path d="M221.565 142.72H217.725" stroke="#263238" stroke-linecap="round" stroke-linejoin="round"/>
<path d="M213.582 142.72H207.369" stroke="#263238" stroke-linecap="round" stroke-linejoin="round" stroke-dasharray="6.47 6.47"/>
<path d="M205.299 142.72H201.459" stroke="#263238" stroke-linecap="round" stroke-linejoin="round"/>
<path d="M119.164 142.72H115.324" stroke="#263238" stroke-linecap="round" stroke-linejoin="round"/>
<path d="M111.181 142.72H104.969" stroke="#263238" stroke-linecap="round" stroke-linejoin="round" stroke-dasharray="6.47 6.47"/>
<path d="M102.899 142.72H99.0586" stroke="#263238" stroke-linecap="round" stroke-linejoin="round"/>
<path d="M266.129 155.74C266.129 155.062 266.486 154.675 267.139 154.675C267.793 154.675 268.15 155.062 268.15 155.74V157.943C268.15 158.62 267.793 159.008 267.139 159.008C266.486 159.008 266.129 158.62 266.129 157.943V155.74ZM266.795 157.985C266.795 158.288 266.928 158.402 267.139 158.402C267.351 158.402 267.484 158.288 267.484 157.985V155.698C267.484 155.395 267.351 155.28 267.139 155.28C266.928 155.28 266.795 155.395 266.795 155.698V157.985Z" fill="#263238"/>
<path d="M266.594 161.31C267.109 161.31 267.224 161.062 267.327 160.777H267.774V165.013H267.108V161.782H266.594V161.31H266.594Z" fill="#263238"/>
<path d="M266.129 167.848C266.129 167.17 266.486 166.783 267.139 166.783C267.793 166.783 268.15 167.17 268.15 167.848V170.051C268.15 170.728 267.793 171.116 267.139 171.116C266.486 171.116 266.129 170.729 266.129 170.051V167.848ZM266.795 170.093C266.795 170.396 266.928 170.511 267.139 170.511C267.351 170.511 267.484 170.396 267.484 170.093V167.806C267.484 167.503 267.351 167.389 267.139 167.389C266.928 167.389 266.795 167.503 266.795 167.806V170.093Z" fill="#263238"/>
<path d="M266.594 173.418C267.109 173.418 267.224 173.169 267.327 172.885H267.774V177.121H267.108V173.89H266.594V173.418H266.594Z" fill="#263238"/>
<path d="M266.129 179.955C266.129 179.278 266.486 178.891 267.139 178.891C267.793 178.891 268.15 179.278 268.15 179.955V182.158C268.15 182.836 267.793 183.223 267.139 183.223C266.486 183.223 266.129 182.836 266.129 182.158V179.955ZM266.795 182.201C266.795 182.503 266.928 182.618 267.139 182.618C267.351 182.618 267.484 182.503 267.484 182.201V179.913C267.484 179.61 267.351 179.496 267.139 179.496C266.928 179.496 266.795 179.61 266.795 179.913V182.201Z" fill="#263238"/>
<path d="M266.594 185.525C267.109 185.525 267.224 185.277 267.327 184.993H267.774V189.228H267.108V185.997H266.594V185.525H266.594Z" fill="#263238"/>
<path d="M266.129 192.063C266.129 191.386 266.486 190.999 267.139 190.999C267.793 190.999 268.15 191.386 268.15 192.063V194.266C268.15 194.944 267.793 195.331 267.139 195.331C266.486 195.331 266.129 194.944 266.129 194.266V192.063ZM266.795 194.309C266.795 194.611 266.928 194.726 267.139 194.726C267.351 194.726 267.484 194.611 267.484 194.309V192.021C267.484 191.719 267.351 191.604 267.139 191.604C266.928 191.604 266.795 191.719 266.795 192.021V194.309Z" fill="#263238"/>
<path d="M266.129 198.117C266.129 197.44 266.486 197.052 267.139 197.052C267.793 197.052 268.15 197.439 268.15 198.117V200.32C268.15 200.998 267.793 201.384 267.139 201.384C266.486 201.384 266.129 200.997 266.129 200.32V198.117ZM266.795 200.362C266.795 200.665 266.928 200.78 267.139 200.78C267.351 200.78 267.484 200.665 267.484 200.362V198.075C267.484 197.772 267.351 197.658 267.139 197.658C266.928 197.658 266.795 197.772 266.795 198.075V200.362Z" fill="#263238"/>
<path d="M266.129 204.171C266.129 203.493 266.486 203.107 267.139 203.107C267.793 203.107 268.15 203.494 268.15 204.171V206.374C268.15 207.051 267.793 207.439 267.139 207.439C266.486 207.439 266.129 207.052 266.129 206.374V204.171ZM266.795 206.416C266.795 206.719 266.928 206.834 267.139 206.834C267.351 206.834 267.484 206.719 267.484 206.416V204.129C267.484 203.826 267.351 203.712 267.139 203.712C266.928 203.712 266.795 203.826 266.795 204.129V206.416Z" fill="#263238"/>
<path d="M266.594 215.796C267.109 215.796 267.224 215.547 267.327 215.263H267.774V219.499H267.108V216.268H266.594V215.796H266.594Z" fill="#263238"/>
<path d="M266.594 221.849C267.109 221.849 267.224 221.601 267.327 221.317H267.774V225.552H267.108V222.322H266.594V221.849H266.594Z" fill="#263238"/>
<path d="M266.594 227.903C267.109 227.903 267.224 227.655 267.327 227.371H267.774V231.606H267.108V228.375H266.594V227.903H266.594Z" fill="#263238"/>
<path d="M266.129 234.44C266.129 233.763 266.486 233.375 267.139 233.375C267.793 233.375 268.15 233.763 268.15 234.44V236.643C268.15 237.321 267.793 237.708 267.139 237.708C266.486 237.708 266.129 237.321 266.129 236.643V234.44ZM266.795 236.686C266.795 236.988 266.928 237.103 267.139 237.103C267.351 237.103 267.484 236.988 267.484 236.686V234.398C267.484 234.095 267.351 233.981 267.139 233.981C266.928 233.981 266.795 234.095 266.795 234.398V236.686Z" fill="#263238"/>
<path d="M266.129 240.495C266.129 239.817 266.486 239.431 267.139 239.431C267.793 239.431 268.15 239.818 268.15 240.495V242.698C268.15 243.375 267.793 243.763 267.139 243.763C266.486 243.763 266.129 243.376 266.129 242.698V240.495ZM266.795 242.74C266.795 243.043 266.928 243.157 267.139 243.157C267.351 243.157 267.484 243.043 267.484 242.74V240.453C267.484 240.15 267.351 240.035 267.139 240.035C266.928 240.035 266.795 240.15 266.795 240.453V242.74Z" fill="#263238"/>
<path d="M266.594 246.065C267.109 246.065 267.224 245.816 267.327 245.532H267.774V249.768H267.108V246.537H266.594V246.065H266.594Z" fill="#263238"/>
<path d="M270.194 149.202C270.709 149.202 270.823 148.954 270.926 148.67H271.374V152.905H270.708V149.675H270.193V149.202H270.194Z" fill="#263238"/>
<path d="M270.194 155.256C270.709 155.256 270.823 155.008 270.926 154.724H271.374V158.959H270.708V155.728H270.193V155.256H270.194Z" fill="#263238"/>
<path d="M269.729 167.848C269.729 167.17 270.086 166.783 270.739 166.783C271.393 166.783 271.75 167.17 271.75 167.848V170.051C271.75 170.728 271.393 171.116 270.739 171.116C270.086 171.116 269.729 170.729 269.729 170.051V167.848ZM270.394 170.093C270.394 170.396 270.527 170.511 270.739 170.511C270.951 170.511 271.084 170.396 271.084 170.093V167.806C271.084 167.503 270.951 167.389 270.739 167.389C270.527 167.389 270.394 167.503 270.394 167.806V170.093Z" fill="#263238"/>
<path d="M270.194 185.526C270.709 185.526 270.823 185.277 270.926 184.993H271.374V189.229H270.708V185.998H270.193V185.526H270.194Z" fill="#263238"/>
<path d="M269.729 192.064C269.729 191.386 270.086 190.999 270.739 190.999C271.393 190.999 271.75 191.386 271.75 192.064V194.267C271.75 194.945 271.393 195.332 270.739 195.332C270.086 195.332 269.729 194.945 269.729 194.267V192.064ZM270.394 194.309C270.394 194.612 270.527 194.726 270.739 194.726C270.951 194.726 271.084 194.612 271.084 194.309V192.022C271.084 191.719 270.951 191.604 270.739 191.604C270.527 191.604 270.394 191.719 270.394 192.022V194.309Z" fill="#263238"/>
<path d="M270.194 197.634C270.709 197.634 270.823 197.385 270.926 197.101H271.374V201.337H270.708V198.106H270.193V197.634H270.194Z" fill="#263238"/>
<path d="M270.194 203.688C270.709 203.688 270.823 203.439 270.926 203.155H271.374V207.391H270.708V204.16H270.193V203.688H270.194Z" fill="#263238"/>
<path d="M270.194 209.741C270.709 209.741 270.823 209.493 270.926 209.209H271.374V213.444H270.708V210.214H270.193V209.741H270.194Z" fill="#263238"/>
<path d="M269.729 216.279C269.729 215.602 270.086 215.214 270.739 215.214C271.393 215.214 271.75 215.602 271.75 216.279V218.482C271.75 219.159 271.393 219.547 270.739 219.547C270.086 219.547 269.729 219.16 269.729 218.482V216.279ZM270.394 218.524C270.394 218.827 270.527 218.942 270.739 218.942C270.951 218.942 271.084 218.827 271.084 218.524V216.237C271.084 215.934 270.951 215.82 270.739 215.82C270.527 215.82 270.394 215.934 270.394 216.237V218.524Z" fill="#263238"/>
<path d="M269.729 222.334C269.729 221.656 270.086 221.269 270.739 221.269C271.393 221.269 271.75 221.656 271.75 222.334V224.536C271.75 225.214 271.393 225.601 270.739 225.601C270.086 225.601 269.729 225.214 269.729 224.536V222.334ZM270.394 224.579C270.394 224.881 270.527 224.996 270.739 224.996C270.951 224.996 271.084 224.881 271.084 224.579V222.291C271.084 221.989 270.951 221.874 270.739 221.874C270.527 221.874 270.394 221.989 270.394 222.291V224.579Z" fill="#263238"/>
<path d="M262.999 185.526C263.513 185.526 263.628 185.277 263.731 184.993H264.178V189.229H263.513V185.998H262.998V185.526H262.999Z" fill="#263238"/>
<path d="M262.531 192.064C262.531 191.386 262.888 190.999 263.542 190.999C264.195 190.999 264.552 191.386 264.552 192.064V194.267C264.552 194.945 264.195 195.332 263.542 195.332C262.888 195.332 262.531 194.945 262.531 194.267V192.064ZM263.197 194.309C263.197 194.612 263.33 194.726 263.542 194.726C263.754 194.726 263.887 194.612 263.887 194.309V192.022C263.887 191.719 263.754 191.604 263.542 191.604C263.33 191.604 263.197 191.719 263.197 192.022V194.309Z" fill="#263238"/>
<path d="M262.531 198.118C262.531 197.441 262.888 197.053 263.542 197.053C264.195 197.053 264.552 197.44 264.552 198.118V200.321C264.552 200.998 264.195 201.385 263.542 201.385C262.888 201.385 262.531 200.998 262.531 200.321V198.118ZM263.197 200.363C263.197 200.666 263.33 200.78 263.542 200.78C263.754 200.78 263.887 200.666 263.887 200.363V198.075C263.887 197.773 263.754 197.658 263.542 197.658C263.33 197.658 263.197 197.773 263.197 198.075V200.363Z" fill="#263238"/>
<path d="M262.999 203.688C263.513 203.688 263.628 203.439 263.731 203.155H264.178V207.391H263.513V204.16H262.998V203.688H262.999Z" fill="#263238"/>
<path d="M262.999 215.796C263.513 215.796 263.628 215.547 263.731 215.263H264.178V219.499H263.513V216.268H262.998V215.796H262.999Z" fill="#263238"/>
<path d="M262.999 221.849C263.513 221.849 263.628 221.601 263.731 221.317H264.178V225.552H263.513V222.322H262.998V221.849H262.999Z" fill="#263238"/>
<path d="M262.999 227.903C263.513 227.903 263.628 227.655 263.731 227.371H264.178V231.606H263.513V228.375H262.998V227.903H262.999Z" fill="#263238"/>
<path d="M258.932 167.848C258.932 167.17 259.289 166.783 259.942 166.783C260.596 166.783 260.953 167.17 260.953 167.848V170.051C260.953 170.728 260.596 171.116 259.942 171.116C259.289 171.116 258.932 170.729 258.932 170.051V167.848ZM259.597 170.093C259.597 170.396 259.73 170.511 259.942 170.511C260.154 170.511 260.287 170.396 260.287 170.093V167.806C260.287 167.503 260.154 167.389 259.942 167.389C259.73 167.389 259.597 167.503 259.597 167.806V170.093Z" fill="#263238"/>
<path d="M258.932 179.956C258.932 179.278 259.289 178.892 259.942 178.892C260.596 178.892 260.953 179.279 260.953 179.956V182.159C260.953 182.837 260.596 183.224 259.942 183.224C259.289 183.224 258.932 182.837 258.932 182.159V179.956ZM259.597 182.201C259.597 182.504 259.73 182.618 259.942 182.618C260.154 182.618 260.287 182.504 260.287 182.201V179.914C260.287 179.611 260.154 179.496 259.942 179.496C259.73 179.496 259.597 179.611 259.597 179.914V182.201Z" fill="#263238"/>
<path d="M259.397 197.634C259.912 197.634 260.026 197.385 260.129 197.101H260.577V201.337H259.911V198.106H259.396L259.397 197.634Z" fill="#263238"/>
<path d="M259.397 203.688C259.912 203.688 260.026 203.439 260.129 203.155H260.577V207.391H259.911V204.16H259.396L259.397 203.688Z" fill="#263238"/>
<path d="M259.397 221.849C259.912 221.849 260.026 221.601 260.129 221.317H260.577V225.552H259.911V222.322H259.396L259.397 221.849Z" fill="#263238"/>
<path d="M258.932 228.387C258.932 227.709 259.289 227.322 259.942 227.322C260.596 227.322 260.953 227.709 260.953 228.387V230.59C260.953 231.267 260.596 231.654 259.942 231.654C259.289 231.654 258.932 231.267 258.932 230.59V228.387ZM259.597 230.632C259.597 230.935 259.73 231.05 259.942 231.05C260.154 231.05 260.287 230.935 260.287 230.632V228.345C260.287 228.042 260.154 227.928 259.942 227.928C259.73 227.928 259.597 228.042 259.597 228.345V230.632Z" fill="#263238"/>
<path d="M259.397 233.957C259.912 233.957 260.026 233.708 260.129 233.424H260.577V237.66H259.911V234.429H259.396L259.397 233.957Z" fill="#263238"/>
<path d="M109.9 174.309C109.9 173.632 110.258 173.245 110.911 173.245C111.564 173.245 111.922 173.632 111.922 174.309V176.512C111.922 177.19 111.564 177.577 110.911 177.577C110.258 177.577 109.9 177.19 109.9 176.512V174.309ZM110.566 176.554C110.566 176.857 110.699 176.971 110.911 176.971C111.123 176.971 111.256 176.857 111.256 176.554V174.267C111.256 173.964 111.123 173.849 110.911 173.849C110.699 173.849 110.566 173.964 110.566 174.267V176.554Z" fill="#263238"/>
<path d="M109.9 180.363C109.9 179.686 110.258 179.298 110.911 179.298C111.564 179.298 111.922 179.686 111.922 180.363V182.566C111.922 183.244 111.564 183.631 110.911 183.631C110.258 183.631 109.9 183.244 109.9 182.566V180.363ZM110.566 182.608C110.566 182.911 110.699 183.026 110.911 183.026C111.123 183.026 111.256 182.911 111.256 182.608V180.321C111.256 180.018 111.123 179.904 110.911 179.904C110.699 179.904 110.566 180.018 110.566 180.321V182.608Z" fill="#263238"/>
<path d="M110.366 185.933C110.88 185.933 110.995 185.685 111.098 185.401H111.545V189.636H110.88V186.406H110.365L110.366 185.933Z" fill="#263238"/>
<path d="M109.9 192.471C109.9 191.793 110.258 191.407 110.911 191.407C111.564 191.407 111.922 191.794 111.922 192.471V194.674C111.922 195.351 111.564 195.739 110.911 195.739C110.258 195.739 109.9 195.352 109.9 194.674V192.471ZM110.566 194.716C110.566 195.019 110.699 195.133 110.911 195.133C111.123 195.133 111.256 195.019 111.256 194.716V192.429C111.256 192.126 111.123 192.012 110.911 192.012C110.699 192.012 110.566 192.126 110.566 192.429V194.716Z" fill="#263238"/>
<path d="M110.366 198.041C110.88 198.041 110.995 197.793 111.098 197.509H111.545V201.744H110.88V198.514H110.365L110.366 198.041Z" fill="#263238"/>
<path d="M109.9 204.579C109.9 203.902 110.258 203.515 110.911 203.515C111.564 203.515 111.922 203.902 111.922 204.579V206.782C111.922 207.459 111.564 207.847 110.911 207.847C110.258 207.847 109.9 207.46 109.9 206.782V204.579ZM110.566 206.824C110.566 207.127 110.699 207.241 110.911 207.241C111.123 207.241 111.256 207.127 111.256 206.824V204.537C111.256 204.234 111.123 204.119 110.911 204.119C110.699 204.119 110.566 204.234 110.566 204.537V206.824Z" fill="#263238"/>
<path d="M110.366 210.149C110.88 210.149 110.995 209.901 111.098 209.617H111.545V213.852H110.88V210.622H110.365L110.366 210.149Z" fill="#263238"/>
<path d="M109.9 216.687C109.9 216.009 110.258 215.622 110.911 215.622C111.564 215.622 111.922 216.009 111.922 216.687V218.889C111.922 219.567 111.564 219.954 110.911 219.954C110.258 219.954 109.9 219.567 109.9 218.889V216.687ZM110.566 218.932C110.566 219.234 110.699 219.349 110.911 219.349C111.123 219.349 111.256 219.234 111.256 218.932V216.644C111.256 216.342 111.123 216.227 110.911 216.227C110.699 216.227 110.566 216.342 110.566 216.644V218.932Z" fill="#263238"/>
<path d="M109.9 222.741C109.9 222.063 110.258 221.676 110.911 221.676C111.564 221.676 111.922 222.063 111.922 222.741V224.944C111.922 225.621 111.564 226.008 110.911 226.008C110.258 226.008 109.9 225.621 109.9 224.944V222.741ZM110.566 224.985C110.566 225.288 110.699 225.403 110.911 225.403C111.123 225.403 111.256 225.288 111.256 224.985V222.698C111.256 222.395 111.123 222.281 110.911 222.281C110.699 222.281 110.566 222.395 110.566 222.698V224.985Z" fill="#263238"/>
<path d="M109.9 228.795C109.9 228.117 110.258 227.73 110.911 227.73C111.564 227.73 111.922 228.118 111.922 228.795V230.998C111.922 231.675 111.564 232.063 110.911 232.063C110.258 232.063 109.9 231.675 109.9 230.998V228.795ZM110.566 231.04C110.566 231.343 110.699 231.457 110.911 231.457C111.123 231.457 111.256 231.343 111.256 231.04V228.753C111.256 228.45 111.123 228.335 110.911 228.335C110.699 228.335 110.566 228.45 110.566 228.753V231.04Z" fill="#263238"/>
<path d="M110.366 234.365C110.88 234.365 110.995 234.116 111.098 233.832H111.545V238.068H110.88V234.837H110.365L110.366 234.365Z" fill="#263238"/>
<path d="M110.366 240.418C110.88 240.418 110.995 240.17 111.098 239.886H111.545V244.121H110.88V240.891H110.365L110.366 240.418Z" fill="#263238"/>
<path d="M110.366 246.473C110.88 246.473 110.995 246.225 111.098 245.94H111.545V250.176H110.88V246.945H110.365L110.366 246.473Z" fill="#263238"/>
<path d="M110.366 252.527C110.88 252.527 110.995 252.278 111.098 251.994H111.545V256.23H110.88V252.999H110.365L110.366 252.527Z" fill="#263238"/>
<path d="M110.566 261.309C110.566 261.612 110.7 261.726 110.911 261.726C111.123 261.726 111.256 261.612 111.256 261.309V259.022C111.256 258.719 111.123 258.604 110.911 258.604C110.7 258.604 110.566 258.719 110.566 259.022V261.309Z" fill="#263238"/>
<path d="M113.965 198.041C114.48 198.041 114.595 197.793 114.698 197.509H115.145V201.744H114.479V198.514H113.965V198.041H113.965Z" fill="#263238"/>
<path d="M113.965 204.095C114.48 204.095 114.595 203.847 114.698 203.562H115.145V207.798H114.479V204.567H113.965V204.095H113.965Z" fill="#263238"/>
<path d="M113.498 216.687C113.498 216.009 113.855 215.622 114.509 215.622C115.162 215.622 115.519 216.009 115.519 216.687V218.889C115.519 219.567 115.162 219.954 114.509 219.954C113.855 219.954 113.498 219.567 113.498 218.889V216.687ZM114.164 218.932C114.164 219.234 114.297 219.349 114.509 219.349C114.72 219.349 114.854 219.234 114.854 218.932V216.644C114.854 216.342 114.72 216.227 114.509 216.227C114.297 216.227 114.164 216.342 114.164 216.644V218.932Z" fill="#263238"/>
<path d="M113.965 222.257C114.48 222.257 114.595 222.009 114.698 221.725H115.145V225.96H114.479V222.729H113.965V222.257H113.965Z" fill="#263238"/>
<path d="M113.498 228.795C113.498 228.117 113.855 227.73 114.509 227.73C115.162 227.73 115.519 228.118 115.519 228.795V230.998C115.519 231.675 115.162 232.063 114.509 232.063C113.855 232.063 113.498 231.675 113.498 230.998V228.795ZM114.164 231.04C114.164 231.343 114.297 231.457 114.509 231.457C114.72 231.457 114.854 231.343 114.854 231.04V228.753C114.854 228.45 114.72 228.335 114.509 228.335C114.297 228.335 114.164 228.45 114.164 228.753V231.04Z" fill="#263238"/>
<path d="M114.164 243.147C114.164 243.45 114.297 243.564 114.509 243.564C114.721 243.564 114.854 243.45 114.854 243.147V240.86C114.854 240.557 114.721 240.442 114.509 240.442C114.297 240.442 114.164 240.557 114.164 240.86V243.147Z" fill="#263238"/>
<path d="M113.965 246.472C114.48 246.472 114.595 246.224 114.698 245.94H115.145V250.175H114.479V246.945H113.965V246.472H113.965Z" fill="#263238"/>
<path d="M113.965 252.527C114.48 252.527 114.595 252.278 114.698 251.994H115.145V256.23H114.479V252.999H113.965V252.527H113.965Z" fill="#263238"/>
<path d="M113.498 271.172C113.498 270.495 113.855 270.107 114.509 270.107C115.162 270.107 115.519 270.495 115.519 271.172V273.375C115.519 274.052 115.162 274.44 114.509 274.44C113.855 274.44 113.498 274.052 113.498 273.375V271.172ZM114.164 273.418C114.164 273.72 114.297 273.835 114.509 273.835C114.72 273.835 114.854 273.72 114.854 273.418V271.13C114.854 270.827 114.72 270.713 114.509 270.713C114.297 270.713 114.164 270.827 114.164 271.13V273.418Z" fill="#263238"/>
<path d="M106.301 192.471C106.301 191.793 106.658 191.407 107.311 191.407C107.965 191.407 108.322 191.794 108.322 192.471V194.674C108.322 195.351 107.965 195.739 107.311 195.739C106.658 195.739 106.301 195.352 106.301 194.674V192.471ZM106.966 194.716C106.966 195.019 107.1 195.133 107.311 195.133C107.523 195.133 107.656 195.019 107.656 194.716V192.429C107.656 192.126 107.523 192.012 107.311 192.012C107.1 192.012 106.966 192.126 106.966 192.429V194.716Z" fill="#263238"/>
<path d="M106.766 198.042C107.281 198.042 107.395 197.793 107.498 197.509H107.946V201.745H107.28V198.514H106.766V198.042H106.766Z" fill="#263238"/>
<path d="M106.766 204.095C107.281 204.095 107.395 203.847 107.498 203.563H107.946V207.799H107.28V204.568H106.766V204.095H106.766Z" fill="#263238"/>
<path d="M106.301 210.633C106.301 209.955 106.658 209.568 107.311 209.568C107.965 209.568 108.322 209.955 108.322 210.633V212.836C108.322 213.513 107.965 213.901 107.311 213.901C106.658 213.901 106.301 213.513 106.301 212.836V210.633ZM106.966 212.878C106.966 213.181 107.1 213.295 107.311 213.295C107.523 213.295 107.656 213.181 107.656 212.878V210.591C107.656 210.288 107.523 210.173 107.311 210.173C107.1 210.173 106.966 210.288 106.966 210.591V212.878Z" fill="#263238"/>
<path d="M106.301 222.741C106.301 222.063 106.658 221.676 107.311 221.676C107.965 221.676 108.322 222.063 108.322 222.741V224.944C108.322 225.622 107.965 226.008 107.311 226.008C106.658 226.008 106.301 225.621 106.301 224.944V222.741ZM106.966 224.986C106.966 225.288 107.1 225.403 107.311 225.403C107.523 225.403 107.656 225.288 107.656 224.986V222.698C107.656 222.396 107.523 222.281 107.311 222.281C107.1 222.281 106.966 222.396 106.966 222.698V224.986Z" fill="#263238"/>
<path d="M106.301 228.795C106.301 228.117 106.658 227.73 107.311 227.73C107.965 227.73 108.322 228.118 108.322 228.795V230.998C108.322 231.675 107.965 232.063 107.311 232.063C106.658 232.063 106.301 231.675 106.301 230.998V228.795ZM106.966 231.04C106.966 231.343 107.1 231.457 107.311 231.457C107.523 231.457 107.656 231.343 107.656 231.04V228.753C107.656 228.45 107.523 228.335 107.311 228.335C107.1 228.335 106.966 228.45 106.966 228.753V231.04Z" fill="#263238"/>
<path d="M106.766 234.365C107.281 234.365 107.395 234.117 107.498 233.833H107.946V238.068H107.28V234.837H106.766V234.365H106.766Z" fill="#263238"/>
<path d="M106.301 240.902C106.301 240.225 106.658 239.837 107.311 239.837C107.965 239.837 108.322 240.225 108.322 240.902V243.105C108.322 243.783 107.965 244.17 107.311 244.17C106.658 244.17 106.301 243.782 106.301 243.105V240.902ZM106.966 243.147C106.966 243.45 107.1 243.565 107.311 243.565C107.523 243.565 107.656 243.45 107.656 243.147V240.86C107.656 240.557 107.523 240.443 107.311 240.443C107.1 240.443 106.966 240.557 106.966 240.86V243.147Z" fill="#263238"/>
<path d="M106.766 246.473C107.281 246.473 107.395 246.225 107.498 245.94H107.946V250.176H107.28V246.945H106.766V246.473H106.766Z" fill="#263238"/>
<path d="M102.701 180.364C102.701 179.686 103.058 179.299 103.712 179.299C104.365 179.299 104.722 179.686 104.722 180.364V182.567C104.722 183.244 104.365 183.631 103.712 183.631C103.058 183.631 102.701 183.244 102.701 182.567V180.364ZM103.367 182.609C103.367 182.912 103.5 183.026 103.712 183.026C103.924 183.026 104.057 182.912 104.057 182.609V180.322C104.057 180.019 103.924 179.904 103.712 179.904C103.5 179.904 103.367 180.019 103.367 180.322V182.609Z" fill="#263238"/>
<path d="M103.168 191.988C103.683 191.988 103.797 191.739 103.9 191.455H104.347V195.691H103.682V192.46H103.168V191.988Z" fill="#263238"/>
<path d="M103.168 204.095C103.683 204.095 103.797 203.847 103.9 203.563H104.347V207.799H103.682V204.568H103.168V204.095Z" fill="#263238"/>
<path d="M102.701 210.633C102.701 209.956 103.058 209.568 103.712 209.568C104.365 209.568 104.722 209.956 104.722 210.633V212.836C104.722 213.514 104.365 213.901 103.712 213.901C103.058 213.901 102.701 213.513 102.701 212.836V210.633ZM103.367 212.878C103.367 213.181 103.5 213.296 103.712 213.296C103.924 213.296 104.057 213.181 104.057 212.878V210.591C104.057 210.288 103.924 210.174 103.712 210.174C103.5 210.174 103.367 210.288 103.367 210.591V212.878Z" fill="#263238"/>
<path d="M103.168 228.311C103.683 228.311 103.797 228.063 103.9 227.779H104.347V232.014H103.682V228.784H103.168V228.311Z" fill="#263238"/>
<path d="M103.168 234.365C103.683 234.365 103.797 234.117 103.9 233.833H104.347V238.068H103.682V234.837H103.168V234.365Z" fill="#263238"/>
<path d="M103.168 240.419C103.683 240.419 103.797 240.17 103.9 239.886H104.347V244.122H103.682V240.891H103.168V240.419Z" fill="#263238"/>
<path d="M215.898 34.7603C215.898 34.0825 216.256 33.6953 216.909 33.6953C217.562 33.6953 217.92 34.0825 217.92 34.7603V36.9632C217.92 37.6403 217.562 38.0281 216.909 38.0281C216.256 38.0281 215.898 37.6409 215.898 36.9632V34.7603ZM216.564 37.0054C216.564 37.3081 216.697 37.4227 216.909 37.4227C217.121 37.4227 217.254 37.3081 217.254 37.0054V34.718C217.254 34.4153 217.121 34.3008 216.909 34.3008C216.697 34.3008 216.564 34.4153 216.564 34.718V37.0054Z" fill="#263238"/>
<path d="M215.898 40.814C215.898 40.1362 216.256 39.749 216.909 39.749C217.562 39.749 217.92 40.1362 217.92 40.814V43.0169C217.92 43.6946 217.562 44.0818 216.909 44.0818C216.256 44.0818 215.898 43.6946 215.898 43.0169V40.814ZM216.564 43.0591C216.564 43.3618 216.697 43.4764 216.909 43.4764C217.121 43.4764 217.254 43.3618 217.254 43.0591V40.7717C217.254 40.469 217.121 40.3545 216.909 40.3545C216.697 40.3545 216.564 40.469 216.564 40.7717V43.0591Z" fill="#263238"/>
<path d="M216.365 58.492C216.88 58.492 216.994 58.2436 217.097 57.9595H217.545V62.195H216.88V58.9643H216.365V58.492Z" fill="#263238"/>
<path d="M216.365 64.5457C216.88 64.5457 216.994 64.2973 217.097 64.0132H217.545V68.2487H216.88V65.018H216.365V64.5457Z" fill="#263238"/>
<path d="M215.898 83.1918C215.898 82.5146 216.256 82.1274 216.909 82.1274C217.562 82.1274 217.92 82.5146 217.92 83.1918V85.3946C217.92 86.0724 217.562 86.459 216.909 86.459C216.256 86.459 215.898 86.0718 215.898 85.3946V83.1918ZM216.564 85.4369C216.564 85.7396 216.697 85.8542 216.909 85.8542C217.121 85.8542 217.254 85.7396 217.254 85.4369V83.1495C217.254 82.8468 217.121 82.7322 216.909 82.7322C216.697 82.7322 216.564 82.8468 216.564 83.1495V85.4369Z" fill="#263238"/>
<path d="M215.898 95.2998C215.898 94.6221 216.256 94.2349 216.909 94.2349C217.562 94.2349 217.92 94.6221 217.92 95.2998V97.5027C217.92 98.1805 217.562 98.567 216.909 98.567C216.256 98.567 215.898 98.1798 215.898 97.5027V95.2998ZM216.564 97.5443C216.564 97.847 216.697 97.9616 216.909 97.9616C217.121 97.9616 217.254 97.847 217.254 97.5443V95.2569C217.254 94.9542 217.121 94.8397 216.909 94.8397C216.697 94.8397 216.564 94.9542 216.564 95.2569V97.5443Z" fill="#263238"/>
<path d="M205.102 46.868C205.102 46.1909 205.459 45.8037 206.112 45.8037C206.766 45.8037 207.123 46.1909 207.123 46.868V49.0709C207.123 49.748 206.766 50.1352 206.112 50.1352C205.459 50.1352 205.102 49.748 205.102 49.0709V46.868ZM205.767 49.1131C205.767 49.4159 205.9 49.5304 206.112 49.5304C206.324 49.5304 206.457 49.4159 206.457 49.1131V46.8258C206.457 46.5231 206.324 46.4085 206.112 46.4085C205.9 46.4085 205.767 46.5231 205.767 46.8258V49.1131Z" fill="#263238"/>
<path d="M205.102 52.9224C205.102 52.2453 205.459 51.8574 206.112 51.8574C206.766 51.8574 207.123 52.2446 207.123 52.9224V55.1253C207.123 55.803 206.766 56.1902 206.112 56.1902C205.459 56.1902 205.102 55.803 205.102 55.1253V52.9224ZM205.767 55.1675C205.767 55.4702 205.9 55.5848 206.112 55.5848C206.324 55.5848 206.457 55.4702 206.457 55.1675V52.8801C206.457 52.5774 206.324 52.4629 206.112 52.4629C205.9 52.4629 205.767 52.5774 205.767 52.8801V55.1675Z" fill="#263238"/>
<path d="M205.102 58.9761C205.102 58.299 205.459 57.9111 206.112 57.9111C206.766 57.9111 207.123 58.2983 207.123 58.9761V61.179C207.123 61.8567 206.766 62.2439 206.112 62.2439C205.459 62.2439 205.102 61.8567 205.102 61.179V58.9761ZM205.767 61.2212C205.767 61.5239 205.9 61.6385 206.112 61.6385C206.324 61.6385 206.457 61.5239 206.457 61.2212V58.9339C206.457 58.6311 206.324 58.5166 206.112 58.5166C205.9 58.5166 205.767 58.6311 205.767 58.9339V61.2212Z" fill="#263238"/>
<path d="M205.568 64.5461C206.083 64.5461 206.197 64.2978 206.301 64.0137H206.748V68.2492H206.083V65.0185H205.568V64.5461Z" fill="#263238"/>
<path d="M205.568 76.6541C206.083 76.6541 206.197 76.4057 206.301 76.1216H206.748V80.3571H206.083V77.1264H205.568V76.6541Z" fill="#263238"/>
<path d="M205.568 82.7083C206.083 82.7083 206.197 82.4599 206.301 82.1758H206.748V86.4113H206.083V83.1806H205.568V82.7083Z" fill="#263238"/>
<path d="M205.102 95.2998C205.102 94.6221 205.459 94.2349 206.112 94.2349C206.766 94.2349 207.123 94.6221 207.123 95.2998V97.5027C207.123 98.1805 206.766 98.567 206.112 98.567C205.459 98.567 205.102 98.1798 205.102 97.5027V95.2998ZM205.767 97.5443C205.767 97.847 205.9 97.9616 206.112 97.9616C206.324 97.9616 206.457 97.847 206.457 97.5443V95.2569C206.457 94.9542 206.324 94.8397 206.112 94.8397C205.9 94.8397 205.767 94.9542 205.767 95.2569V97.5443Z" fill="#263238"/>
<path d="M205.568 100.87C206.083 100.87 206.197 100.622 206.301 100.337H206.748V104.573H206.083V101.342H205.568V100.87Z" fill="#263238"/>
<path d="M212.301 34.7603C212.301 34.0825 212.658 33.6953 213.311 33.6953C213.965 33.6953 214.322 34.0825 214.322 34.7603V36.9632C214.322 37.6403 213.965 38.0281 213.311 38.0281C212.658 38.0281 212.301 37.6409 212.301 36.9632V34.7603ZM212.966 37.0054C212.966 37.3081 213.1 37.4227 213.311 37.4227C213.523 37.4227 213.656 37.3081 213.656 37.0054V34.718C213.656 34.4153 213.523 34.3008 213.311 34.3008C213.1 34.3008 212.966 34.4153 212.966 34.718V37.0054Z" fill="#263238"/>
<path d="M212.768 40.3303C213.282 40.3303 213.397 40.082 213.5 39.7979H213.947V44.0334H213.282V40.8027H212.768V40.3303Z" fill="#263238"/>
<path d="M212.301 46.868C212.301 46.1909 212.658 45.8037 213.311 45.8037C213.965 45.8037 214.322 46.1909 214.322 46.868V49.0709C214.322 49.748 213.965 50.1352 213.311 50.1352C212.658 50.1352 212.301 49.748 212.301 49.0709V46.868ZM212.966 49.1131C212.966 49.4159 213.1 49.5304 213.311 49.5304C213.523 49.5304 213.656 49.4159 213.656 49.1131V46.8258C213.656 46.5231 213.523 46.4085 213.311 46.4085C213.1 46.4085 212.966 46.5231 212.966 46.8258V49.1131Z" fill="#263238"/>
<path d="M212.768 52.4382C213.282 52.4382 213.397 52.1899 213.5 51.9058H213.947V56.1413H213.282V52.9106H212.768V52.4382Z" fill="#263238"/>
<path d="M212.768 58.492C213.282 58.492 213.397 58.2436 213.5 57.9595H213.947V62.195H213.282V58.9643H212.768V58.492Z" fill="#263238"/>
<path d="M212.768 64.5457C213.282 64.5457 213.397 64.2973 213.5 64.0132H213.947V68.2487H213.282V65.018H212.768V64.5457Z" fill="#263238"/>
<path d="M212.301 71.0834C212.301 70.4062 212.658 70.019 213.311 70.019C213.965 70.019 214.322 70.4062 214.322 71.0834V73.2862C214.322 73.964 213.965 74.3506 213.311 74.3506C212.658 74.3506 212.301 73.9634 212.301 73.2862V71.0834ZM212.966 73.3285C212.966 73.6312 213.1 73.7458 213.311 73.7458C213.523 73.7458 213.656 73.6312 213.656 73.3285V71.0411C213.656 70.7384 213.523 70.6238 213.311 70.6238C213.1 70.6238 212.966 70.7384 212.966 71.0411V73.3285Z" fill="#263238"/>
<path d="M212.301 77.1377C212.301 76.46 212.658 76.0728 213.311 76.0728C213.965 76.0728 214.322 76.46 214.322 77.1377V79.3406C214.322 80.0184 213.965 80.4056 213.311 80.4056C212.658 80.4056 212.301 80.0184 212.301 79.3406V77.1377ZM212.966 79.3828C212.966 79.6856 213.1 79.8001 213.311 79.8001C213.523 79.8001 213.656 79.6856 213.656 79.3828V77.0955C213.656 76.7928 213.523 76.6782 213.311 76.6782C213.1 76.6782 212.966 76.7928 212.966 77.0955V79.3828Z" fill="#263238"/>
<path d="M209.168 40.3303C209.683 40.3303 209.797 40.082 209.9 39.7979H210.347V44.0334H209.683V40.8027H209.168V40.3303Z" fill="#263238"/>
<path d="M208.701 46.868C208.701 46.1909 209.058 45.8037 209.712 45.8037C210.366 45.8037 210.722 46.1909 210.722 46.868V49.0709C210.722 49.748 210.366 50.1352 209.712 50.1352C209.058 50.1352 208.701 49.748 208.701 49.0709V46.868ZM209.367 49.1131C209.367 49.4159 209.501 49.5304 209.712 49.5304C209.924 49.5304 210.057 49.4159 210.057 49.1131V46.8258C210.057 46.5231 209.924 46.4085 209.712 46.4085C209.501 46.4085 209.367 46.5231 209.367 46.8258V49.1131Z" fill="#263238"/>
<path d="M208.701 52.9224C208.701 52.2453 209.058 51.8574 209.712 51.8574C210.366 51.8574 210.722 52.2446 210.722 52.9224V55.1253C210.722 55.803 210.366 56.1902 209.712 56.1902C209.058 56.1902 208.701 55.803 208.701 55.1253V52.9224ZM209.367 55.1675C209.367 55.4702 209.501 55.5848 209.712 55.5848C209.924 55.5848 210.057 55.4702 210.057 55.1675V52.8801C210.057 52.5774 209.924 52.4629 209.712 52.4629C209.501 52.4629 209.367 52.5774 209.367 52.8801V55.1675Z" fill="#263238"/>
<path d="M209.168 58.4924C209.683 58.4924 209.797 58.2441 209.9 57.96H210.347V62.1955H209.683V58.9648H209.168V58.4924Z" fill="#263238"/>
<path d="M209.168 70.6004C209.683 70.6004 209.797 70.352 209.9 70.0679H210.347V74.3034H209.683V71.0727H209.168V70.6004Z" fill="#263238"/>
<path d="M209.168 76.6541C209.683 76.6541 209.797 76.4057 209.9 76.1216H210.347V80.3571H209.683V77.1264H209.168V76.6541Z" fill="#263238"/>
<path d="M209.168 82.7078C209.683 82.7078 209.797 82.4595 209.9 82.1753H210.347V86.4108H209.683V83.1801H209.168V82.7078Z" fill="#263238"/>
<path d="M46.4668 101.793C46.4668 101.115 46.8239 100.728 47.4774 100.728C48.1308 100.728 48.4879 101.115 48.4879 101.793V103.995C48.4879 104.673 48.1314 105.06 47.4774 105.06C46.8239 105.06 46.4668 104.673 46.4668 103.995V101.793ZM47.1324 104.038C47.1324 104.34 47.2662 104.455 47.4774 104.455C47.6892 104.455 47.8223 104.34 47.8223 104.038V101.75C47.8223 101.448 47.6892 101.333 47.4774 101.333C47.2662 101.333 47.1324 101.448 47.1324 101.75V104.038Z" fill="#263238"/>
<path d="M46.4668 107.847C46.4668 107.17 46.8239 106.783 47.4774 106.783C48.1308 106.783 48.4879 107.17 48.4879 107.847V110.05C48.4879 110.728 48.1314 111.115 47.4774 111.115C46.8239 111.115 46.4668 110.728 46.4668 110.05V107.847ZM47.1324 110.092C47.1324 110.395 47.2662 110.509 47.4774 110.509C47.6892 110.509 47.8223 110.395 47.8223 110.092V107.805C47.8223 107.502 47.6892 107.388 47.4774 107.388C47.2662 107.388 47.1324 107.502 47.1324 107.805V110.092Z" fill="#263238"/>
<path d="M46.9336 113.417C47.4482 113.417 47.5627 113.168 47.6658 112.884H48.1138V117.12H47.4482V113.889H46.9336V113.417Z" fill="#263238"/>
<path d="M46.4668 119.954C46.4668 119.277 46.8239 118.89 47.4774 118.89C48.1308 118.89 48.4879 119.277 48.4879 119.954V122.157C48.4879 122.835 48.1314 123.222 47.4774 123.222C46.8239 123.222 46.4668 122.834 46.4668 122.157V119.954ZM47.1324 122.2C47.1324 122.502 47.2662 122.617 47.4774 122.617C47.6892 122.617 47.8223 122.502 47.8223 122.2V119.912C47.8223 119.609 47.6892 119.495 47.4774 119.495C47.2662 119.495 47.1324 119.609 47.1324 119.912V122.2Z" fill="#263238"/>
<path d="M46.9336 125.524C47.4482 125.524 47.5627 125.276 47.6658 124.992H48.1138V129.227H47.4482V125.996H46.9336V125.524Z" fill="#263238"/>
<path d="M46.4668 132.062C46.4668 131.385 46.8239 130.998 47.4774 130.998C48.1308 130.998 48.4879 131.385 48.4879 132.062V134.265C48.4879 134.943 48.1314 135.33 47.4774 135.33C46.8239 135.33 46.4668 134.942 46.4668 134.265V132.062ZM47.1324 134.307C47.1324 134.61 47.2662 134.725 47.4774 134.725C47.6892 134.725 47.8223 134.61 47.8223 134.307V132.02C47.8223 131.717 47.6892 131.603 47.4774 131.603C47.2662 131.603 47.1324 131.717 47.1324 132.02V134.307Z" fill="#263238"/>
<path d="M46.9336 137.633C47.4482 137.633 47.5627 137.384 47.6658 137.1H48.1138V141.336H47.4482V138.105H46.9336V137.633Z" fill="#263238"/>
<path d="M46.4668 144.17C46.4668 143.493 46.8239 143.106 47.4774 143.106C48.1308 143.106 48.4879 143.493 48.4879 144.17V146.373C48.4879 147.051 48.1314 147.437 47.4774 147.437C46.8239 147.437 46.4668 147.05 46.4668 146.373V144.17ZM47.1324 146.415C47.1324 146.718 47.2662 146.833 47.4774 146.833C47.6892 146.833 47.8223 146.718 47.8223 146.415V144.128C47.8223 143.825 47.6892 143.711 47.4774 143.711C47.2662 143.711 47.1324 143.825 47.1324 144.128V146.415Z" fill="#263238"/>
<path d="M46.4668 150.224C46.4668 149.546 46.8239 149.16 47.4774 149.16C48.1308 149.16 48.4879 149.547 48.4879 150.224V152.427C48.4879 153.104 48.1314 153.491 47.4774 153.491C46.8239 153.491 46.4668 153.104 46.4668 152.427V150.224ZM47.1324 152.469C47.1324 152.772 47.2662 152.886 47.4774 152.886C47.6892 152.886 47.8223 152.772 47.8223 152.469V150.182C47.8223 149.879 47.6892 149.764 47.4774 149.764C47.2662 149.764 47.1324 149.879 47.1324 150.182V152.469Z" fill="#263238"/>
<path d="M46.4668 156.278C46.4668 155.601 46.8239 155.213 47.4774 155.213C48.1308 155.213 48.4879 155.601 48.4879 156.278V158.481C48.4879 159.159 48.1314 159.546 47.4774 159.546C46.8239 159.546 46.4668 159.158 46.4668 158.481V156.278ZM47.1324 158.523C47.1324 158.826 47.2662 158.941 47.4774 158.941C47.6892 158.941 47.8223 158.826 47.8223 158.523V156.236C47.8223 155.933 47.6892 155.819 47.4774 155.819C47.2662 155.819 47.1324 155.933 47.1324 156.236V158.523Z" fill="#263238"/>
<path d="M46.9336 167.902C47.4482 167.902 47.5627 167.654 47.6658 167.37H48.1138V171.605H47.4482V168.374H46.9336V167.902Z" fill="#263238"/>
<path d="M50.5332 125.524C51.0478 125.524 51.1623 125.276 51.2654 124.992H51.7134V129.227H51.0478V125.996H50.5332V125.524Z" fill="#263238"/>
<path d="M50.5332 131.578C51.0478 131.578 51.1623 131.33 51.2654 131.046H51.7134V135.281H51.0478V132.051H50.5332V131.578Z" fill="#263238"/>
<path d="M50.0664 138.116C50.0664 137.438 50.4235 137.052 51.077 137.052C51.731 137.052 52.0875 137.439 52.0875 138.116V140.319C52.0875 140.996 51.731 141.383 51.077 141.383C50.4235 141.383 50.0664 140.996 50.0664 140.319V138.116ZM50.732 140.361C50.732 140.664 50.8658 140.778 51.077 140.778C51.2888 140.778 51.4219 140.664 51.4219 140.361V138.074C51.4219 137.771 51.2888 137.657 51.077 137.657C50.8658 137.657 50.732 137.771 50.732 138.074V140.361Z" fill="#263238"/>
<path d="M50.0664 144.17C50.0664 143.493 50.4235 143.105 51.077 143.105C51.731 143.105 52.0875 143.493 52.0875 144.17V146.373C52.0875 147.05 51.731 147.437 51.077 147.437C50.4235 147.437 50.0664 147.05 50.0664 146.373V144.17ZM50.732 146.415C50.732 146.718 50.8658 146.832 51.077 146.832C51.2888 146.832 51.4219 146.718 51.4219 146.415V144.128C51.4219 143.825 51.2888 143.71 51.077 143.71C50.8658 143.71 50.732 143.825 50.732 144.128V146.415Z" fill="#263238"/>
<path d="M50.5332 149.74C51.0478 149.74 51.1623 149.492 51.2654 149.208H51.7134V153.443H51.0478V150.212H50.5332V149.74Z" fill="#263238"/>
<path d="M50.5332 161.848C51.0478 161.848 51.1623 161.6 51.2654 161.315H51.7134V165.551H51.0478V162.32H50.5332V161.848Z" fill="#263238"/>
<path d="M42.8691 119.954C42.8691 119.277 43.2263 118.89 43.8797 118.89C44.5338 118.89 44.8903 119.277 44.8903 119.954V122.157C44.8903 122.835 44.5338 123.222 43.8797 123.222C43.2263 123.222 42.8691 122.834 42.8691 122.157V119.954ZM43.5347 122.2C43.5347 122.502 43.6685 122.617 43.8797 122.617C44.0915 122.617 44.2247 122.502 44.2247 122.2V119.912C44.2247 119.609 44.0915 119.495 43.8797 119.495C43.6685 119.495 43.5347 119.609 43.5347 119.912V122.2Z" fill="#263238"/>
<path d="M43.3359 125.524C43.8505 125.524 43.9651 125.276 44.0681 124.992H44.5161V129.227H43.8505V125.996H43.3359V125.524Z" fill="#263238"/>
<path d="M43.3359 131.579C43.8505 131.579 43.9651 131.331 44.0681 131.046H44.5161V135.282H43.8505V132.051H43.3359V131.579Z" fill="#263238"/>
<path d="M42.8691 138.117C42.8691 137.439 43.2263 137.052 43.8797 137.052C44.5338 137.052 44.8903 137.439 44.8903 138.117V140.319C44.8903 140.997 44.5338 141.384 43.8797 141.384C43.2263 141.384 42.8691 140.997 42.8691 140.319V138.117ZM43.5347 140.362C43.5347 140.664 43.6685 140.779 43.8797 140.779C44.0915 140.779 44.2247 140.664 44.2247 140.362V138.074C44.2247 137.772 44.0915 137.657 43.8797 137.657C43.6685 137.657 43.5347 137.772 43.5347 138.074V140.362Z" fill="#263238"/>
<path d="M43.3359 143.686C43.8505 143.686 43.9651 143.438 44.0681 143.154H44.5161V147.389H43.8505V144.159H43.3359V143.686Z" fill="#263238"/>
<path d="M42.8691 150.224C42.8691 149.546 43.2263 149.16 43.8797 149.16C44.5338 149.16 44.8903 149.547 44.8903 150.224V152.427C44.8903 153.104 44.5338 153.491 43.8797 153.491C43.2263 153.491 42.8691 153.104 42.8691 152.427V150.224ZM43.5347 152.469C43.5347 152.772 43.6685 152.886 43.8797 152.886C44.0915 152.886 44.2247 152.772 44.2247 152.469V150.182C44.2247 149.879 44.0915 149.764 43.8797 149.764C43.6685 149.764 43.5347 149.879 43.5347 150.182V152.469Z" fill="#263238"/>
<path d="M39.2695 107.847C39.2695 107.169 39.6267 106.783 40.2801 106.783C40.9335 106.783 41.2906 107.17 41.2906 107.847V110.05C41.2906 110.727 40.9342 111.114 40.2801 111.114C39.6267 111.114 39.2695 110.727 39.2695 110.05V107.847ZM39.9351 110.092C39.9351 110.395 40.0689 110.509 40.2801 110.509C40.4919 110.509 40.6251 110.395 40.6251 110.092V107.805C40.6251 107.502 40.4919 107.388 40.2801 107.388C40.0689 107.388 39.9351 107.502 39.9351 107.805V110.092Z" fill="#263238"/>
<path d="M39.7363 119.471C40.2509 119.471 40.3654 119.223 40.4685 118.939H40.9165V123.174H40.2509V119.944H39.7363V119.471Z" fill="#263238"/>
<path d="M39.2695 126.009C39.2695 125.331 39.6267 124.944 40.2801 124.944C40.9335 124.944 41.2906 125.331 41.2906 126.009V128.212C41.2906 128.889 40.9342 129.276 40.2801 129.276C39.6267 129.276 39.2695 128.889 39.2695 128.212V126.009ZM39.9351 128.254C39.9351 128.557 40.0689 128.671 40.2801 128.671C40.4919 128.671 40.6251 128.557 40.6251 128.254V125.967C40.6251 125.664 40.4919 125.549 40.2801 125.549C40.0689 125.549 39.9351 125.664 39.9351 125.967V128.254Z" fill="#263238"/>
<path d="M39.2695 138.117C39.2695 137.44 39.6267 137.052 40.2801 137.052C40.9335 137.052 41.2906 137.439 41.2906 138.117V140.32C41.2906 140.998 40.9342 141.385 40.2801 141.385C39.6267 141.385 39.2695 140.998 39.2695 140.32V138.117ZM39.9351 140.362C39.9351 140.665 40.0689 140.78 40.2801 140.78C40.4919 140.78 40.6251 140.665 40.6251 140.362V138.075C40.6251 137.772 40.4919 137.658 40.2801 137.658C40.0689 137.658 39.9351 137.772 39.9351 138.075V140.362Z" fill="#263238"/>
<path d="M39.2695 144.171C39.2695 143.493 39.6267 143.106 40.2801 143.106C40.9335 143.106 41.2906 143.493 41.2906 144.171V146.374C41.2906 147.051 40.9342 147.438 40.2801 147.438C39.6267 147.438 39.2695 147.051 39.2695 146.374V144.171ZM39.9351 146.416C39.9351 146.719 40.0689 146.833 40.2801 146.833C40.4919 146.833 40.6251 146.719 40.6251 146.416V144.129C40.6251 143.826 40.4919 143.711 40.2801 143.711C40.0689 143.711 39.9351 143.826 39.9351 144.129V146.416Z" fill="#263238"/>
<path d="M39.2695 150.225C39.2695 149.547 39.6267 149.16 40.2801 149.16C40.9335 149.16 41.2906 149.547 41.2906 150.225V152.428C41.2906 153.105 40.9342 153.492 40.2801 153.492C39.6267 153.492 39.2695 153.105 39.2695 152.428V150.225ZM39.9351 152.47C39.9351 152.772 40.0689 152.887 40.2801 152.887C40.4919 152.887 40.6251 152.772 40.6251 152.47V150.182C40.6251 149.88 40.4919 149.765 40.2801 149.765C40.0689 149.765 39.9351 149.88 39.9351 150.182V152.47Z" fill="#263238"/>
<path d="M39.7363 167.903C40.2509 167.903 40.3654 167.654 40.4685 167.37H40.9165V171.606H40.2509V168.375H39.7363V167.903Z" fill="#263238"/>
<path d="M242.499 164.241C223.614 156.595 222.24 130.291 222.24 130.291H226.286V127.151C235.875 127.151 242.499 121.198 242.499 121.198C242.499 121.198 249.124 127.151 258.713 127.151V130.291H262.759C262.759 130.291 261.385 156.595 242.499 164.241Z" stroke="#263238" stroke-miterlimit="10" stroke-linecap="round" stroke-linejoin="round"/>
<path d="M242.503 160.768C230.129 154.971 226.542 139.632 225.555 133.008H229.251V129.701C235.314 129.017 240.008 126.386 242.503 124.672C244.998 126.386 249.693 129.017 255.756 129.701V133.008H259.445C258.446 139.635 254.835 154.986 242.503 160.768Z" stroke="#263238" stroke-miterlimit="10" stroke-linecap="round" stroke-linejoin="round"/>
<path d="M249.087 148.595H235.912C235.435 148.595 235.047 148.208 235.047 147.73V139.882C235.047 139.404 235.434 139.017 235.912 139.017H249.087C249.564 139.017 249.952 139.404 249.952 139.882V147.73C249.951 148.208 249.564 148.595 249.087 148.595Z" fill="#263238"/>
<path d="M242.768 130.93C239.693 130.778 237.143 133.237 237.143 136.279V136.837C237.143 137.044 237.311 137.212 237.518 137.212H238.872C239.08 137.212 239.248 137.044 239.248 136.837V136.394C239.248 134.664 240.55 133.152 242.275 133.036C244.168 132.909 245.749 134.413 245.749 136.279V136.837C245.749 137.044 245.917 137.212 246.124 137.212H247.479C247.686 137.212 247.854 137.044 247.854 136.837V136.435C247.854 133.554 245.645 131.072 242.768 130.93Z" fill="#263238"/>
<path d="M243.899 142.73C243.899 141.957 243.272 141.33 242.499 141.33C241.726 141.33 241.1 141.957 241.1 142.73C241.1 143.283 241.424 143.758 241.891 143.985L241.381 146.235H243.617L243.108 143.985C243.574 143.758 243.899 143.283 243.899 142.73Z" fill="white" stroke="#263238" stroke-miterlimit="10" stroke-linecap="round" stroke-linejoin="round"/>
<path d="M182.613 73.2642H137.387C136.213 73.2642 135.262 72.3125 135.262 71.1394V45.8523C135.262 44.6786 136.213 43.7275 137.387 43.7275H182.613C183.787 43.7275 184.738 44.6792 184.738 45.8523V71.1394C184.739 72.3131 183.787 73.2642 182.613 73.2642Z" stroke="#263238" stroke-miterlimit="10" stroke-linecap="round" stroke-linejoin="round"/>
<path d="M139.937 69.1344H154.114C154.521 69.1344 154.85 68.8048 154.85 68.3984V48.5929C154.85 48.1865 154.521 47.8569 154.114 47.8569H139.937C139.531 47.8569 139.201 48.1865 139.201 48.5929V68.3984C139.201 68.8048 139.531 69.1344 139.937 69.1344Z" stroke="#263238" stroke-miterlimit="10" stroke-linecap="round" stroke-linejoin="round"/>
<path d="M147.026 69.1346H139.907C139.517 69.1346 139.201 68.8184 139.201 68.4287V63.5154C139.201 63.5154 143.198 63.34 143.869 62.4908C144.541 61.6408 143.798 60.3128 143.798 60.3128C143.556 60.0095 143.495 57.8783 143.495 57.8783C143.495 57.8783 143.495 57.8783 143.256 57.8175C143.017 57.7567 142.706 55.9903 142.706 55.3228C142.706 54.6552 143.256 54.4127 143.256 54.4127C143.256 54.4127 142.652 50.0972 147.026 50.0972C151.401 50.0972 150.797 54.4127 150.797 54.4127C150.797 54.4127 151.346 54.6552 151.346 55.3228C151.346 55.9903 151.035 57.7573 150.797 57.8175C150.558 57.8783 150.558 57.8783 150.558 57.8783C150.558 57.8783 150.497 60.0088 150.255 60.3128C150.255 60.3128 149.512 61.6415 150.184 62.4908C150.855 63.34 154.852 63.5154 154.852 63.5154V68.4287C154.852 68.8184 154.536 69.1346 154.146 69.1346H147.026Z" fill="#263238"/>
<path d="M179.779 69.2363H170.059C169.65 69.2363 169.318 68.9048 169.318 68.4959C169.318 68.0869 169.65 67.7554 170.059 67.7554H179.779C180.187 67.7554 180.519 68.0869 180.519 68.4959C180.519 68.9048 180.187 69.2363 179.779 69.2363Z" fill="#263238"/>
<path d="M179.777 49.2358H159.625C159.216 49.2358 158.885 48.9043 158.885 48.4954C158.885 48.0864 159.216 47.7549 159.625 47.7549H179.777C180.186 47.7549 180.517 48.0864 180.517 48.4954C180.517 48.9043 180.186 49.2358 179.777 49.2358Z" fill="#263238"/>
<path d="M171.186 54.2354H159.625C159.216 54.2354 158.885 53.9038 158.885 53.4949C158.885 53.0859 159.216 52.7544 159.625 52.7544H171.186C171.595 52.7544 171.926 53.0859 171.926 53.4949C171.926 53.9038 171.595 54.2354 171.186 54.2354Z" fill="#263238"/>
<path d="M167.504 59.2358H159.625C159.216 59.2358 158.885 58.9043 158.885 58.4954C158.885 58.0864 159.216 57.7549 159.625 57.7549H167.504C167.913 57.7549 168.245 58.0864 168.245 58.4954C168.245 58.9043 167.913 59.2358 167.504 59.2358Z" fill="#263238"/>
<path d="M171.186 64.2363H159.625C159.216 64.2363 158.885 63.9048 158.885 63.4958C158.885 63.0869 159.216 62.7554 159.625 62.7554H171.186C171.595 62.7554 171.926 63.0869 171.926 63.4958C171.926 63.9048 171.595 64.2363 171.186 64.2363Z" fill="#263238"/>
<path d="M88.7596 122.375V150.813L81.1071 158.465H60.7852V122.375H88.7596Z" stroke="#263238" stroke-miterlimit="10" stroke-linecap="round" stroke-linejoin="round"/>
<path d="M88.7599 150.813L81.1074 158.465V150.813H88.7599Z" fill="#263238" stroke="#263238" stroke-miterlimit="10" stroke-linecap="round" stroke-linejoin="round"/>
<path d="M67.5996 126.977H84.4879" stroke="#263238" stroke-miterlimit="10" stroke-linecap="round" stroke-linejoin="round"/>
<path d="M65.0586 130.155H84.4871" stroke="#263238" stroke-miterlimit="10" stroke-linecap="round" stroke-linejoin="round"/>
<path d="M65.0586 133.333H84.4871" stroke="#263238" stroke-miterlimit="10" stroke-linecap="round" stroke-linejoin="round"/>
<path d="M65.0586 136.511H84.4871" stroke="#263238" stroke-miterlimit="10" stroke-linecap="round" stroke-linejoin="round"/>
<path d="M65.0586 139.69H84.4871" stroke="#263238" stroke-miterlimit="10" stroke-linecap="round" stroke-linejoin="round"/>
<path d="M65.0586 142.868H84.4871" stroke="#263238" stroke-miterlimit="10" stroke-linecap="round" stroke-linejoin="round"/>
<path d="M65.0586 146.047H84.4871" stroke="#263238" stroke-miterlimit="10" stroke-linecap="round" stroke-linejoin="round"/>
<path d="M65.0586 149.225H81.9469" stroke="#263238" stroke-miterlimit="10" stroke-linecap="round" stroke-linejoin="round"/>
<path d="M90.0913 126.975H93.3592V155.412L85.7067 163.065H65.3848V159.702" stroke="#263238" stroke-miterlimit="10" stroke-linecap="round" stroke-linejoin="round"/>
<path d="M93.3595 155.413L85.707 163.065V155.413H93.3595Z" fill="#263238" stroke="#263238" stroke-miterlimit="10" stroke-linecap="round" stroke-linejoin="round"/>
<path d="M193.6 182.84H126.399C124.9 182.84 123.686 181.626 123.686 180.127V105.312C123.686 103.814 124.9 102.599 126.399 102.599H193.599C195.097 102.599 196.312 103.814 196.312 105.312V180.128C196.312 181.626 195.097 182.84 193.6 182.84Z" fill="#92E3A9" stroke="#263238" stroke-miterlimit="10" stroke-linecap="round" stroke-linejoin="round"/>
<g opacity="0.5">
<path d="M194.848 129.349H125.148" stroke="white" stroke-miterlimit="10" stroke-linecap="round" stroke-linejoin="round"/>
<path d="M194.848 138.263H125.148" stroke="white" stroke-miterlimit="10" stroke-linecap="round" stroke-linejoin="round"/>
<path d="M194.848 147.177H125.148" stroke="white" stroke-miterlimit="10" stroke-linecap="round" stroke-linejoin="round"/>
<path d="M194.848 156.092H125.148" stroke="white" stroke-miterlimit="10" stroke-linecap="round" stroke-linejoin="round"/>
<path d="M194.848 165.006H125.148" stroke="white" stroke-miterlimit="10" stroke-linecap="round" stroke-linejoin="round"/>
<path d="M194.848 173.921H125.148" stroke="white" stroke-miterlimit="10" stroke-linecap="round" stroke-linejoin="round"/>
<path d="M194.848 120.434H125.148" stroke="white" stroke-miterlimit="10" stroke-linecap="round" stroke-linejoin="round"/>
<path d="M194.848 111.52H125.148" stroke="white" stroke-miterlimit="10" stroke-linecap="round" stroke-linejoin="round"/>
<path d="M178.193 181.41V104.03" stroke="white" stroke-miterlimit="10" stroke-linecap="round" stroke-linejoin="round"/>
<path d="M169.096 181.41V104.03" stroke="white" stroke-miterlimit="10" stroke-linecap="round" stroke-linejoin="round"/>
<path d="M159.998 181.41V104.03" stroke="white" stroke-miterlimit="10" stroke-linecap="round" stroke-linejoin="round"/>
<path d="M150.9 181.41V104.03" stroke="white" stroke-miterlimit="10" stroke-linecap="round" stroke-linejoin="round"/>
<path d="M141.803 181.41V104.03" stroke="white" stroke-miterlimit="10" stroke-linecap="round" stroke-linejoin="round"/>
<path d="M132.705 181.41V104.03" stroke="white" stroke-miterlimit="10" stroke-linecap="round" stroke-linejoin="round"/>
<path d="M187.291 181.41V104.03" stroke="white" stroke-miterlimit="10" stroke-linecap="round" stroke-linejoin="round"/>
</g>
<path d="M157.479 167.165C158.365 162.729 159.386 158.959 160.661 155.309C160.938 154.53 161.242 153.743 161.575 152.907C162.369 150.88 163.992 146.748 163.382 145.515C163.241 145.239 162.964 145.047 162.702 145.047C162.645 145.047 162.61 145.054 162.539 145.111C160.732 146.585 159.57 150.674 158.726 153.658L158.443 154.664C157.309 158.59 156.565 162.743 156.076 166.903" stroke="#263238" stroke-miterlimit="10" stroke-linecap="round" stroke-linejoin="round"/>
<path d="M160.129 167.342C160.98 163.182 161.944 159.618 163.155 156.181C163.411 155.436 163.715 154.657 164.041 153.835C165.303 150.618 166.876 146.628 165.742 144.346C165.154 143.17 163.964 142.411 162.702 142.411C162.022 142.411 161.406 142.631 160.867 143.07C158.422 145.069 157.182 149.434 156.19 152.935L155.906 153.934C154.772 157.845 154.014 161.963 153.518 166.073" stroke="#263238" stroke-miterlimit="10" stroke-linecap="round" stroke-linejoin="round"/>
<path d="M162.874 167.094C163.596 163.693 164.475 160.376 165.644 157.053C167.019 153.127 170.116 147.217 168.103 143.17C166.459 139.861 162.143 138.627 159.203 141.03C155.836 143.772 154.504 149.272 153.37 153.205C152.286 156.96 151.535 160.865 151.018 164.763" stroke="#263238" stroke-miterlimit="10" stroke-linecap="round" stroke-linejoin="round"/>
<path d="M165.75 166.301C166.437 163.261 167.21 160.547 168.131 157.925C168.357 157.273 168.648 156.543 168.953 155.763C170.597 151.582 172.638 146.374 170.462 141.995C168.996 139.047 165.948 137.14 162.702 137.14C160.803 137.14 159.017 137.778 157.536 138.983C153.802 142.03 152.313 147.281 151.116 151.497L150.839 152.475C149.854 155.877 149.139 159.399 148.621 162.928" stroke="#263238" stroke-miterlimit="10" stroke-linecap="round" stroke-linejoin="round"/>
<path d="M168.826 164.777C169.364 162.665 169.953 160.702 170.618 158.797C170.838 158.18 171.107 157.478 171.398 156.742C173.141 152.305 175.522 146.246 172.822 140.825C170.916 136.984 166.941 134.503 162.703 134.503C160.187 134.503 157.827 135.347 155.871 136.941C151.492 140.513 149.876 146.203 148.579 150.781L148.303 151.752C147.48 154.601 146.836 157.527 146.34 160.461" stroke="#263238" stroke-miterlimit="10" stroke-linecap="round" stroke-linejoin="round"/>
<path d="M172 162.205C172.607 157.976 175.987 152.956 176.323 147.089C176.63 141.714 174.858 138.271 173.608 136.542C172.988 135.685 172.879 134.579 173.237 133.584C173.803 132.013 174.284 129.374 173.155 126" stroke="#263238" stroke-miterlimit="10" stroke-linecap="round" stroke-linejoin="round"/>
<path d="M163.985 118.098C168.439 120.884 171.342 125.272 171.552 130.914C171.628 132.946 169.975 133.648 167.907 133.017C163.576 131.695 153.259 128.321 146.97 146.005C145.697 149.584 144.957 153.46 144.312 157.258" stroke="#263238" stroke-miterlimit="10" stroke-linecap="round" stroke-linejoin="round"/>
<path d="M155.127 118.389C156.197 118.403 159.637 118.389 163.123 120.261C167.345 122.529 170.007 127.869 168.643 129.232C167.137 130.738 164.333 127.094 155.765 130.608C151.638 132.301 148.717 135.736 146.727 139.642C145.82 141.422 145.087 143.287 144.461 145.182C143.66 147.606 143.022 150.115 142.498 152.638" stroke="#263238" stroke-miterlimit="10" stroke-linecap="round" stroke-linejoin="round"/>
<path d="M150.272 121.648C152.037 121.166 153.632 121.053 154.914 121.025C162.476 120.856 165.315 124.886 164.482 125.912C163.783 126.772 162.231 126.288 160.096 126.55C153.94 127.304 149.075 130.806 145.795 135.985C144.146 138.588 142.932 141.437 141.96 144.354C141.783 144.885 141.62 145.417 141.457 145.948" stroke="#263238" stroke-miterlimit="10" stroke-linecap="round" stroke-linejoin="round"/>
<path d="M146.704 126C150.106 123.345 153.288 122.993 155.642 123.038C156.603 123.056 158.968 123.35 159.288 124.256C159.708 125.448 155.862 123.83 150.282 127.55C143.133 132.316 142.266 136.834 142.266 136.834" stroke="#263238" stroke-miterlimit="10" stroke-linecap="round" stroke-linejoin="round"/>
<path d="M175.035 159.001C175.035 159.001 178.91 150.628 178.515 144.155C178.261 139.987 176.204 137.373 175.879 135.516C175.553 133.66 176.455 133.178 176.212 131.505" stroke="#263238" stroke-miterlimit="10" stroke-linecap="round" stroke-linejoin="round"/>
<path d="M128.574 119.579V107.752H140.401" stroke="#263238" stroke-miterlimit="10" stroke-linecap="round" stroke-linejoin="round"/>
<path d="M140.401 177.688H128.574V165.862" stroke="#263238" stroke-miterlimit="10" stroke-linecap="round" stroke-linejoin="round"/>
<path d="M191.425 119.579V107.752H179.598" stroke="#263238" stroke-miterlimit="10" stroke-linecap="round" stroke-linejoin="round"/>
<path d="M179.598 177.688H191.425V165.862" stroke="#263238" stroke-miterlimit="10" stroke-linecap="round" stroke-linejoin="round"/>
<path d="M241.662 286.439C238.574 281.826 235.338 276.936 232.678 272.898C232.672 272.892 232.667 272.887 232.667 272.881C229.271 267.727 226.821 263.969 226.821 263.969C225.519 257.882 223.673 255.491 221.821 250.492C219.975 245.492 221.497 241.036 222.261 234.844C223.02 228.646 221.822 222.888 221.173 218.976C220.519 215.064 221.283 211.367 221.173 210.498C221.063 209.63 217.366 205.064 215.953 201.696C215.322 200.185 214.41 198.784 213.333 197.603C212.014 196.147 210.453 195.015 208.893 194.416C208.09 194.108 207.36 193.932 206.684 193.839C204.959 193.592 203.553 193.872 202.152 193.872C200.196 193.872 196.069 190.504 193.35 189.966C192.844 189.866 192.339 189.795 191.822 189.751H191.8C189.553 189.543 187.196 189.779 184.548 189.96C181.944 190.13 178.862 187.679 176.399 186.899C176.389 186.894 176.372 186.888 176.355 186.883C175.745 186.696 175.174 186.608 174.657 186.696C172.047 187.13 167.158 187.564 167.158 187.564C167.158 187.564 166.724 184.195 166.504 179.63C166.465 178.839 166.41 178.074 166.339 177.327V177.311C166.086 174.492 165.679 171.971 165.614 169.668C165.592 169.064 165.597 168.471 165.635 167.893C165.85 164.641 165.75 162.091 165.646 157.119C165.64 156.949 165.64 156.773 165.635 156.591C165.603 155.036 165.619 153.553 165.542 152.207C165.542 152.201 165.536 152.201 165.536 152.201C165.355 148.949 164.635 146.547 161.399 146.047C158.57 145.614 156.613 147.025 155.422 151.701C154.223 156.377 153.356 156.047 153.032 162.894C152.702 169.74 151.18 174.091 151.4 177.569C151.614 181.047 150.856 187.783 150.856 187.783C149.553 187.128 148.356 187.672 148.131 188.216C147.905 188.76 146.944 194.085 146.18 197.892C145.504 201.271 142.428 204.398 141.29 206.727C141.279 206.744 141.273 206.766 141.262 206.782C141.136 207.052 141.031 207.315 140.965 207.562C140.311 209.952 140.641 215.062 140.641 221.584C140.641 228.101 139.009 234.842 140.641 239.188C140.965 240.051 141.46 240.853 142.081 241.622C144.581 244.715 149.174 247.38 153.355 252.336C158.569 258.534 162.267 263.1 165.745 265.166C168.234 266.638 169.327 267.836 169.783 269.423C169.789 269.434 169.789 269.44 169.789 269.44C169.97 270.067 170.047 270.759 170.074 271.544C170.118 272.929 170.871 273.989 172.14 275.748C173.426 277.528 175.239 280.023 177.371 284.291C178.764 287.078 180.898 292.385 183.135 298.252L241.662 286.439Z" fill="white"/>
<path opacity="0.4" d="M165.636 167.895C165.598 168.472 165.592 169.066 165.614 169.67C161.461 168.884 153.439 170.934 153.318 173.384C153.175 176.372 152.812 183.438 154.334 185.081C155.856 186.724 159.115 187.784 159.115 187.784C158.868 187.801 158.631 187.834 158.4 187.878C158.395 187.878 158.389 187.884 158.389 187.884C158.362 187.889 158.334 187.894 158.313 187.9C157.225 188.131 156.324 188.669 155.593 189.428L155.587 189.434C152.411 192.692 152.274 199.917 153.318 203.395C157.669 217.839 150.62 229.279 148.132 227.894C145.643 226.515 145.423 214.086 146.181 211.174C146.944 208.262 146.846 205.949 146.846 205.949C145.736 205.581 143.406 206.12 141.264 206.785C141.275 206.768 141.28 206.746 141.291 206.73C142.428 204.4 145.506 201.274 146.181 197.894C146.945 194.087 147.907 188.763 148.132 188.219C148.357 187.675 149.555 187.131 150.857 187.785C150.857 187.785 151.616 181.049 151.401 177.571C151.182 174.093 152.704 169.742 153.033 162.896C153.357 156.05 154.226 156.38 155.423 151.704C156.615 147.028 158.571 145.616 161.401 146.05C164.637 146.55 165.356 148.951 165.538 152.204C165.175 151.868 164.779 151.539 164.356 151.247C163.29 150.511 162.048 150 160.757 150.182C159.257 150.39 157.945 151.891 157.115 153.489V153.495C155.916 155.792 155.719 158.286 157.406 157.44C159.312 156.484 163.246 156.803 165.647 157.121C165.751 162.093 165.851 164.643 165.636 167.895Z" fill="#92E3A9"/>
<path opacity="0.4" d="M170.076 271.546C170.048 270.76 169.971 270.068 169.79 269.442C169.79 269.442 169.79 269.436 169.784 269.425C169.328 267.837 168.235 266.639 165.746 265.167C162.268 263.101 158.57 258.536 153.356 252.338C149.175 247.382 144.582 244.717 142.082 241.624C145.23 243.332 149.505 242.453 150.856 245.151C152.812 249.047 162.015 254.948 162.015 254.948C170.999 263.86 170.076 271.546 170.076 271.546Z" fill="#92E3A9"/>
<path opacity="0.4" d="M176.355 186.884C175.3 186.669 172.432 193.735 172.157 196.246C171.437 202.746 174.772 222.795 170.482 222.344C168.707 222.157 166.63 212.795 166.504 208.432C166.119 195.175 166.652 189.67 166.652 189.67C166.652 189.67 165.702 182.329 166.339 177.329C166.411 178.077 166.466 178.84 166.504 179.631C166.724 184.197 167.158 187.565 167.158 187.565C167.158 187.565 172.049 187.131 174.658 186.697C175.174 186.609 175.745 186.697 176.355 186.884Z" fill="#92E3A9"/>
<path opacity="0.4" d="M191.799 189.752C189.486 189.96 187.162 192.224 185.272 192.631C182.953 193.126 178.712 187.917 176.398 186.9C178.86 187.681 181.942 190.131 184.547 189.961C187.195 189.779 189.552 189.543 191.799 189.752Z" fill="#92E3A9"/>
<path opacity="0.4" d="M206.685 193.84C205.849 194.741 204.322 197.39 203.954 198.587C202.091 204.604 203.849 227.372 200.85 223.647C196.938 218.801 201.02 201.999 198.174 195.582C197.267 193.527 194.053 190.247 193.35 189.966C196.07 190.505 200.196 193.873 202.152 193.873C203.553 193.873 204.959 193.593 206.685 193.84Z" fill="#92E3A9"/>
<path opacity="0.4" d="M232.667 272.881C229.623 269.447 226.431 266.178 224.343 264.947C219.261 261.958 217.805 258.859 217.365 253.695C216.931 248.525 218.239 248.645 219.76 243.541C221.282 238.431 218.453 232.123 218.672 233.487C218.887 234.849 216.496 244.299 214.733 244.767C212.964 245.228 212.37 238.866 212.151 233.673C211.931 228.481 214.761 204.306 213.97 199.581C213.844 198.818 213.624 198.164 213.332 197.603C214.409 198.784 215.321 200.185 215.953 201.696C217.365 205.065 221.063 209.631 221.173 210.498C221.283 211.367 220.519 215.064 221.173 218.976C221.821 222.888 223.019 228.646 222.261 234.844C221.497 241.036 219.975 245.492 221.821 250.492C223.673 255.492 225.519 257.882 226.821 263.97C226.821 263.97 229.271 267.728 232.667 272.881Z" fill="#92E3A9"/>
<path opacity="0.4" d="M186.793 202.616C187.949 203.831 188.677 219.737 189.329 223.649C189.981 227.562 187.952 236.926 186.793 234.092C185.634 231.257 182.084 197.668 186.793 202.616Z" fill="#92E3A9"/>
<path d="M182.279 296.025C180.362 291.065 178.585 286.722 177.371 284.293C175.239 280.024 173.426 277.53 172.14 275.749C170.871 273.991 170.118 272.931 170.074 271.546C170.047 270.76 169.97 270.068 169.789 269.442C169.789 269.442 169.789 269.436 169.783 269.425C169.327 267.837 168.234 266.639 165.745 265.167C162.267 263.101 158.569 258.535 153.355 252.338C149.174 247.381 144.581 244.717 142.081 241.623C141.46 240.854 140.965 240.052 140.641 239.189C139.009 234.843 140.641 228.102 140.641 221.586C140.641 215.064 140.312 209.954 140.965 207.564C141.031 207.317 141.135 207.053 141.262 206.784C141.273 206.767 141.279 206.745 141.29 206.729C142.427 204.399 145.504 201.273 146.18 197.893C146.943 194.086 147.905 188.762 148.131 188.218C148.356 187.674 149.553 187.13 150.856 187.784C150.856 187.784 151.614 181.048 151.4 177.57C151.18 174.092 152.702 169.741 153.032 162.895C153.356 156.049 154.224 156.379 155.422 151.703C156.614 147.027 158.57 145.615 161.399 146.049C164.636 146.549 165.355 148.95 165.536 152.203C165.536 152.203 165.542 152.203 165.542 152.208C165.619 153.554 165.602 155.038 165.635 156.593C165.641 156.774 165.641 156.95 165.646 157.12C165.75 162.092 165.85 164.642 165.635 167.895C165.597 168.471 165.591 169.065 165.614 169.669C165.679 171.972 166.086 174.494 166.339 177.312V177.329C166.41 178.076 166.465 178.84 166.504 179.631C166.723 184.197 167.158 187.565 167.158 187.565C167.158 187.565 172.048 187.131 174.657 186.697C175.174 186.61 175.745 186.697 176.355 186.884C176.372 186.89 176.389 186.895 176.399 186.901C178.861 187.681 181.943 190.132 184.548 189.961C187.196 189.78 189.553 189.544 191.8 189.753H191.822C192.339 189.797 192.844 189.868 193.35 189.967C196.07 190.505 200.196 193.874 202.152 193.874C203.553 193.874 204.959 193.593 206.684 193.841C207.36 193.934 208.091 194.11 208.893 194.418C210.453 195.017 212.014 196.148 213.333 197.604C214.41 198.786 215.322 200.187 215.953 201.698C217.365 205.066 221.063 209.632 221.173 210.5C221.283 211.368 220.519 215.065 221.173 218.978C221.822 222.889 223.019 228.647 222.261 234.845C221.498 241.037 219.976 245.493 221.822 250.493C223.673 255.493 225.519 257.883 226.821 263.971C226.821 263.971 229.272 267.729 232.667 272.883C232.667 272.889 232.673 272.894 232.678 272.9C235.036 276.48 237.848 280.731 240.609 284.864" stroke="#263238" stroke-miterlimit="10" stroke-linecap="round" stroke-linejoin="round"/>
<path d="M150.855 187.785C150.855 192.567 150.421 198.508 149.696 200.972C148.972 203.435 149.463 211.695 148.131 215.173" stroke="#263238" stroke-miterlimit="10" stroke-linecap="round" stroke-linejoin="round"/>
<path d="M153.318 191.553C153.318 191.553 156.651 187.785 159.115 187.785C161.578 187.785 164.042 189.379 166.65 189.669C169.259 189.958 171.973 188.03 174.475 187.569" stroke="#263238" stroke-miterlimit="10" stroke-linecap="round" stroke-linejoin="round"/>
<path d="M155.201 174.115C155.201 174.115 159.693 172.473 162.012 174.115" stroke="#263238" stroke-miterlimit="10" stroke-linecap="round" stroke-linejoin="round"/>
<path d="M158.607 171.991C158.607 171.991 159.984 171.618 162.013 172.601" stroke="#263238" stroke-miterlimit="10" stroke-linecap="round" stroke-linejoin="round"/>
<path d="M157.406 160.398C157.406 160.398 159.694 159.818 162.013 160.398" stroke="#263238" stroke-miterlimit="10" stroke-linecap="round" stroke-linejoin="round"/>
<path d="M141.291 206.728C141.291 206.728 144.189 205.319 145.349 205.174" stroke="#263238" stroke-miterlimit="10" stroke-linecap="round" stroke-linejoin="round"/>
<path d="M148.906 211.175C148.906 211.175 147.182 213.868 146.846 215.173" stroke="#263238" stroke-miterlimit="10" stroke-linecap="round" stroke-linejoin="round"/>
<path d="M157.406 148.661C157.406 148.661 156.712 154.194 157.406 154.688C158.1 155.181 163.462 155.643 163.896 154.688C164.331 153.732 164.413 149.675 164.413 149.675C164.413 149.675 161.204 144.168 157.406 148.661Z" stroke="#263238" stroke-miterlimit="10" stroke-linecap="round" stroke-linejoin="round"/>
<path d="M146.182 197.893C146.182 197.893 150.625 195.652 150.733 192.444C150.841 189.237 149.531 189.269 147.875 189.251" stroke="#263238" stroke-miterlimit="10" stroke-linecap="round" stroke-linejoin="round"/>
<path d="M215.482 205.174C215.627 210.246 214.178 225.026 214.033 227.199C213.888 229.373 214.033 234.929 214.033 234.929" stroke="#263238" stroke-miterlimit="10" stroke-linecap="round" stroke-linejoin="round"/>
<path d="M183.748 193.572C188.53 200.537 183.748 197.892 186.791 231.112" stroke="#263238" stroke-miterlimit="10" stroke-linecap="round" stroke-linejoin="round"/>
<path d="M226.823 263.969C226.823 263.969 222.584 260.673 221.859 258.789" stroke="#263238" stroke-miterlimit="10" stroke-linecap="round" stroke-linejoin="round"/>
<path d="M167.662 262.409C168.931 264.519 169.739 269.14 169.783 269.425C169.789 269.436 169.789 269.442 169.789 269.442" stroke="#263238" stroke-miterlimit="10" stroke-linecap="round" stroke-linejoin="round"/>
</svg>
