<svg width="283" height="283" viewBox="0 0 283 283" fill="none" xmlns="http://www.w3.org/2000/svg">
<path opacity="0.7" d="M38.4507 94.5707C38.4507 94.5707 22.6723 135.316 44.8448 176.359C67.0172 217.403 112.696 239.073 149.254 257.608C185.812 276.142 223.774 267.116 241.814 236.757C259.855 206.399 235.11 184.726 235.081 141.433C235.052 98.1393 241.56 86.6767 218.122 50.1006C194.684 13.524 137.15 5.4291 93.6583 32.5569C50.1669 59.6847 38.4507 94.5707 38.4507 94.5707Z" fill="white"/>
<path d="M43.6201 94.2138C59.9345 64.179 100.968 29.1221 157.265 43.7249C213.562 58.3277 251.596 89.2199 245.363 142.969C239.131 196.718 206.381 241.373 135.832 242.68C65.2832 243.988 7.85005 160.067 43.6201 94.2138Z" fill="#92E3A9"/>
<path opacity="0.7" d="M43.6201 94.2138C59.9345 64.179 100.968 29.1221 157.265 43.7249C213.562 58.3277 251.596 89.2199 245.363 142.969C239.131 196.718 206.381 241.373 135.832 242.68C65.2832 243.988 7.85005 160.067 43.6201 94.2138Z" fill="white"/>
<path d="M252.781 162.266L216.071 167.949C214.668 168.167 213.354 167.205 213.137 165.802L209.675 143.444C209.458 142.041 210.419 140.728 211.823 140.51L248.532 134.827C249.935 134.61 251.249 135.571 251.466 136.974L254.928 159.332C255.145 160.735 254.184 162.049 252.781 162.266Z" stroke="#263238" stroke-miterlimit="10" stroke-linecap="round" stroke-linejoin="round"/>
<path d="M210.234 147.055L252.026 140.584" stroke="#263238" stroke-miterlimit="10" stroke-linecap="round" stroke-linejoin="round"/>
<path d="M248.751 147.914L242.002 148.959L243.507 158.68L250.256 157.635L248.751 147.914Z" stroke="#263238" stroke-miterlimit="10" stroke-linecap="round" stroke-linejoin="round"/>
<path d="M244.749 150.576C246.175 148.896 248.515 150.02 247.969 155.275L250.056 156.311L250.261 157.639L243.512 158.684L243.238 156.914L245.784 155.92C245.784 155.92 243.408 152.157 244.749 150.576Z" stroke="#263238" stroke-miterlimit="10" stroke-linecap="round" stroke-linejoin="round"/>
<path d="M230.105 162.459C230.105 162.459 234.983 162.497 233.586 161.523C232.189 160.55 231.979 159.564 233.167 159.549C234.354 159.535 236.346 161.79 236.191 160.419C236.035 159.048 236.891 159.935 237.055 160.023C237.22 160.11 238.631 159.552 238.699 159.711C238.768 159.87 238.671 160.339 243.262 159.628" stroke="#263238" stroke-miterlimit="10" stroke-linecap="round" stroke-linejoin="round"/>
<path d="M213.777 151.392L234.246 148.223" stroke="#263238" stroke-miterlimit="10" stroke-linecap="round" stroke-linejoin="round"/>
<path d="M214.139 153.715L226.198 151.848" stroke="#263238" stroke-miterlimit="10" stroke-linecap="round" stroke-linejoin="round"/>
<path d="M214.771 157.809L231.588 155.205" stroke="#263238" stroke-miterlimit="10" stroke-linecap="round" stroke-linejoin="round"/>
<path d="M219.992 142.499L240.515 139.322" stroke="#263238" stroke-miterlimit="10" stroke-linecap="round" stroke-linejoin="round"/>
<path d="M24.5371 128.165L70.4227 119.001L86.4468 195.931L37.6728 206.395L24.5371 128.165Z" stroke="#263238" stroke-miterlimit="10" stroke-linecap="round" stroke-linejoin="round"/>
<path d="M35.8301 195.415L84.5049 186.605" stroke="#263238" stroke-miterlimit="10" stroke-linecap="round" stroke-linejoin="round"/>
<path d="M78.7361 180.063L55.4922 184.354" stroke="#263238" stroke-miterlimit="10" stroke-linecap="round" stroke-linejoin="round"/>
<path d="M75.29 176.2L68.498 177.201" stroke="#263238" stroke-miterlimit="10" stroke-linecap="round" stroke-linejoin="round"/>
<path d="M76.3253 168.347L41.6289 174.854" stroke="#263238" stroke-miterlimit="10" stroke-linecap="round" stroke-linejoin="round"/>
<path d="M30.5391 163.905L78.0293 155.518" stroke="#263238" stroke-miterlimit="10" stroke-linecap="round" stroke-linejoin="round" stroke-dasharray="1 2"/>
<path d="M80.9997 193.441L52.1523 199.487" stroke="#263238" stroke-miterlimit="10" stroke-linecap="round" stroke-linejoin="round"/>
<path d="M80.1415 191.01L66.5762 193.441" stroke="#263238" stroke-miterlimit="10" stroke-linecap="round" stroke-linejoin="round"/>
<path d="M72.8043 150.45L49.0176 155.165" stroke="#263238" stroke-miterlimit="10" stroke-linecap="round" stroke-linejoin="round"/>
<path d="M70.9247 145.169L63.3477 146.659" stroke="#263238" stroke-miterlimit="10" stroke-linecap="round" stroke-linejoin="round"/>
<path d="M70.4772 141.5L35.8301 148.178" stroke="#263238" stroke-miterlimit="10" stroke-linecap="round" stroke-linejoin="round"/>
<path d="M67.3289 123.649L57.9746 125.585" stroke="#263238" stroke-miterlimit="10" stroke-linecap="round" stroke-linejoin="round"/>
<path d="M35.8287 130.298L27.7559 131.866" stroke="#263238" stroke-miterlimit="10" stroke-linecap="round" stroke-linejoin="round"/>
<path d="M30.6953 136.316C31.0253 135.164 31.85 134.198 32.9338 133.688" stroke="#263238" stroke-miterlimit="10" stroke-linecap="round" stroke-linejoin="round"/>
<path d="M34.282 141.5C32.2478 141.237 30.5391 139.545 30.5391 137.445" stroke="#263238" stroke-miterlimit="10" stroke-linecap="round" stroke-linejoin="round"/>
<path d="M37.4315 140.54C36.8553 141.052 36.1405 141.385 35.377 141.494" stroke="#263238" stroke-miterlimit="10" stroke-linecap="round" stroke-linejoin="round"/>
<path d="M34.6816 133.303C37.8048 133.316 39.8543 136.961 38.1999 139.631" stroke="#263238" stroke-miterlimit="10" stroke-linecap="round" stroke-linejoin="round"/>
<path d="M42.9307 134.371C42.179 134.129 41.4302 133.857 40.6582 133.688" stroke="#263238" stroke-miterlimit="10" stroke-linecap="round" stroke-linejoin="round"/>
<path d="M49.3506 134.915C48.7093 136.436 45.1316 135.047 44.0879 134.732" stroke="#263238" stroke-miterlimit="10" stroke-linecap="round" stroke-linejoin="round"/>
<path d="M43.2246 130.873C45.4541 131.403 47.683 131.933 49.9125 132.463C49.8072 132.908 49.7223 133.359 49.6374 133.809" stroke="#263238" stroke-miterlimit="10" stroke-linecap="round" stroke-linejoin="round"/>
<path d="M39.9121 132.463C40.6253 130.739 40.3462 130.189 42.124 130.611" stroke="#263238" stroke-miterlimit="10" stroke-linecap="round" stroke-linejoin="round"/>
<path d="M121.547 252.587L130.403 255.303L123.822 247.551C127.445 243.382 129.586 238.281 129.651 232.985" stroke="#263238" stroke-miterlimit="10" stroke-linecap="round" stroke-linejoin="round"/>
<path d="M110.801 256.008C113.866 255.025 116.657 253.595 119.106 251.839" stroke="#263238" stroke-miterlimit="10" stroke-linecap="round" stroke-linejoin="round"/>
<path d="M76.6191 239.54C79.2267 252.108 93.118 259.852 107.646 256.838" stroke="#263238" stroke-miterlimit="10" stroke-linecap="round" stroke-linejoin="round"/>
<path d="M78.7361 225.366C78.1769 226.432 77.7032 227.532 77.3223 228.658" stroke="#263238" stroke-miterlimit="10" stroke-linecap="round" stroke-linejoin="round"/>
<path d="M129.231 228.624C126.623 216.056 112.732 208.311 98.204 211.325C91.1828 212.782 85.2975 216.485 81.3848 221.341" stroke="#263238" stroke-miterlimit="10" stroke-linecap="round" stroke-linejoin="round"/>
<path d="M113.817 224.017C109.635 219.459 103.934 222.619 101.565 227.243C97.6459 223.832 91.1788 223.017 88.9918 228.803C85.3037 238.558 97.9261 244.503 103.763 246.658C104.425 246.907 104.972 247.112 105.426 247.269C105.789 246.954 106.222 246.561 106.743 246.083C111.36 241.913 120.868 231.701 113.817 224.017Z" stroke="#263238" stroke-miterlimit="10" stroke-linecap="round" stroke-linejoin="round"/>
<path d="M148.598 38.4746L140.045 34.9189L145.848 43.2686C141.84 47.0698 139.218 51.9397 138.643 57.2058" stroke="#263238" stroke-miterlimit="10" stroke-linecap="round" stroke-linejoin="round"/>
<path d="M159.625 36.1045C156.479 36.7877 153.563 37.9423 150.957 39.4546" stroke="#263238" stroke-miterlimit="10" stroke-linecap="round" stroke-linejoin="round"/>
<path d="M192.061 55.7892C190.676 43.0287 177.595 33.9818 162.844 35.5825" stroke="#263238" stroke-miterlimit="10" stroke-linecap="round" stroke-linejoin="round"/>
<path d="M188.59 69.6931C189.249 68.6856 189.827 67.6362 190.314 66.5518" stroke="#263238" stroke-miterlimit="10" stroke-linecap="round" stroke-linejoin="round"/>
<path d="M138.643 61.5864C140.028 74.3469 153.108 83.3938 167.859 81.7932C174.988 81.0195 181.203 77.9002 185.565 73.4436" stroke="#263238" stroke-miterlimit="10" stroke-linecap="round" stroke-linejoin="round"/>
<path d="M171.575 69.4089C178.116 65.9081 180.581 57.7678 177.08 51.2269C173.579 44.686 165.439 42.2216 158.898 45.7223C152.357 49.2231 149.893 57.3634 153.393 63.9043C156.894 70.4452 165.035 72.9096 171.575 69.4089Z" stroke="#263238" stroke-miterlimit="10" stroke-linecap="round" stroke-linejoin="round"/>
<path d="M160.129 59.2545L164.144 63.0473L170.85 51.5088" stroke="#263238" stroke-miterlimit="10" stroke-linecap="round" stroke-linejoin="round"/>
<path opacity="0.2" d="M182.021 185.486C182.021 185.486 180.006 209.868 182.917 215.779C185.828 221.691 187.293 262.108 185.985 267.191C185.985 267.191 195.372 269.558 199.086 266.197C202.8 262.835 208.511 266.069 217.915 262.779C227.319 259.489 220.534 186.89 220.534 186.89L220.825 160.478L205.308 146.659L182.021 185.486Z" fill="black" fill-opacity="0.7"/>
<path d="M194.529 197.211C194.444 197.426 194.353 197.585 194.251 197.681C192.248 199.577 183.695 201.683 176.349 203.2C170.264 204.462 165.006 205.316 165.006 205.316C165.006 205.316 160.976 171.826 160.976 168.306C160.976 164.78 154.479 107.789 154.479 107.789L170.055 107.115L190.753 106.221C190.753 106.221 190.878 107.744 191.087 110.404C192.412 127.373 197.127 190.527 194.529 197.211Z" fill="#92E3A9"/>
<mask id="mask0_52_2092" style="mask-type:luminance" maskUnits="userSpaceOnUse" x="154" y="106" width="42" height="100">
<path d="M194.529 197.211C194.444 197.426 194.353 197.585 194.251 197.681C192.248 199.577 183.695 201.683 176.349 203.2C170.264 204.462 165.006 205.316 165.006 205.316C165.006 205.316 160.976 171.826 160.976 168.306C160.976 164.78 154.479 107.789 154.479 107.789L170.055 107.115L190.753 106.221C190.753 106.221 190.878 107.744 191.087 110.404C192.412 127.373 197.127 190.527 194.529 197.211Z" fill="white"/>
</mask>
<g mask="url(#mask0_52_2092)">
<path opacity="0.2" d="M194.528 197.211L176.348 200.953L169.482 202.362C167.62 200.534 166.199 200.5 166.199 200.5L165.656 195.378L164.767 186.995L156.945 113.245C158.655 112.074 159.481 109.51 159.481 109.51L169.952 109.13L188.092 108.468L191.086 110.404C192.411 127.373 197.126 190.527 194.528 197.211Z" fill="black" fill-opacity="0.7"/>
</g>
<mask id="mask1_52_2092" style="mask-type:luminance" maskUnits="userSpaceOnUse" x="154" y="106" width="42" height="100">
<path d="M194.529 197.211C194.444 197.426 194.353 197.585 194.251 197.681C192.248 199.577 183.695 201.683 176.349 203.2C170.264 204.462 165.006 205.316 165.006 205.316C165.006 205.316 160.976 171.826 160.976 168.306C160.976 164.78 154.479 107.789 154.479 107.789L170.055 107.115L190.753 106.221C190.753 106.221 190.878 107.744 191.087 110.404C192.412 127.373 197.127 190.527 194.529 197.211Z" fill="white"/>
</mask>
<g mask="url(#mask1_52_2092)">
<path d="M194.528 197.211L176.348 200.953L169.482 202.362C167.62 200.534 166.199 200.5 166.199 200.5L165.656 195.378L164.767 186.995L156.945 113.245C158.655 112.074 159.481 109.51 159.481 109.51L169.952 109.13L188.092 108.468L191.086 110.404C192.411 127.373 197.126 190.527 194.528 197.211Z" stroke="#263238" stroke-miterlimit="10" stroke-linecap="round" stroke-linejoin="round"/>
</g>
<mask id="mask2_52_2092" style="mask-type:luminance" maskUnits="userSpaceOnUse" x="154" y="106" width="42" height="100">
<path d="M194.529 197.211C194.444 197.426 194.353 197.585 194.251 197.681C192.248 199.577 183.695 201.683 176.349 203.2C170.264 204.462 165.006 205.316 165.006 205.316C165.006 205.316 160.976 171.826 160.976 168.306C160.976 164.78 154.479 107.789 154.479 107.789L170.055 107.115L190.753 106.221C190.753 106.221 190.878 107.744 191.087 110.404C192.412 127.373 197.127 190.527 194.529 197.211Z" fill="white"/>
</mask>
<g mask="url(#mask2_52_2092)">
<path d="M167.164 175.498L173.23 175.489L173.236 177.387L171.548 177.985L167.66 178.41L167.164 175.498Z" fill="#92E3A9" stroke="#263238" stroke-miterlimit="10" stroke-linecap="round" stroke-linejoin="round"/>
<path d="M167.537 179.404L171.996 179.251L173.139 179.797L173.079 182.312L167.875 182.372L167.537 179.404Z" fill="#92E3A9" stroke="#263238" stroke-miterlimit="10" stroke-linecap="round" stroke-linejoin="round"/>
<path d="M168.248 183.428L173.344 183.063L173.284 184.971L170.824 185.841L168.219 185.694L168.248 183.428Z" fill="#92E3A9" stroke="#263238" stroke-miterlimit="10" stroke-linecap="round" stroke-linejoin="round"/>
<path d="M168.555 186.645L172.667 186.852L173.04 187.907L172.442 189.069L168.764 189.302L168.129 187.508L168.555 186.645Z" fill="#92E3A9" stroke="#263238" stroke-miterlimit="10" stroke-linecap="round" stroke-linejoin="round"/>
<path d="M173.298 190.327C173.494 190.876 173.689 191.424 173.884 191.973C174.014 192.339 174.137 192.775 173.911 193.091C173.725 193.351 173.366 193.423 173.048 193.394C172.73 193.365 172.422 193.258 172.103 193.244C171.149 193.202 170.267 193.989 169.327 193.819C168.96 192.803 168.034 191.31 169.288 190.85C169.48 190.779 173.431 190.702 173.298 190.327Z" fill="#92E3A9" stroke="#263238" stroke-miterlimit="10" stroke-linecap="round" stroke-linejoin="round"/>
<path d="M173.28 194.965C173.372 195.356 173.437 195.753 173.474 196.153C173.521 196.67 173.48 197.279 173.052 197.572C172.827 197.727 172.54 197.757 172.268 197.781C171.177 197.879 170.087 197.977 168.997 198.075C168.967 198.078 168.921 196.393 168.966 196.221C169.158 195.487 169.022 195.547 169.719 195.249C170.823 194.777 172.147 195.526 173.28 194.965Z" fill="#92E3A9" stroke="#263238" stroke-miterlimit="10" stroke-linecap="round" stroke-linejoin="round"/>
</g>
<mask id="mask3_52_2092" style="mask-type:luminance" maskUnits="userSpaceOnUse" x="154" y="106" width="42" height="100">
<path d="M194.529 197.211C194.444 197.426 194.353 197.585 194.251 197.681C192.248 199.577 183.695 201.683 176.349 203.2C170.264 204.462 165.006 205.316 165.006 205.316C165.006 205.316 160.976 171.826 160.976 168.306C160.976 164.78 154.479 107.789 154.479 107.789L170.055 107.115L190.753 106.221C190.753 106.221 190.878 107.744 191.087 110.404C192.412 127.373 197.127 190.527 194.529 197.211Z" fill="white"/>
</mask>
<g mask="url(#mask3_52_2092)">
<path d="M161.383 114.913C161.383 114.913 162.618 126.842 162.674 129.202" stroke="#263238" stroke-miterlimit="10" stroke-linecap="round" stroke-linejoin="round"/>
</g>
<mask id="mask4_52_2092" style="mask-type:luminance" maskUnits="userSpaceOnUse" x="154" y="106" width="42" height="100">
<path d="M194.529 197.211C194.444 197.426 194.353 197.585 194.251 197.681C192.248 199.577 183.695 201.683 176.349 203.2C170.264 204.462 165.006 205.316 165.006 205.316C165.006 205.316 160.976 171.826 160.976 168.306C160.976 164.78 154.479 107.789 154.479 107.789L170.055 107.115L190.753 106.221C190.753 106.221 190.878 107.744 191.087 110.404C192.412 127.373 197.127 190.527 194.529 197.211Z" fill="white"/>
</mask>
<g mask="url(#mask4_52_2092)">
<path d="M164.043 115.028L164.623 121.601" stroke="#263238" stroke-miterlimit="10" stroke-linecap="round" stroke-linejoin="round"/>
</g>
<mask id="mask5_52_2092" style="mask-type:luminance" maskUnits="userSpaceOnUse" x="154" y="106" width="42" height="100">
<path d="M194.529 197.211C194.444 197.426 194.353 197.585 194.251 197.681C192.248 199.577 183.695 201.683 176.349 203.2C170.264 204.462 165.006 205.316 165.006 205.316C165.006 205.316 160.976 171.826 160.976 168.306C160.976 164.78 154.479 107.789 154.479 107.789L170.055 107.115L190.753 106.221C190.753 106.221 190.878 107.744 191.087 110.404C192.412 127.373 197.127 190.527 194.529 197.211Z" fill="white"/>
</mask>
<g mask="url(#mask5_52_2092)">
<path d="M173.262 112.544L174.009 120.247L175.056 120.346L174.715 112.616L173.262 112.544Z" fill="#92E3A9" stroke="#263238" stroke-miterlimit="10" stroke-linecap="round" stroke-linejoin="round"/>
</g>
<mask id="mask6_52_2092" style="mask-type:luminance" maskUnits="userSpaceOnUse" x="154" y="106" width="42" height="100">
<path d="M194.529 197.211C194.444 197.426 194.353 197.585 194.251 197.681C192.248 199.577 183.695 201.683 176.349 203.2C170.264 204.462 165.006 205.316 165.006 205.316C165.006 205.316 160.976 171.826 160.976 168.306C160.976 164.78 154.479 107.789 154.479 107.789L170.055 107.115L190.753 106.221C190.753 106.221 190.878 107.744 191.087 110.404C192.412 127.373 197.127 190.527 194.529 197.211Z" fill="white"/>
</mask>
<g mask="url(#mask6_52_2092)">
<path opacity="0.2" d="M194.528 197.211C194.443 197.426 194.352 197.585 194.25 197.681C192.247 199.577 183.694 201.683 176.348 203.2V198.117L165.656 195.378L164.043 194.964L164.767 186.995L167.535 156.533L169.952 109.13L170.054 107.115L190.753 106.221C190.753 106.221 190.877 107.744 191.086 110.404C192.411 127.373 197.126 190.527 194.528 197.211Z" fill="black" fill-opacity="0.7"/>
</g>
<path d="M194.529 197.211C194.444 197.426 194.353 197.585 194.251 197.681C192.248 199.577 183.695 201.683 176.349 203.2C170.264 204.462 165.006 205.316 165.006 205.316C165.006 205.316 160.976 171.826 160.976 168.306C160.976 164.78 154.479 107.789 154.479 107.789L170.055 107.115L190.753 106.221C190.753 106.221 190.878 107.744 191.087 110.404C192.412 127.373 197.127 190.527 194.529 197.211Z" stroke="#263238" stroke-miterlimit="10" stroke-linecap="round" stroke-linejoin="round"/>
<path d="M205.492 273.208C205.623 272.014 203.743 254.882 203.71 253.02C203.619 247.914 202.176 241.241 202.176 241.241C200.161 236.09 198.593 224.221 193.216 216.608C187.845 208.996 187.845 200.042 186.95 192.429C186.05 184.816 186.277 185.484 186.503 178.737C186.724 171.985 186.277 168.023 185.83 163.546C185.382 159.063 184.488 151.179 185.83 147.505C187.171 143.838 190.68 142.989 194.523 146.656C198.366 150.33 199.934 165.419 199.934 167.281C199.934 169.144 199.934 174.962 201.281 177.203C201.281 177.203 208.894 173.309 208.894 172.234C208.894 171.159 208.668 161.655 209.788 161.146L205.311 146.656L213.818 143.64C213.818 143.64 215.867 145.321 217.916 148.564C218.759 149.9 219.608 151.507 220.31 153.369C223.893 162.872 229.649 169.5 230.838 172.234C232.026 174.962 230.838 196.68 230.838 200.715C230.838 204.745 228.234 223.372 228.302 226.485C228.353 228.732 229.881 237.171 231.404 243.629C231.993 246.12 235.406 264.164 235.904 265.596L205.492 273.208Z" fill="white"/>
<path opacity="0.4" d="M212.194 160.218C212.137 161.435 213.592 171.136 213.592 171.136C214.602 173.55 209.097 181.791 209.097 181.791C207.909 182.463 207.392 186.606 207.392 186.606C203.668 185.779 195.14 177.203 195.14 177.203C195.14 177.203 194.116 180.718 192.995 189.418C191.874 198.111 199.04 218.782 202.096 233.051C205.153 247.32 203.71 253.02 203.71 253.02C203.619 247.914 202.176 241.241 202.176 241.241C200.161 236.09 198.593 224.221 193.216 216.608C187.845 208.996 187.845 200.042 186.95 192.429C186.05 184.816 186.277 185.484 186.503 178.737C186.724 171.985 186.277 168.023 185.83 163.546C185.382 159.063 184.488 151.179 185.83 147.505C187.171 143.838 190.68 142.989 194.523 146.656C198.366 150.33 199.934 165.419 199.934 167.281C199.934 169.144 199.934 174.962 201.281 177.203C201.281 177.203 208.894 173.309 208.894 172.234C208.894 171.159 208.668 161.655 209.788 161.146L205.311 146.656L213.818 143.64C213.818 143.64 215.867 145.321 217.916 148.564C215.154 154.082 212.228 159.459 212.194 160.218Z" fill="#92E3A9"/>
<path opacity="0.4" d="M226.469 228.013C226.842 224.623 227.957 216.546 228.665 211.509C227.799 215.442 226.412 217.435 226.412 217.435C226.412 217.435 228.823 188.552 229.061 186.808C229.299 185.059 231.733 177.135 230.838 172.234C232.027 174.962 230.838 196.679 230.838 200.715C230.838 204.745 228.235 223.372 228.303 226.485C228.353 228.732 230.781 243.174 232.303 249.632C229.02 244.877 226.095 231.426 226.469 228.013Z" fill="#92E3A9"/>
<path d="M235.904 265.597C234.113 260.447 228.372 229.597 228.303 226.485C228.232 223.374 230.835 204.743 230.835 200.713C230.835 196.682 232.024 174.963 230.835 172.232C229.647 169.502 223.894 162.872 220.312 153.367C217.913 147.004 213.818 143.638 213.818 143.638L205.309 146.66L209.788 161.144C208.668 161.655 208.892 171.156 208.892 172.232C208.892 173.308 201.279 177.201 201.279 177.201C199.935 174.962 199.935 169.141 199.935 167.28C199.935 165.42 198.368 150.332 194.524 146.659C190.681 142.986 187.172 143.839 185.829 147.508C184.485 151.177 185.381 159.065 185.829 163.543C186.276 168.022 186.724 171.985 186.501 178.736C186.276 185.487 186.053 184.815 186.948 192.428C187.844 200.041 187.844 208.998 193.218 216.61C198.592 224.224 200.159 236.091 202.174 241.24C202.174 241.24 205.982 268.732 205.493 273.21" stroke="#263238" stroke-miterlimit="10" stroke-linecap="round" stroke-linejoin="round"/>
<path d="M201.279 177.202C201.279 177.202 202.623 183.471 205.645 186.606" stroke="#263238" stroke-miterlimit="10" stroke-linecap="round" stroke-linejoin="round"/>
<path d="M202.096 180.062C202.096 180.062 207.773 181.792 210.124 181.903" stroke="#263238" stroke-miterlimit="10" stroke-linecap="round" stroke-linejoin="round"/>
<path d="M208.893 172.232C208.893 172.232 212.923 170.372 215.498 171.492" stroke="#263238" stroke-miterlimit="10" stroke-linecap="round" stroke-linejoin="round"/>
<path d="M209.787 161.143C209.787 161.143 212.922 160.856 213.593 159.288" stroke="#263238" stroke-miterlimit="10" stroke-linecap="round" stroke-linejoin="round"/>
<path d="M194.254 218.207C194.254 218.207 200.271 225.678 202.062 229.485" stroke="#263238" stroke-miterlimit="10" stroke-linecap="round" stroke-linejoin="round"/>
<path d="M229.268 185.486C228.26 191.42 226.916 207.653 226.469 210.564" stroke="#263238" stroke-miterlimit="10" stroke-linecap="round" stroke-linejoin="round"/>
<path d="M231.195 174.288C231.362 179.664 230.051 182.463 230.051 182.463" stroke="#263238" stroke-miterlimit="10" stroke-linecap="round" stroke-linejoin="round"/>
<path d="M184.904 99.0571L226.412 109.994C226.412 109.994 211.813 154.26 208.83 159.756L203.884 198.341C203.884 198.341 177.375 197.177 165.184 193.492C165.184 193.492 172.889 153.299 173.303 147.948C173.718 142.597 184.904 99.0571 184.904 99.0571Z" fill="#92E3A9"/>
<mask id="mask7_52_2092" style="mask-type:luminance" maskUnits="userSpaceOnUse" x="165" y="99" width="62" height="100">
<path d="M184.904 99.0571L226.412 109.994C226.412 109.994 211.813 154.26 208.83 159.756L203.884 198.341C203.884 198.341 177.375 197.177 165.184 193.492C165.184 193.492 172.889 153.299 173.303 147.948C173.718 142.597 184.904 99.0571 184.904 99.0571Z" fill="white"/>
</mask>
<g mask="url(#mask7_52_2092)">
<path opacity="0.2" d="M175.976 145.569L185.12 106.465C185.12 106.465 189.056 104.51 190.578 102.731L220.311 111.184C220.311 111.184 220.402 114.1 222.102 115.97L207.1 159.204L203.462 191.074C203.462 191.074 198.62 191.463 198.158 195.046C198.158 195.046 182.47 195.893 171.946 193.118C171.946 193.118 170.706 189.251 168.811 186.807L175.976 145.569Z" fill="black" fill-opacity="0.7"/>
</g>
<mask id="mask8_52_2092" style="mask-type:luminance" maskUnits="userSpaceOnUse" x="165" y="99" width="62" height="100">
<path d="M184.904 99.0571L226.412 109.994C226.412 109.994 211.813 154.26 208.83 159.756L203.884 198.341C203.884 198.341 177.375 197.177 165.184 193.492C165.184 193.492 172.889 153.299 173.303 147.948C173.718 142.597 184.904 99.0571 184.904 99.0571Z" fill="white"/>
</mask>
<g mask="url(#mask8_52_2092)">
<path d="M175.976 145.569L185.12 106.465C185.12 106.465 189.056 104.51 190.578 102.731L220.311 111.184C220.311 111.184 220.402 114.1 222.102 115.97L207.1 159.204L203.462 191.074C203.462 191.074 198.62 191.463 198.158 195.046C198.158 195.046 182.47 195.893 171.946 193.118C171.946 193.118 170.706 189.251 168.811 186.807L175.976 145.569Z" stroke="#263238" stroke-miterlimit="10" stroke-linecap="round" stroke-linejoin="round"/>
</g>
<mask id="mask9_52_2092" style="mask-type:luminance" maskUnits="userSpaceOnUse" x="165" y="99" width="62" height="100">
<path d="M184.904 99.0571L226.412 109.994C226.412 109.994 211.813 154.26 208.83 159.756L203.884 198.341C203.884 198.341 177.375 197.177 165.184 193.492C165.184 193.492 172.889 153.299 173.303 147.948C173.718 142.597 184.904 99.0571 184.904 99.0571Z" fill="white"/>
</mask>
<g mask="url(#mask9_52_2092)">
<path d="M183.589 147.599C183.589 147.599 186.287 137.404 195.798 139.243C205.309 141.083 199.935 153.622 199.935 153.622C199.935 153.622 199.993 163.753 192.275 162.355C185.588 161.143 182.021 157.474 183.589 147.599Z" fill="#92E3A9" stroke="#263238" stroke-miterlimit="10" stroke-linecap="round" stroke-linejoin="round"/>
</g>
<mask id="mask10_52_2092" style="mask-type:luminance" maskUnits="userSpaceOnUse" x="165" y="99" width="62" height="100">
<path d="M184.904 99.0571L226.412 109.994C226.412 109.994 211.813 154.26 208.83 159.756L203.884 198.341C203.884 198.341 177.375 197.177 165.184 193.492C165.184 193.492 172.889 153.299 173.303 147.948C173.718 142.597 184.904 99.0571 184.904 99.0571Z" fill="white"/>
</mask>
<g mask="url(#mask10_52_2092)">
<path d="M188.739 110.183C188.739 110.183 185.865 121.827 185.119 124.065" stroke="#263238" stroke-miterlimit="10" stroke-linecap="round" stroke-linejoin="round"/>
</g>
<mask id="mask11_52_2092" style="mask-type:luminance" maskUnits="userSpaceOnUse" x="165" y="99" width="62" height="100">
<path d="M184.904 99.0571L226.412 109.994C226.412 109.994 211.813 154.26 208.83 159.756L203.884 198.341C203.884 198.341 177.375 197.177 165.184 193.492C165.184 193.492 172.889 153.299 173.303 147.948C173.718 142.597 184.904 99.0571 184.904 99.0571Z" fill="white"/>
</mask>
<g mask="url(#mask11_52_2092)">
<path d="M191.203 111.191L189.523 117.572" stroke="#263238" stroke-miterlimit="10" stroke-linecap="round" stroke-linejoin="round"/>
</g>
<mask id="mask12_52_2092" style="mask-type:luminance" maskUnits="userSpaceOnUse" x="165" y="99" width="62" height="100">
<path d="M184.904 99.0571L226.412 109.994C226.412 109.994 211.813 154.26 208.83 159.756L203.884 198.341C203.884 198.341 177.375 197.177 165.184 193.492C165.184 193.492 172.889 153.299 173.303 147.948C173.718 142.597 184.904 99.0571 184.904 99.0571Z" fill="white"/>
</mask>
<g mask="url(#mask12_52_2092)">
<path d="M212.193 115.669L217.915 117.684L217.287 119.476H215.496L211.689 118.58L212.193 115.669Z" fill="#92E3A9" stroke="#263238" stroke-miterlimit="10" stroke-linecap="round" stroke-linejoin="round"/>
<path d="M211.242 119.476L215.496 120.819L216.392 121.715L215.496 124.066L210.57 122.387L211.242 119.476Z" fill="#92E3A9" stroke="#263238" stroke-miterlimit="10" stroke-linecap="round" stroke-linejoin="round"/>
<path d="M210.569 123.506L215.495 124.864L214.801 126.641H212.192L209.785 125.633L210.569 123.506Z" fill="#92E3A9" stroke="#263238" stroke-miterlimit="10" stroke-linecap="round" stroke-linejoin="round"/>
<path d="M209.786 126.641L213.593 128.208V129.328L212.641 130.223L209.096 129.216V127.312L209.786 126.641Z" fill="#92E3A9" stroke="#263238" stroke-miterlimit="10" stroke-linecap="round" stroke-linejoin="round"/>
<path d="M213.028 131.695C213.029 132.278 213.03 132.86 213.031 133.442C213.032 133.831 213.002 134.282 212.683 134.505C212.421 134.688 212.059 134.636 211.768 134.503C211.478 134.37 211.223 134.166 210.927 134.046C210.042 133.688 208.948 134.136 208.118 133.662C208.111 132.582 207.737 130.865 209.072 130.85C209.277 130.847 213.028 132.093 213.028 131.695Z" fill="#92E3A9" stroke="#263238" stroke-miterlimit="10" stroke-linecap="round" stroke-linejoin="round"/>
<path d="M211.462 136.061C211.418 136.46 211.346 136.856 211.248 137.245C211.12 137.747 210.878 138.308 210.377 138.442C210.113 138.513 209.833 138.445 209.568 138.377C208.507 138.106 207.447 137.834 206.386 137.562C206.358 137.555 206.876 135.952 206.976 135.804C207.403 135.177 207.254 135.187 208.01 135.139C209.209 135.064 210.208 136.211 211.462 136.061Z" fill="#92E3A9" stroke="#263238" stroke-miterlimit="10" stroke-linecap="round" stroke-linejoin="round"/>
</g>
<mask id="mask13_52_2092" style="mask-type:luminance" maskUnits="userSpaceOnUse" x="165" y="99" width="62" height="100">
<path d="M184.904 99.0571L226.412 109.994C226.412 109.994 211.813 154.26 208.83 159.756L203.884 198.341C203.884 198.341 177.375 197.177 165.184 193.492C165.184 193.492 172.889 153.299 173.303 147.948C173.718 142.597 184.904 99.0571 184.904 99.0571Z" fill="white"/>
</mask>
<g mask="url(#mask13_52_2092)">
<path d="M200.717 111.975L198.814 119.476L199.766 119.924L202.061 112.534L200.717 111.975Z" fill="#92E3A9" stroke="#263238" stroke-miterlimit="10" stroke-linecap="round" stroke-linejoin="round"/>
</g>
<mask id="mask14_52_2092" style="mask-type:luminance" maskUnits="userSpaceOnUse" x="165" y="99" width="62" height="100">
<path d="M184.904 99.0571L226.412 109.994C226.412 109.994 211.813 154.26 208.83 159.756L203.884 198.341C203.884 198.341 177.375 197.177 165.184 193.492C165.184 193.492 172.889 153.299 173.303 147.948C173.718 142.597 184.904 99.0571 184.904 99.0571Z" fill="white"/>
</mask>
<g mask="url(#mask14_52_2092)">
<path d="M176.819 162.343L182.692 163.861L182.22 165.699L180.436 165.853L176.566 165.286L176.819 162.343Z" fill="#92E3A9" stroke="#263238" stroke-miterlimit="10" stroke-linecap="round" stroke-linejoin="round"/>
<path d="M176.197 166.217L180.551 167.191L181.52 168.007L180.829 170.427L175.777 169.175L176.197 166.217Z" fill="#92E3A9" stroke="#263238" stroke-miterlimit="10" stroke-linecap="round" stroke-linejoin="round"/>
<path d="M175.872 170.29L180.897 171.221L180.357 173.051L177.758 173.275L175.273 172.477L175.872 170.29Z" fill="#92E3A9" stroke="#263238" stroke-miterlimit="10" stroke-linecap="round" stroke-linejoin="round"/>
<path d="M175.361 173.48L179.287 174.716L179.383 175.832L178.512 176.805L174.893 176.105L174.73 174.209L175.361 173.48Z" fill="#92E3A9" stroke="#263238" stroke-miterlimit="10" stroke-linecap="round" stroke-linejoin="round"/>
<path d="M179.023 178.239C179.074 178.819 179.125 179.399 179.175 179.979C179.209 180.366 179.218 180.818 178.92 181.067C178.675 181.272 178.309 181.251 178.008 181.144C177.708 181.036 177.437 180.855 177.132 180.761C176.219 180.479 175.167 181.019 174.3 180.618C174.201 179.542 173.681 177.864 175.01 177.734C175.212 177.714 179.057 178.635 179.023 178.239Z" fill="#92E3A9" stroke="#263238" stroke-miterlimit="10" stroke-linecap="round" stroke-linejoin="round"/>
<path d="M177.837 182.722C177.827 183.123 177.79 183.524 177.725 183.92C177.641 184.432 177.448 185.011 176.96 185.187C176.703 185.281 176.419 185.237 176.148 185.192C175.068 185.013 173.988 184.833 172.908 184.653C172.879 184.649 173.258 183.007 173.345 182.851C173.717 182.189 173.569 182.213 174.318 182.1C175.506 181.922 176.599 182.98 177.837 182.722Z" fill="#92E3A9" stroke="#263238" stroke-miterlimit="10" stroke-linecap="round" stroke-linejoin="round"/>
</g>
<mask id="mask15_52_2092" style="mask-type:luminance" maskUnits="userSpaceOnUse" x="165" y="99" width="62" height="100">
<path d="M184.904 99.0571L226.412 109.994C226.412 109.994 211.813 154.26 208.83 159.756L203.884 198.341C203.884 198.341 177.375 197.177 165.184 193.492C165.184 193.492 172.889 153.299 173.303 147.948C173.718 142.597 184.904 99.0571 184.904 99.0571Z" fill="white"/>
</mask>
<g mask="url(#mask15_52_2092)">
<path d="M201.277 188.217C201.277 188.217 202.621 173.173 202.621 171.682" stroke="#263238" stroke-miterlimit="10" stroke-linecap="round" stroke-linejoin="round"/>
</g>
<mask id="mask16_52_2092" style="mask-type:luminance" maskUnits="userSpaceOnUse" x="165" y="99" width="62" height="100">
<path d="M184.904 99.0571L226.412 109.994C226.412 109.994 211.813 154.26 208.83 159.756L203.884 198.341C203.884 198.341 177.375 197.177 165.184 193.492C165.184 193.492 172.889 153.299 173.303 147.948C173.718 142.597 184.904 99.0571 184.904 99.0571Z" fill="white"/>
</mask>
<g mask="url(#mask16_52_2092)">
<path d="M198.592 187.545C198.592 187.545 199.152 179.731 199.264 178.376" stroke="#263238" stroke-miterlimit="10" stroke-linecap="round" stroke-linejoin="round"/>
</g>
<mask id="mask17_52_2092" style="mask-type:luminance" maskUnits="userSpaceOnUse" x="165" y="99" width="62" height="100">
<path d="M184.904 99.0571L226.412 109.994C226.412 109.994 211.813 154.26 208.83 159.756L203.884 198.341C203.884 198.341 177.375 197.177 165.184 193.492C165.184 193.492 172.889 153.299 173.303 147.948C173.718 142.597 184.904 99.0571 184.904 99.0571Z" fill="white"/>
</mask>
<g mask="url(#mask17_52_2092)">
<path d="M188.091 181.904L186.275 190.792H188.091L189.41 181.904H188.091Z" fill="#92E3A9" stroke="#263238" stroke-miterlimit="10" stroke-linecap="round" stroke-linejoin="round"/>
</g>
<mask id="mask18_52_2092" style="mask-type:luminance" maskUnits="userSpaceOnUse" x="165" y="99" width="62" height="100">
<path d="M184.904 99.0571L226.412 109.994C226.412 109.994 211.813 154.26 208.83 159.756L203.884 198.341C203.884 198.341 177.375 197.177 165.184 193.492C165.184 193.492 172.889 153.299 173.303 147.948C173.718 142.597 184.904 99.0571 184.904 99.0571Z" fill="white"/>
</mask>
<g mask="url(#mask18_52_2092)">
<path opacity="0.2" d="M208.951 159.533C205.023 158.712 201.519 157.506 198.927 155.769C198.927 155.769 200.806 161.168 207.468 170.372L203.885 198.343C203.885 198.343 186.582 197.585 173.508 195.349C177.526 184.029 184.816 162.578 183.962 158.327C182.79 152.492 186.928 145.603 186.928 145.603C200.008 143.249 212.692 133.361 221.397 125.001C216.965 138.121 210.915 155.661 208.951 159.533Z" fill="black" fill-opacity="0.7"/>
</g>
<path d="M184.904 99.0571L226.412 109.994C226.412 109.994 211.813 154.26 208.83 159.756L203.884 198.341C203.884 198.341 177.375 197.177 165.184 193.492C165.184 193.492 172.889 153.299 173.303 147.948C173.718 142.597 184.904 99.0571 184.904 99.0571Z" stroke="#263238" stroke-miterlimit="10" stroke-linecap="round" stroke-linejoin="round"/>
<path d="M207.909 187.17L202.062 229.484C200.761 226.717 197.212 221.996 195.378 219.636C194.699 218.753 194.252 218.204 194.252 218.204L193.216 216.608C187.845 208.995 187.845 200.041 186.95 192.428C186.05 184.816 186.277 185.483 186.503 178.737C186.724 171.984 186.277 168.022 185.83 163.545C185.382 159.063 184.488 151.178 185.83 147.505C186.486 145.705 187.669 144.584 189.152 144.347C190.692 144.092 192.565 144.788 194.523 146.656C198.366 150.329 199.934 165.419 199.934 167.281C199.934 169.143 199.934 174.961 201.281 177.203C201.281 177.203 204.887 184.034 207.909 187.17Z" fill="white"/>
<path opacity="0.4" d="M192.769 213.591C193.991 215.153 194.823 217.406 195.378 219.636C194.699 218.753 194.252 218.204 194.252 218.204L193.216 216.608C187.845 208.995 187.845 200.041 186.95 192.428C186.05 184.816 186.277 185.484 186.503 178.737C186.724 171.984 186.277 168.022 185.83 163.545C185.382 159.063 184.488 151.178 185.83 147.505C186.486 145.705 187.669 144.584 189.152 144.347C192.005 145.15 194.801 148.031 195.797 152.961C197.472 161.236 189.837 154.552 188.065 161.564C186.299 168.571 188.869 170.468 189.927 172.233C190.98 173.999 189.633 177.888 188.065 183.123C186.503 188.365 189.412 209.295 192.769 213.591Z" fill="#92E3A9"/>
<path d="M207.909 187.171C204.886 184.037 201.279 177.201 201.279 177.201C199.935 174.962 199.935 169.14 199.935 167.28C199.935 165.419 198.368 150.331 194.524 146.659C190.681 142.985 187.172 143.838 185.829 147.508C184.485 151.177 185.381 159.065 185.829 163.543C186.276 168.021 186.724 171.984 186.501 178.736C186.276 185.486 186.053 184.815 186.948 192.428C187.844 200.041 187.844 208.997 193.218 216.61L194.254 218.207C194.254 218.207 200.271 225.678 202.062 229.485" stroke="#263238" stroke-miterlimit="10" stroke-linecap="round" stroke-linejoin="round"/>
<path d="M188.092 169.263C188.092 169.263 193.229 166.609 195.798 166.833" stroke="#263238" stroke-miterlimit="10" stroke-linecap="round" stroke-linejoin="round"/>
<path opacity="0.2" d="M109.698 96.6779C109.698 96.6779 96.7111 82.3808 95.8151 81.4854C94.9197 80.5899 94.2478 65.364 91.7846 58.6461C89.3214 51.9288 88.1186 12.5199 88.1186 12.5199C88.1186 12.5199 85.7737 9.60901 79.1509 11.1763C72.5282 12.7435 66.0344 9.83258 58.6459 14.0872C51.2568 18.3418 65.5873 79.2457 65.5873 79.2457L80.1261 125.585L109.698 96.6779Z" fill="black" fill-opacity="0.7"/>
<path d="M118.616 96.7803C118.616 96.7803 112.797 133.95 106.747 138.874C103.243 141.732 97.7814 143.006 92.9364 142.83C89.4272 142.706 86.235 141.823 84.3559 140.221C79.8788 136.412 73.6075 134.397 70.4775 131.935C67.3419 129.472 67.3419 120.739 65.3269 113.347C63.312 105.961 60.3971 105.734 59.7292 98.3481C59.0557 90.9561 56.3672 68.3444 51.4996 62.0732C46.632 55.8019 46.5188 50.8777 44.5038 44.4932C42.4888 38.1087 27.7559 15.0216 27.7559 15.0216L63.6855 7.66357C63.6855 7.66357 67.2174 22.2834 70.9983 34.209C72.7925 39.869 74.6433 44.929 76.1941 47.5213C81.0165 55.5811 83.9087 63.1938 83.9087 63.1938C87.9726 67.4502 90.197 76.8797 90.8705 85.1377V85.1433L100.481 90.509C107.867 92.524 118.616 96.7803 118.616 96.7803Z" fill="white"/>
<path opacity="0.4" d="M118.616 96.7803C118.616 96.7803 112.798 133.95 106.747 138.874C103.244 141.732 97.782 143.006 92.937 142.83C81.4472 139.989 78.3569 133.593 76.8004 132.042C74.7288 129.976 72.0063 117.388 73.5006 110.064C74.9892 102.74 73.9183 100.029 72.6855 96.452C69.9534 88.5274 78.2912 84.2615 79.1515 81.2611C80.0118 78.267 79.7034 61.484 75.9621 56.0277C73.9698 53.1241 68.8345 38.1585 70.9989 34.209C72.7931 39.869 74.6439 44.929 76.1947 47.5213C81.017 55.5811 83.9093 63.1938 83.9093 63.1938C87.9732 67.4502 90.1976 76.8797 90.8711 85.1377V85.1433L100.482 90.509C107.868 92.524 118.616 96.7803 118.616 96.7803Z" fill="#92E3A9"/>
<path d="M74.7387 94.1729C74.7387 94.1729 72.7152 96.5563 70.9238 96.5563" stroke="#263238" stroke-miterlimit="10" stroke-linecap="round" stroke-linejoin="round"/>
<path d="M79.1507 102.224C79.1507 102.224 76.9688 106.856 73.498 107.864" stroke="#263238" stroke-miterlimit="10" stroke-linecap="round" stroke-linejoin="round"/>
<path d="M75.2891 129.359C75.2891 129.359 80.215 127.232 80.9989 123.649" stroke="#263238" stroke-miterlimit="10" stroke-linecap="round" stroke-linejoin="round"/>
<path d="M100.48 90.5103C100.48 90.5103 99.248 92.0775 99.248 93.3091" stroke="#263238" stroke-miterlimit="10" stroke-linecap="round" stroke-linejoin="round"/>
<path d="M63.6855 7.66357C63.6855 7.66357 71.3718 39.4558 76.1941 47.5213C81.0165 55.5811 83.9087 63.1938 83.9087 63.1938C87.9726 67.4502 90.197 76.8854 90.8705 85.1433M90.8705 85.1433V85.1377M90.8705 85.1433L100.481 90.509C107.867 92.524 118.616 96.7803 118.616 96.7803C118.616 96.7803 112.797 133.95 106.747 138.874C100.702 143.804 88.8386 144.024 84.3559 140.221C79.8788 136.412 73.6075 134.397 70.4775 131.935C67.3419 129.472 67.3419 120.739 65.3269 113.347C63.312 105.961 60.3971 105.734 59.7292 98.3481C59.0557 90.9561 56.3672 68.3444 51.4996 62.0732C46.632 55.8019 46.5188 50.8777 44.5038 44.4932C42.4888 38.1087 27.7559 15.0216 27.7559 15.0216" stroke="#263238" stroke-miterlimit="10" stroke-linecap="round" stroke-linejoin="round"/>
<path d="M132.231 94.3721L72.8047 185.846L86.8324 187.409L129.446 189.179L133.806 107.819L132.231 94.3721Z" fill="#263238" stroke="#263238" stroke-miterlimit="10" stroke-linecap="round" stroke-linejoin="round"/>
<path d="M132.229 94.3691L126.739 187.618L72.8047 185.846L77.061 114.394L78.3854 92.207L101.886 93.1523L132.229 94.3691Z" fill="#757575"/>
<mask id="mask19_52_2092" style="mask-type:luminance" maskUnits="userSpaceOnUse" x="72" y="92" width="61" height="96">
<path d="M132.229 94.3691L126.739 187.618L72.8047 185.846L77.061 114.394L78.3854 92.207L101.886 93.1523L132.229 94.3691Z" fill="white"/>
</mask>
<g mask="url(#mask19_52_2092)">
<path d="M118.667 176.884C122.295 176.884 125.235 173.944 125.235 170.316C125.235 166.689 122.295 163.749 118.667 163.749C115.04 163.749 112.1 166.689 112.1 170.316C112.1 173.944 115.04 176.884 118.667 176.884Z" fill="#BFBFBF" stroke="#263238" stroke-miterlimit="10"/>
<path d="M116.818 165.957L121.267 166.541" stroke="#263238" stroke-miterlimit="10" stroke-linecap="round" stroke-linejoin="round"/>
<path d="M115.621 167.038L122.309 167.692" stroke="#263238" stroke-miterlimit="10" stroke-linecap="round" stroke-linejoin="round"/>
<path d="M114.881 173.624L121.569 174.277" stroke="#263238" stroke-miterlimit="10" stroke-linecap="round" stroke-linejoin="round"/>
<path d="M117.811 168.529C118.384 168.59 118.542 168.327 118.691 168.021L119.19 168.075L118.683 172.8L117.941 172.72L118.328 169.116L117.754 169.055L117.811 168.529Z" fill="#263238"/>
<path d="M120.282 168.723C120.576 168.754 120.709 168.947 120.676 169.256L120.669 169.316L120.383 169.285L120.391 169.205C120.406 169.067 120.356 169.009 120.26 168.999C120.164 168.988 120.103 169.035 120.088 169.173C120.073 169.313 120.123 169.424 120.302 169.619C120.532 169.869 120.595 170.038 120.571 170.259C120.538 170.568 120.364 170.727 120.067 170.696C119.769 170.664 119.634 170.471 119.667 170.162L119.679 170.044L119.966 170.075L119.951 170.212C119.936 170.35 119.992 170.407 120.088 170.417C120.184 170.427 120.25 170.383 120.266 170.246C120.28 170.105 120.231 169.995 120.051 169.799C119.821 169.549 119.759 169.38 119.782 169.16C119.816 168.851 119.987 168.691 120.282 168.723Z" fill="#263238"/>
<path d="M120.813 168.802L121.75 168.902L121.721 169.178L121.404 169.144L121.227 170.797L120.924 170.765L121.101 169.111L120.783 169.077L120.813 168.802Z" fill="#263238"/>
</g>
<mask id="mask20_52_2092" style="mask-type:luminance" maskUnits="userSpaceOnUse" x="72" y="92" width="61" height="96">
<path d="M132.229 94.3691L126.739 187.618L72.8047 185.846L77.061 114.394L78.3854 92.207L101.886 93.1523L132.229 94.3691Z" fill="white"/>
</mask>
<g mask="url(#mask20_52_2092)">
<path d="M103.266 106.051L92.7384 103.755C92.4667 103.695 92.2941 103.427 92.3535 103.155L93.7849 96.5924C93.8443 96.3207 94.1126 96.1481 94.3843 96.2075L104.912 98.5038C105.184 98.5632 105.356 98.8315 105.297 99.1032L103.865 105.667C103.806 105.938 103.538 106.11 103.266 106.051Z" fill="white" stroke="#263238" stroke-miterlimit="10" stroke-linecap="round" stroke-linejoin="round"/>
<path d="M96.2033 102.684C96.1977 102.673 96.1858 102.662 96.1665 102.644C96.1411 102.622 96.158 102.576 96.1382 102.548C96.1303 102.537 96.1179 102.531 96.1071 102.523C96.0771 102.501 96.0601 102.466 96.0443 102.432C96.0397 102.422 96.0347 102.411 96.0364 102.401C96.0398 102.38 96.063 102.37 96.0805 102.358C96.106 102.342 96.1246 102.314 96.1309 102.284C96.1331 102.274 96.1343 102.261 96.1428 102.254C96.1518 102.247 96.1665 102.249 96.175 102.24C96.1807 102.235 96.1818 102.225 96.183 102.217C96.1926 102.11 96.115 102.03 96.0488 101.949C95.8835 101.746 95.8501 101.64 95.8796 101.505C95.909 101.369 95.9741 101.33 96.0686 101.351C96.1631 101.371 96.2062 101.434 96.1762 101.569L96.1592 101.647L96.4399 101.708L96.4529 101.649C96.509 101.392 96.4365 101.207 96.235 101.117L96.2656 100.977L96.0228 100.924L95.9922 101.064C95.7743 101.065 95.6334 101.204 95.5785 101.458C95.5315 101.674 95.5819 101.843 95.7833 102.088C95.9492 102.288 95.982 102.397 95.9526 102.532C95.9231 102.667 95.853 102.702 95.7585 102.682C95.6639 102.661 95.6153 102.6 95.6447 102.464L95.6769 102.316L95.3962 102.255L95.3679 102.385C95.3119 102.641 95.3843 102.83 95.5881 102.919L95.5581 103.057L95.8009 103.11L95.8309 102.972C95.8298 102.977 95.9645 102.953 95.9769 102.948C96.0205 102.932 96.0607 102.907 96.0947 102.875C96.1309 102.842 96.1614 102.801 96.1841 102.757C96.2045 102.718 96.2118 102.701 96.2033 102.684Z" fill="#263238"/>
<path d="M97.7794 102.592C97.7754 102.549 97.7652 102.504 97.7465 102.46C97.7381 102.439 97.7279 102.417 97.7347 102.396C97.7403 102.378 97.7573 102.365 97.7715 102.353C97.9231 102.219 97.7358 102.037 97.5937 102.006C97.4749 101.98 97.3803 102.01 97.3017 102.086L97.4245 101.641L97.9429 101.754L98.0018 101.484L97.219 101.313C97.21 101.346 97.1828 101.4 97.1868 101.433C97.1913 101.473 97.2338 101.486 97.2349 101.528C97.2355 101.548 97.2253 101.569 97.2264 101.59C97.2287 101.625 97.2592 101.649 97.2864 101.67C97.3136 101.691 97.3419 101.719 97.3385 101.753C97.3368 101.767 97.33 101.781 97.3226 101.792C97.2949 101.841 97.2626 101.892 97.2111 101.914C97.1913 101.923 97.167 101.929 97.1585 101.949C97.154 101.959 97.1551 101.97 97.1539 101.981C97.1489 102.02 97.1121 102.048 97.0781 102.07C96.9655 102.144 96.9598 102.271 96.9258 102.398L97.2066 102.459L97.219 102.403C97.2485 102.267 97.3192 102.229 97.4137 102.25C97.5083 102.27 97.5564 102.335 97.5269 102.47L97.4364 102.886C97.407 103.021 97.3368 103.056 97.2422 103.036C97.1477 103.016 97.099 102.954 97.1285 102.819L97.167 102.643L96.8862 102.582L96.8523 102.739C96.7861 103.041 96.8998 103.247 97.1913 103.31C97.4828 103.374 97.6718 103.234 97.7375 102.932C97.7624 102.816 97.7901 102.705 97.7794 102.592Z" fill="#263238"/>
<path d="M101.473 103.385C101.469 103.341 101.459 103.297 101.44 103.252C101.431 103.232 101.421 103.209 101.428 103.188C101.434 103.17 101.451 103.158 101.465 103.145C101.616 103.011 101.429 102.828 101.287 102.798C101.168 102.772 101.074 102.802 100.995 102.878L101.118 102.433L101.636 102.546L101.695 102.276L100.912 102.105C100.903 102.138 100.876 102.192 100.88 102.225C100.885 102.265 100.927 102.278 100.928 102.319C100.929 102.34 100.919 102.361 100.92 102.382C100.922 102.416 100.953 102.441 100.98 102.462C101.007 102.483 101.035 102.511 101.032 102.545C101.03 102.559 101.023 102.572 101.016 102.584C100.988 102.633 100.956 102.684 100.904 102.706C100.885 102.715 100.86 102.721 100.852 102.741C100.848 102.751 100.848 102.762 100.847 102.773C100.842 102.812 100.805 102.84 100.771 102.862C100.659 102.936 100.653 103.064 100.619 103.19L100.9 103.251L100.912 103.195C100.942 103.06 101.013 103.021 101.107 103.042C101.202 103.062 101.25 103.127 101.22 103.262L101.13 103.678C101.1 103.813 101.03 103.848 100.936 103.828C100.841 103.808 100.792 103.746 100.822 103.611L100.86 103.435L100.58 103.374L100.546 103.531C100.479 103.833 100.593 104.039 100.885 104.102C101.176 104.166 101.365 104.026 101.431 103.724C101.455 103.608 101.483 103.497 101.473 103.385Z" fill="#263238"/>
<path d="M98.4233 102.031C98.4527 101.895 98.5235 101.857 98.618 101.878C98.6814 101.891 98.7125 101.936 98.7244 101.997C98.755 102.008 98.7889 102.015 98.8206 102.022C98.8263 102.023 98.8325 102.025 98.8365 102.029C98.8421 102.035 98.8421 102.044 98.8433 102.052C98.8466 102.084 98.8687 102.112 98.8959 102.13C98.9349 102.157 98.9797 102.172 99.0182 102.199C99.1132 101.924 98.9536 101.668 98.6769 101.608C98.3854 101.544 98.1884 101.683 98.1222 101.985C98.1142 102.021 98.1041 102.058 98.0984 102.095C98.0843 102.186 98.1137 102.154 98.1912 102.189C98.2252 102.204 98.3112 102.27 98.232 102.3C98.2235 102.303 98.2139 102.303 98.2054 102.308C98.1974 102.313 98.1907 102.322 98.194 102.331C98.2139 102.339 98.2337 102.347 98.249 102.361C98.2642 102.375 98.2739 102.397 98.2671 102.417C98.2614 102.435 98.2444 102.447 98.2388 102.464C98.2337 102.48 98.2371 102.502 98.2224 102.51C98.2156 102.514 98.2071 102.513 98.2003 102.517C98.1884 102.523 98.159 102.589 98.1471 102.605C98.129 102.627 98.1052 102.658 98.0786 102.672C98.0016 102.713 97.971 102.681 97.9478 102.785C97.9343 102.845 97.9212 102.906 97.9082 102.966C97.842 103.269 97.9637 103.476 98.2557 103.54C98.5472 103.603 98.7442 103.465 98.8104 103.163L98.8965 102.769C98.8863 102.765 98.8755 102.766 98.8659 102.761C98.7985 102.731 98.7351 102.695 98.6752 102.653C98.6553 102.64 98.6401 102.622 98.6208 102.607L98.5099 103.117C98.4805 103.252 98.4097 103.29 98.3152 103.27C98.2207 103.249 98.1725 103.185 98.202 103.049C98.202 103.049 98.3689 102.283 98.3678 102.278C98.3633 102.229 98.3786 102.184 98.4001 102.141L98.4233 102.031Z" fill="#263238"/>
<path d="M99.8185 102.965C99.8282 102.958 99.8367 102.95 99.8417 102.939C99.8548 102.913 99.8429 102.88 99.87 102.841C99.9159 102.85 99.9521 102.852 99.9974 102.852L100.092 102.415C100.159 102.113 100.037 101.905 99.745 101.842C99.4535 101.778 99.2565 101.916 99.1903 102.219L99.1727 102.298C99.2146 102.333 99.2378 102.387 99.2763 102.419C99.3131 102.448 99.3765 102.442 99.3646 102.516C99.3589 102.553 99.3301 102.592 99.3516 102.622C99.3635 102.639 99.3872 102.644 99.3974 102.662C99.4088 102.683 99.3952 102.708 99.3788 102.725C99.3623 102.741 99.3414 102.754 99.3318 102.776C99.3176 102.808 99.329 102.857 99.2967 102.872C99.2463 102.895 99.1892 102.801 99.1286 102.81C99.0765 102.818 99.0561 102.863 99.0397 102.908C99.0069 103 98.9956 103.106 98.9746 103.202C98.9084 103.505 99.0301 103.712 99.3216 103.776C99.4512 103.804 99.5916 103.796 99.6997 103.711C99.7529 103.67 99.7925 103.614 99.8225 103.554C99.8706 103.458 99.8672 103.429 99.8038 103.344C99.7982 103.337 99.7914 103.328 99.7817 103.328C99.7704 103.326 99.7614 103.337 99.7518 103.344C99.7427 103.351 99.7257 103.353 99.7218 103.342C99.7087 103.297 99.6957 103.252 99.6821 103.207C99.6799 103.199 99.6776 103.191 99.6799 103.183C99.6844 103.166 99.7053 103.161 99.7195 103.15C99.7636 103.118 99.7416 103.042 99.7761 102.999C99.7897 102.985 99.805 102.975 99.8185 102.965ZM99.5774 103.352C99.548 103.487 99.4772 103.525 99.3827 103.505C99.2882 103.484 99.2401 103.42 99.2695 103.284L99.492 102.264C99.5214 102.129 99.5921 102.091 99.6867 102.111C99.7812 102.132 99.8293 102.196 99.7999 102.331L99.5774 103.352Z" fill="#263238"/>
<path d="M100.319 103.669L100.257 103.955L99.9707 103.893L100.033 103.606L100.319 103.669Z" fill="#263238"/>
<path d="M102.683 103.165C102.718 103.14 102.721 103.032 102.73 102.99C102.796 102.688 102.675 102.48 102.383 102.417C102.091 102.354 101.894 102.492 101.828 102.794C101.801 102.919 101.775 103.045 101.746 103.169C101.819 103.236 101.732 103.345 101.777 103.423C101.784 103.435 101.795 103.447 101.796 103.461C101.798 103.506 101.712 103.513 101.712 103.558C101.712 103.567 101.716 103.574 101.717 103.582C101.737 103.657 101.669 103.65 101.64 103.686C101.622 103.709 101.62 103.748 101.613 103.778C101.547 104.08 101.669 104.288 101.96 104.351C102.252 104.414 102.449 104.276 102.515 103.974C102.538 103.871 102.56 103.768 102.582 103.665C102.6 103.585 102.684 103.374 102.597 103.31C102.578 103.297 102.554 103.29 102.54 103.272C102.523 103.248 102.53 103.216 102.54 103.188C102.573 103.103 102.622 103.197 102.683 103.165ZM102.34 103.663C102.318 103.699 102.283 103.709 102.255 103.754C102.227 103.799 102.226 103.876 102.214 103.927C102.185 104.062 102.114 104.1 102.02 104.08C101.925 104.059 101.877 103.995 101.906 103.86C101.915 103.82 101.963 103.707 101.946 103.671C101.933 103.643 101.89 103.65 101.871 103.607C101.849 103.558 101.862 103.476 101.875 103.426C101.878 103.413 101.882 103.398 101.88 103.384C101.876 103.358 101.852 103.332 101.865 103.31C101.869 103.3 101.878 103.295 101.885 103.288C101.91 103.261 101.899 103.217 101.904 103.166C101.91 103.16 101.92 103.164 101.927 103.166C102.106 103.232 102.103 102.955 102.128 102.84C102.158 102.705 102.229 102.667 102.323 102.687C102.418 102.707 102.466 102.772 102.436 102.907C102.413 103.015 102.355 103.154 102.364 103.263C102.414 103.264 102.453 103.305 102.456 103.355C102.457 103.387 102.444 103.42 102.455 103.45C102.463 103.474 102.487 103.498 102.476 103.521C102.467 103.541 102.441 103.543 102.42 103.55C102.388 103.56 102.363 103.589 102.355 103.621C102.353 103.638 102.347 103.652 102.34 103.663Z" fill="#263238"/>
<path d="M99.5215 99.0459C100.159 99.1851 100.797 99.3244 101.435 99.4636" stroke="#263238" stroke-miterlimit="10" stroke-linecap="round" stroke-linejoin="round"/>
<path d="M95.1758 98.0981C96.3151 98.3466 97.4539 98.5951 98.5933 98.8436" stroke="#263238" stroke-miterlimit="10" stroke-linecap="round" stroke-linejoin="round"/>
<path d="M94.8887 99.4106L97.1312 99.8997" stroke="#263238" stroke-miterlimit="10" stroke-linecap="round" stroke-linejoin="round"/>
</g>
<mask id="mask21_52_2092" style="mask-type:luminance" maskUnits="userSpaceOnUse" x="72" y="92" width="61" height="96">
<path d="M132.229 94.3691L126.739 187.618L72.8047 185.846L77.061 114.394L78.3854 92.207L101.886 93.1523L132.229 94.3691Z" fill="white"/>
</mask>
<g mask="url(#mask21_52_2092)">
<path opacity="0.4" d="M75.291 185.021C75.291 185.021 78.8738 183.936 84.3968 183.799C89.9199 183.663 93.4432 184.708 97.9808 182.469C102.518 180.23 105.445 184.261 109.773 182.021C114.102 179.782 116.116 176.187 118.617 176.268C121.118 176.349 124.85 136.256 126.044 129.359C127.238 122.461 129.795 103.224 130.672 99.3232L125.746 186.243L75.291 185.021Z" fill="white"/>
</g>
<mask id="mask22_52_2092" style="mask-type:luminance" maskUnits="userSpaceOnUse" x="72" y="92" width="61" height="96">
<path d="M132.229 94.3691L126.739 187.618L72.8047 185.846L77.061 114.394L78.3854 92.207L101.886 93.1523L132.229 94.3691Z" fill="white"/>
</mask>
<g mask="url(#mask22_52_2092)">
<path d="M75.5157 167.915L89.3232 184.709L74.7402 183.799L75.5157 167.915Z" fill="#92E3A9" stroke="#263238" stroke-miterlimit="10" stroke-linecap="round" stroke-linejoin="round"/>
</g>
<mask id="mask23_52_2092" style="mask-type:luminance" maskUnits="userSpaceOnUse" x="72" y="92" width="61" height="96">
<path d="M132.229 94.3691L126.739 187.618L72.8047 185.846L77.061 114.394L78.3854 92.207L101.886 93.1523L132.229 94.3691Z" fill="white"/>
</mask>
<g mask="url(#mask23_52_2092)">
<path d="M112.155 134.685L111.932 141.077C111.802 144.811 108.64 147.758 104.907 147.628L98.3402 147.399C94.6068 147.269 91.6591 144.108 91.7893 140.374L92.0797 132.054C92.2098 128.32 95.371 125.373 99.1043 125.503L105.672 125.732C105.853 125.738 106.033 125.75 106.208 125.773C105.241 126.719 104.617 128.028 104.567 129.482C104.461 132.492 106.814 135.014 109.824 135.12C110.649 135.148 111.442 134.989 112.155 134.685Z" fill="#92E3A9" stroke="#263238" stroke-miterlimit="10" stroke-linecap="round" stroke-linejoin="round"/>
<path d="M113.333 129.191C113.273 130.905 111.835 132.246 110.121 132.187C108.406 132.127 107.066 130.689 107.125 128.974C107.185 127.26 108.623 125.919 110.338 125.978C112.052 126.038 113.393 127.477 113.333 129.191Z" fill="#92E3A9" stroke="#263238" stroke-miterlimit="10" stroke-linecap="round" stroke-linejoin="round"/>
</g>
<mask id="mask24_52_2092" style="mask-type:luminance" maskUnits="userSpaceOnUse" x="72" y="92" width="61" height="96">
<path d="M132.229 94.3691L126.739 187.618L72.8047 185.846L77.061 114.394L78.3854 92.207L101.886 93.1523L132.229 94.3691Z" fill="white"/>
</mask>
<g mask="url(#mask24_52_2092)">
<path opacity="0.4" d="M93.6562 141.158L103.307 132.911C103.307 132.911 102.082 128.486 103.307 127.089L98.6693 127.079C96.3532 127.074 94.4334 128.872 94.2873 131.183L93.6562 141.158Z" fill="white"/>
</g>
<mask id="mask25_52_2092" style="mask-type:luminance" maskUnits="userSpaceOnUse" x="72" y="92" width="61" height="96">
<path d="M132.229 94.3691L126.739 187.618L72.8047 185.846L77.061 114.394L78.3854 92.207L101.886 93.1523L132.229 94.3691Z" fill="white"/>
</mask>
<g mask="url(#mask25_52_2092)">
<path opacity="0.4" d="M108.915 129.359L110.984 127.078C110.984 127.078 109.699 126.21 108.915 127.078C108.131 127.947 108.915 129.359 108.915 129.359Z" fill="white"/>
</g>
<mask id="mask26_52_2092" style="mask-type:luminance" maskUnits="userSpaceOnUse" x="72" y="92" width="61" height="96">
<path d="M132.229 94.3691L126.739 187.618L72.8047 185.846L77.061 114.394L78.3854 92.207L101.886 93.1523L132.229 94.3691Z" fill="white"/>
</mask>
<g mask="url(#mask26_52_2092)">
<path d="M107.906 178.663L123.468 179.335" stroke="#263238" stroke-miterlimit="10" stroke-linecap="round" stroke-linejoin="round"/>
</g>
<mask id="mask27_52_2092" style="mask-type:luminance" maskUnits="userSpaceOnUse" x="72" y="92" width="61" height="96">
<path d="M132.229 94.3691L126.739 187.618L72.8047 185.846L77.061 114.394L78.3854 92.207L101.886 93.1523L132.229 94.3691Z" fill="white"/>
</mask>
<g mask="url(#mask27_52_2092)">
<path d="M102.518 180.231L123.469 181.351" stroke="#263238" stroke-miterlimit="10" stroke-linecap="round" stroke-linejoin="round"/>
</g>
<mask id="mask28_52_2092" style="mask-type:luminance" maskUnits="userSpaceOnUse" x="72" y="92" width="61" height="96">
<path d="M132.229 94.3691L126.739 187.618L72.8047 185.846L77.061 114.394L78.3854 92.207L101.886 93.1523L132.229 94.3691Z" fill="white"/>
</mask>
<g mask="url(#mask28_52_2092)">
<path d="M117.982 184.709H123.468" stroke="#263238" stroke-miterlimit="10" stroke-linecap="round" stroke-linejoin="round"/>
</g>
<mask id="mask29_52_2092" style="mask-type:luminance" maskUnits="userSpaceOnUse" x="72" y="92" width="61" height="96">
<path d="M132.229 94.3691L126.739 187.618L72.8047 185.846L77.061 114.394L78.3854 92.207L101.886 93.1523L132.229 94.3691Z" fill="white"/>
</mask>
<g mask="url(#mask29_52_2092)">
<path opacity="0.2" d="M98.9138 127.559C90.8879 131.42 82.1942 117.898 79.1491 116.036C78.4189 115.588 77.7114 115.011 77.0605 114.394L78.385 92.207L101.885 93.1523C101.732 96.4577 101.783 100.108 102.519 102.225C104.098 106.787 106.934 123.705 98.9138 127.559Z" fill="black" fill-opacity="0.7"/>
</g>
<mask id="mask30_52_2092" style="mask-type:luminance" maskUnits="userSpaceOnUse" x="72" y="92" width="61" height="96">
<path d="M132.229 94.3691L126.739 187.618L72.8047 185.846L77.061 114.394L78.3854 92.207L101.886 93.1523L132.229 94.3691Z" fill="white"/>
</mask>
<g mask="url(#mask30_52_2092)">
<path opacity="0.4" d="M89.9199 128.249C89.9199 128.249 96.3389 131.032 99.2493 129.359C102.16 127.686 105.295 124.551 105.743 117.536C105.743 117.536 109.562 127.413 101.856 130.373C94.1508 133.333 89.9199 128.249 89.9199 128.249Z" fill="white"/>
</g>
<mask id="mask31_52_2092" style="mask-type:luminance" maskUnits="userSpaceOnUse" x="72" y="92" width="61" height="96">
<path d="M132.229 94.3691L126.739 187.618L72.8047 185.846L77.061 114.394L78.3854 92.207L101.886 93.1523L132.229 94.3691Z" fill="white"/>
</mask>
<g mask="url(#mask31_52_2092)">
<path opacity="0.4" d="M87.4199 132.201C87.4199 132.201 100.407 135.697 106.005 129.359C106.005 129.359 105.258 132.873 99.2499 133.881C93.2412 134.889 87.4199 132.201 87.4199 132.201Z" fill="white"/>
</g>
<mask id="mask32_52_2092" style="mask-type:luminance" maskUnits="userSpaceOnUse" x="72" y="92" width="61" height="96">
<path d="M132.229 94.3691L126.739 187.618L72.8047 185.846L77.061 114.394L78.3854 92.207L101.886 93.1523L132.229 94.3691Z" fill="white"/>
</mask>
<g mask="url(#mask32_52_2092)">
<path opacity="0.4" d="M108.355 109.586C107.366 107.827 108.579 123.649 108.579 123.649C108.579 123.649 110.37 113.169 108.355 109.586Z" fill="white"/>
</g>
<path d="M132.229 94.3691L126.739 187.618L72.8047 185.846L77.061 114.394L78.3854 92.207L101.886 93.1523L132.229 94.3691Z" stroke="#263238" stroke-miterlimit="10" stroke-linecap="round" stroke-linejoin="round"/>
<path opacity="0.4" d="M129.503 188.113L127.537 187.618L132.229 102.224L133.06 107.863L129.503 188.113Z" fill="white"/>
<path d="M98.9125 127.56C97.5202 128.352 95.6411 128.392 94.0789 127.633C93.0035 127.118 91.9847 126.184 91.0734 124.543C88.8377 120.513 82.7872 111.332 81.6722 108.667C80.5515 106.001 78.0894 98.5691 75.6273 95.4391C73.1595 92.3035 71.8181 87.6 71.8181 87.6L70.9238 41.9238C72.2652 48.529 75.9612 56.0285 75.9612 56.0285C81.4458 58.9378 83.9079 63.1941 83.9079 63.1941C84.4569 63.7714 84.9719 64.4393 85.453 65.1921C89.1094 70.8521 90.881 81.0344 91.0734 88.9414C91.2998 97.9012 94.2091 101.931 98.9125 109.765C103.616 117.604 101.968 125.82 98.9125 127.56Z" fill="white"/>
<path opacity="0.4" d="M98.9126 127.559C97.4987 128.313 95.6411 128.391 94.079 127.633C96.6486 126.931 100.022 125.612 99.2466 123.648C98.0297 120.547 94.4695 125.148 92.6809 123.648C90.8867 122.148 84.3947 113.545 88.5208 109.759C92.6413 105.967 91.3339 99.6217 88.5208 97.8331C85.7022 96.0389 87.5303 91.7826 88.4246 85.0755C88.968 81.0173 87.0492 71.8254 85.4531 65.1919C89.1095 70.8519 90.8811 81.0342 91.0735 88.9413C91.2999 97.901 94.2091 101.931 98.9126 109.764C103.616 117.603 101.968 125.932 98.9126 127.559Z" fill="#92E3A9"/>
<path d="M70.9238 41.9214C72.2675 48.5266 75.9618 56.0278 75.9618 56.0278C81.4475 58.9387 83.9107 63.1928 83.9107 63.1928C88.613 68.1187 90.8521 79.986 91.0757 88.9424C91.2998 97.8988 94.2102 101.929 98.9125 109.766C103.615 117.603 102.309 125.707 98.9125 127.561C96.5461 128.852 93.3148 128.574 91.0757 124.544C88.8366 120.513 82.7911 111.333 81.6716 108.666C80.5521 105.999 78.0888 98.5701 75.6262 95.4356C73.1629 92.301 71.8198 87.5987 71.8198 87.5987" stroke="#263238" stroke-miterlimit="10" stroke-linecap="round" stroke-linejoin="round"/>
<path d="M85.4531 107.863C85.4531 107.863 89.1101 107.536 90.7826 106.154" stroke="#263238" stroke-miterlimit="10" stroke-linecap="round" stroke-linejoin="round"/>
<path d="M70.4757 88.5273C70.4757 88.5273 69.7665 90.2503 73.4981 91.9132" stroke="#263238" stroke-miterlimit="10" stroke-linecap="round" stroke-linejoin="round"/>
</svg>
