<?xml version="1.0" ?><!DOCTYPE svg  PUBLIC '-//W3C//DTD SVG 1.1//EN'  'http://www.w3.org/Graphics/SVG/1.1/DTD/svg11.dtd'><svg enable-background="new 0 0 64 64" height="64px" id="Layer_1" version="1.1" viewBox="0 0 64 64" width="64px" xml:space="preserve" xmlns="http://www.w3.org/2000/svg" xmlns:xlink="http://www.w3.org/1999/xlink"><path d="M15.609,0.763H6.336c-2.123,0-3.851,1.728-3.851,3.851v9.273c0,2.123,1.728,3.851,3.851,3.851h9.273  c2.123,0,3.851-1.728,3.851-3.851V4.613C19.459,2.49,17.732,0.763,15.609,0.763z M16.459,13.887c0,0.469-0.381,0.851-0.851,0.851  H6.336c-0.469,0-0.851-0.381-0.851-0.851V4.613c0-0.469,0.381-0.851,0.851-0.851h9.273c0.469,0,0.851,0.381,0.851,0.851V13.887z"/><path d="M36.636,0.763h-9.272c-2.123,0-3.851,1.728-3.851,3.851v9.273c0,2.124,1.728,3.852,3.851,3.852h9.272  c2.123,0,3.851-1.728,3.851-3.852V4.613C40.486,2.49,38.759,0.763,36.636,0.763z M37.486,13.887c0,0.47-0.382,0.852-0.851,0.852  h-9.272c-0.469,0-0.851-0.382-0.851-0.852V4.613c0-0.469,0.381-0.851,0.851-0.851h9.272c0.469,0,0.851,0.381,0.851,0.851V13.887z"/><path d="M57.664,0.763h-9.273c-2.123,0-3.851,1.728-3.851,3.851v9.273c0,2.124,1.728,3.852,3.851,3.852h9.273  c2.123,0,3.851-1.728,3.851-3.852V4.613C61.515,2.49,59.787,0.763,57.664,0.763z M58.515,13.887c0,0.47-0.382,0.852-0.851,0.852  h-9.273c-0.469,0-0.851-0.382-0.851-0.852V4.613c0-0.469,0.382-0.851,0.851-0.851h9.273c0.469,0,0.851,0.381,0.851,0.851V13.887z"/><path d="M15.609,23.513H6.336c-2.123,0-3.851,1.728-3.851,3.851v9.272c0,2.124,1.728,3.852,3.851,3.852h9.273  c2.123,0,3.851-1.728,3.851-3.852v-9.272C19.459,25.24,17.732,23.513,15.609,23.513z M16.459,36.636c0,0.47-0.381,0.852-0.851,0.852  H6.336c-0.469,0-0.851-0.382-0.851-0.852v-9.272c0-0.469,0.381-0.851,0.851-0.851h9.273c0.469,0,0.851,0.381,0.851,0.851V36.636z"/><path d="M36.636,23.513h-9.273c-2.123,0-3.85,1.728-3.85,3.851v9.272c0,2.124,1.727,3.852,3.85,3.852h9.273  c2.123,0,3.851-1.728,3.851-3.852v-9.272C40.486,25.24,38.759,23.513,36.636,23.513z M37.486,36.636c0,0.47-0.382,0.852-0.851,0.852  h-9.273c-0.468,0-0.85-0.382-0.85-0.852v-9.272c0-0.469,0.381-0.851,0.85-0.851h9.273c0.469,0,0.851,0.381,0.851,0.851V36.636z"/><path d="M57.664,23.513h-9.273c-2.123,0-3.851,1.728-3.851,3.851v9.272c0,2.124,1.728,3.852,3.851,3.852h9.273  c2.123,0,3.851-1.728,3.851-3.852v-9.272C61.515,25.24,59.787,23.513,57.664,23.513z M58.515,36.636c0,0.47-0.382,0.852-0.851,0.852  h-9.273c-0.469,0-0.851-0.382-0.851-0.852v-9.272c0-0.469,0.382-0.851,0.851-0.851h9.273c0.469,0,0.851,0.381,0.851,0.851V36.636z"/><path d="M15.609,46.263H6.336c-2.123,0-3.851,1.728-3.851,3.851v9.272c0,2.124,1.728,3.852,3.851,3.852h9.273  c2.123,0,3.851-1.728,3.851-3.852v-9.272C19.459,47.99,17.732,46.263,15.609,46.263z M16.459,59.386c0,0.47-0.381,0.852-0.851,0.852  H6.336c-0.469,0-0.851-0.382-0.851-0.852v-9.272c0-0.469,0.381-0.851,0.851-0.851h9.273c0.469,0,0.851,0.382,0.851,0.851V59.386z"/><path d="M36.636,46.263h-9.273c-2.123,0-3.85,1.728-3.85,3.851v9.272c0,2.124,1.727,3.852,3.85,3.852h9.273  c2.123,0,3.851-1.728,3.851-3.852v-9.272C40.486,47.99,38.759,46.263,36.636,46.263z M37.486,59.386c0,0.47-0.382,0.852-0.851,0.852  h-9.273c-0.468,0-0.85-0.382-0.85-0.852v-9.272c0-0.469,0.381-0.851,0.85-0.851h9.273c0.469,0,0.851,0.382,0.851,0.851V59.386z"/><path d="M57.664,46.263h-9.273c-2.123,0-3.851,1.728-3.851,3.851v9.272c0,2.124,1.728,3.852,3.851,3.852h9.273  c2.123,0,3.851-1.728,3.851-3.852v-9.272C61.515,47.99,59.787,46.263,57.664,46.263z M58.515,59.386c0,0.47-0.382,0.852-0.851,0.852  h-9.273c-0.469,0-0.851-0.382-0.851-0.852v-9.272c0-0.469,0.382-0.851,0.851-0.851h9.273c0.469,0,0.851,0.382,0.851,0.851V59.386z"/></svg>