<svg width="21" height="21" viewBox="0 0 21 21" fill="none" xmlns="http://www.w3.org/2000/svg">
<path d="M14.4375 9.1875V5.90625C14.4375 4.86196 14.0227 3.86044 13.2842 3.12202C12.5458 2.38359 11.5443 1.96875 10.5 1.96875C9.45571 1.96875 8.45419 2.38359 7.71577 3.12202C6.97734 3.86044 6.5625 4.86196 6.5625 5.90625V9.1875M5.90625 19.0312H15.0938C15.6159 19.0312 16.1167 18.8238 16.4859 18.4546C16.8551 18.0854 17.0625 17.5846 17.0625 17.0625V11.1562C17.0625 10.6341 16.8551 10.1333 16.4859 9.76413C16.1167 9.39492 15.6159 9.1875 15.0938 9.1875H5.90625C5.38411 9.1875 4.88335 9.39492 4.51413 9.76413C4.14492 10.1333 3.9375 10.6341 3.9375 11.1562V17.0625C3.9375 17.5846 4.14492 18.0854 4.51413 18.4546C4.88335 18.8238 5.38411 19.0312 5.90625 19.0312Z" stroke="black" stroke-width="1.5" stroke-linecap="round" stroke-linejoin="round"/>
</svg>
