<svg width="39" height="33" viewBox="0 0 39 33" fill="none" xmlns="http://www.w3.org/2000/svg">
<path d="M10.151 9.35306H5.04102V27.1163H10.151V9.35306Z" fill="black"/>
<path d="M21.5065 9.35306H16.3965V27.1163H21.5065V9.35306Z" fill="black"/>
<path d="M32.8619 9.35306H27.752V27.1163H32.8619V9.35306Z" fill="black"/>
<path d="M1.81641 9.05699V8.16874C1.81641 7.48449 2.22439 6.8665 2.85357 6.59796L17.9813 0.137521C18.3918 -0.0380627 18.8549 -0.0458103 19.2706 0.116002L35.0645 6.25367C35.7212 6.50844 36.1542 7.14106 36.1542 7.84598V9.05699C36.1542 10.0003 35.389 10.7655 34.4457 10.7655H3.52318C2.58157 10.7646 1.81641 10.0003 1.81641 9.05699Z" fill="black"/>
<path d="M35.4785 29.5693H2.49293C2.11938 29.5693 1.81641 29.2663 1.81641 28.8928V26.976C1.81641 26.6024 2.11938 26.2995 2.49293 26.2995H35.4785C35.8521 26.2995 36.155 26.6024 36.155 26.976V28.8928C36.1559 29.2663 35.8529 29.5693 35.4785 29.5693Z" fill="black"/>
<path d="M37.5783 33H0.66704C0.298659 33 0 32.7013 0 32.3329V29.3971C0 29.0287 0.298659 28.73 0.66704 28.73H37.5783C37.9467 28.73 38.2453 29.0287 38.2453 29.3971V32.3329C38.2453 32.7013 37.9467 33 37.5783 33Z" fill="black"/>
<path d="M20.6157 4.51678C20.6157 5.68218 19.6715 6.62636 18.5061 6.62636C17.3407 6.62636 16.3965 5.68218 16.3965 4.51678C16.3965 3.35139 17.3407 2.4072 18.5061 2.4072C19.6706 2.4072 20.6157 3.35139 20.6157 4.51678Z" fill="black"/>
<path d="M36.592 28.6758C36.592 28.7998 28.7312 28.8996 19.0371 28.8996C9.33956 28.8996 1.48047 28.7989 1.48047 28.6758C1.48047 28.5519 9.33956 28.4521 19.0371 28.4521C28.7312 28.4521 36.592 28.5528 36.592 28.6758Z" fill="#263238"/>
<path d="M34.9162 26.2994C34.9162 26.4234 27.7543 26.5232 18.9209 26.5232C10.0849 26.5232 2.92383 26.4225 2.92383 26.2994C2.92383 26.1755 10.084 26.0757 18.9209 26.0757C27.7543 26.0748 34.9162 26.1755 34.9162 26.2994Z" fill="#263238"/>
<path d="M33.9063 10.7646C33.9063 10.8886 27.1971 10.9884 18.9223 10.9884C10.645 10.9884 3.9375 10.8877 3.9375 10.7646C3.9375 10.6415 10.6458 10.5408 18.9223 10.5408C27.1971 10.5408 33.9063 10.6415 33.9063 10.7646Z" fill="#263238"/>
</svg>
