<svg width="30" height="26" viewBox="0 0 30 26" fill="none" xmlns="http://www.w3.org/2000/svg">
<path d="M7.96146 7.33661H3.95312V21.2702H7.96146V7.33661Z" fill="white"/>
<path d="M16.8697 7.33661H12.8613V21.2702H16.8697V7.33661Z" fill="white"/>
<path d="M25.7778 7.33661H21.7695V21.2702H25.7778V7.33661Z" fill="white"/>
<path d="M1.42578 7.10438V6.40764C1.42578 5.8709 1.74581 5.38615 2.23934 5.1755L14.1057 0.107873C14.4277 -0.0298567 14.7909 -0.035934 15.117 0.090993L27.5059 4.90544C28.021 5.10528 28.3606 5.60152 28.3606 6.15446V7.10438C28.3606 7.84434 27.7604 8.44454 27.0205 8.44454H2.76459C2.02599 8.44387 1.42578 7.84434 1.42578 7.10438Z" fill="white"/>
<path d="M27.8307 23.1944H1.95645C1.66344 23.1944 1.42578 22.9567 1.42578 22.6637V21.1602C1.42578 20.8672 1.66344 20.6295 1.95645 20.6295H27.8307C28.1237 20.6295 28.3613 20.8672 28.3613 21.1602V22.6637C28.362 22.9567 28.1243 23.1944 27.8307 23.1944Z" fill="white"/>
<path d="M29.4768 25.8855H0.523232C0.234271 25.8855 0 25.6512 0 25.3623V23.0594C0 22.7704 0.234271 22.5361 0.523232 22.5361H29.4768C29.7657 22.5361 30 22.7704 30 23.0594V25.3623C30 25.6512 29.7657 25.8855 29.4768 25.8855Z" fill="white"/>
<path d="M16.1709 3.54302C16.1709 4.45717 15.4303 5.19779 14.5161 5.19779C13.602 5.19779 12.8613 4.45717 12.8613 3.54302C12.8613 2.62888 13.602 1.88824 14.5161 1.88824C15.4296 1.88824 16.1709 2.62888 16.1709 3.54302Z" fill="white"/>
<path d="M28.7039 22.4936C28.7039 22.5908 22.5378 22.6691 14.9337 22.6691C7.32685 22.6691 1.16211 22.5901 1.16211 22.4936C1.16211 22.3964 7.32685 22.3181 14.9337 22.3181C22.5378 22.3181 28.7039 22.3971 28.7039 22.4936Z" fill="#263238"/>
<path d="M27.39 20.6295C27.39 20.7267 21.7721 20.8051 14.8431 20.8051C7.91211 20.8051 2.29492 20.7261 2.29492 20.6295C2.29492 20.5323 7.91144 20.454 14.8431 20.454C21.7721 20.4533 27.39 20.5323 27.39 20.6295Z" fill="#263238"/>
<path d="M26.5957 8.44384C26.5957 8.54106 21.333 8.61939 14.8421 8.61939C8.34929 8.61939 3.08789 8.54039 3.08789 8.44384C3.08789 8.3473 8.34996 8.26831 14.8421 8.26831C21.333 8.26831 26.5957 8.3473 26.5957 8.44384Z" fill="#263238"/>
</svg>
