<svg width="21" height="21" viewBox="0 0 21 21" fill="none" xmlns="http://www.w3.org/2000/svg">
<path d="M13.7804 5.25C13.7804 6.12024 13.4347 6.95484 12.8193 7.57019C12.204 8.18555 11.3694 8.53125 10.4991 8.53125C9.62888 8.53125 8.79428 8.18555 8.17893 7.57019C7.56358 6.95484 7.21788 6.12024 7.21788 5.25C7.21788 4.37976 7.56358 3.54516 8.17893 2.92981C8.79428 2.31445 9.62888 1.96875 10.4991 1.96875C11.3694 1.96875 12.204 2.31445 12.8193 2.92981C13.4347 3.54516 13.7804 4.37976 13.7804 5.25ZM3.9375 17.6033C3.96562 15.8816 4.6693 14.2399 5.89678 13.0323C7.12426 11.8247 8.7772 11.1479 10.4991 11.1479C12.221 11.1479 13.874 11.8247 15.1015 13.0323C16.329 14.2399 17.0326 15.8816 17.0608 17.6033C15.0022 18.5472 12.7638 19.0343 10.4991 19.0312C8.15762 19.0312 5.93512 18.5203 3.9375 17.6033Z" stroke="black" stroke-width="1.5" stroke-linecap="round" stroke-linejoin="round"/>
</svg>
